<svg xmlns="http://www.w3.org/2000/svg" xmlns:xlink="http://www.w3.org/1999/xlink" width="800" zoomAndPan="magnify" viewBox="0 0 600 899.99999" height="1200" preserveAspectRatio="xMidYMid meet" version="1.0"><defs><clipPath id="5fbee11464"><path d="M 38 98 L 562.671875 98 L 562.671875 827 L 38 827 Z M 38 98 " clip-rule="nonzero"/></clipPath><clipPath id="655cecfd0c"><path d="M 37.671875 97 L 562.671875 97 L 562.671875 827.464844 L 37.671875 827.464844 Z M 37.671875 97 " clip-rule="nonzero"/></clipPath><clipPath id="5c45265e4c"><path d="M 76 35.464844 L 525 35.464844 L 525 111 L 76 111 Z M 76 35.464844 " clip-rule="nonzero"/></clipPath></defs><g clip-path="url(#5fbee11464)"><path fill="#efe9cf" d="M 38.304688 98.085938 L 562.039062 98.085938 L 562.039062 826.765625 L 38.304688 826.765625 Z M 38.304688 98.085938 " fill-opacity="1" fill-rule="nonzero"/></g><path fill="#ffffff" d="M 56.6875 118.039062 L 543.816406 118.039062 L 543.816406 806.652344 L 56.6875 806.652344 Z M 56.6875 118.039062 " fill-opacity="1" fill-rule="nonzero"/><g clip-path="url(#655cecfd0c)"><path fill="#2a2a2a" d="M 562.671875 827.402344 L 37.671875 827.402344 L 37.671875 97.292969 L 562.671875 97.292969 Z M 39.097656 825.976562 L 561.40625 825.976562 L 561.40625 98.71875 L 39.097656 98.71875 Z M 544.449219 807.289062 L 55.894531 807.289062 L 55.894531 117.40625 L 544.449219 117.40625 Z M 57.324219 806.019531 L 543.179688 806.019531 L 543.179688 118.832031 L 57.324219 118.832031 Z M 57.324219 806.019531 " fill-opacity="1" fill-rule="nonzero"/></g><path fill="#0cc0df" d="M 146.855469 86.050781 L 146.855469 109.964844 L 133.386719 109.964844 L 128.949219 105.054688 C 126.097656 105.054688 123.878906 107.273438 123.71875 109.964844 L 99.949219 109.964844 C 99.792969 107.273438 97.414062 105.054688 94.71875 105.054688 L 90.285156 109.964844 L 76.8125 109.964844 L 76.8125 86.050781 C 76.8125 82.882812 77.289062 79.554688 78.238281 76.546875 C 78.558594 75.4375 79.507812 74.804688 80.777344 74.804688 L 142.894531 74.804688 C 144.003906 74.804688 144.953125 75.597656 145.429688 76.546875 C 146.378906 79.554688 146.855469 82.722656 146.855469 86.050781 Z M 523.53125 86.050781 L 523.53125 109.964844 L 510.0625 109.964844 L 505.625 105.054688 C 502.773438 105.054688 500.554688 107.273438 500.394531 109.964844 L 476.785156 109.964844 C 476.625 107.273438 474.25 105.054688 471.554688 105.054688 L 467.117188 109.964844 L 453.648438 109.964844 L 453.648438 86.050781 C 453.648438 82.882812 454.121094 79.554688 455.074219 76.546875 C 455.390625 75.4375 456.339844 74.804688 457.609375 74.804688 L 519.726562 74.804688 C 520.835938 74.804688 521.789062 75.597656 522.265625 76.546875 C 523.054688 79.554688 523.53125 82.722656 523.53125 86.050781 Z M 523.53125 86.050781 " fill-opacity="1" fill-rule="nonzero"/><path fill="#f4ba2f" d="M 131.167969 104.894531 C 128.949219 104.894531 126.890625 103.3125 126.414062 101.09375 C 122.136719 81.140625 119.28125 67.042969 118.492188 61.660156 C 119.125 60.074219 120.710938 58.332031 122.292969 56.589844 C 124.355469 54.375 125.9375 52.472656 125.9375 50.890625 C 125.9375 50.097656 125.621094 49.148438 124.988281 48.199219 C 125.621094 47.246094 125.9375 46.296875 125.9375 45.347656 C 125.9375 43.128906 124.511719 40.753906 121.976562 39.011719 C 120.074219 37.746094 116.746094 36.160156 111.675781 36.160156 C 106.605469 36.160156 103.277344 37.746094 101.375 39.011719 C 99 40.753906 97.414062 43.128906 97.414062 45.347656 C 97.414062 46.296875 97.730469 47.246094 98.367188 48.199219 C 97.730469 48.988281 97.414062 49.941406 97.414062 50.890625 C 97.414062 52.632812 99.15625 54.375 101.058594 56.589844 C 102.644531 58.332031 104.230469 60.074219 104.863281 61.660156 C 104.070312 67.042969 101.21875 81.140625 96.9375 101.09375 C 96.464844 103.3125 94.402344 104.894531 92.183594 104.894531 L 88.222656 104.894531 L 88.222656 107.746094 L 92.183594 107.746094 C 95.828125 107.746094 99 105.210938 99.792969 101.570312 C 101.375 93.96875 103.753906 83.355469 105.496094 74.488281 L 105.8125 74.488281 C 107.238281 68.628906 108.191406 63.875 108.191406 62.453125 C 108.191406 61.976562 108.03125 61.660156 108.03125 61.183594 C 108.191406 60.234375 108.191406 59.601562 108.191406 59.125 C 108.191406 56.273438 105.8125 53.105469 103.59375 50.097656 C 103.121094 49.464844 102.484375 48.671875 102.011719 48.039062 C 102.328125 47.722656 102.644531 47.5625 103.121094 47.246094 C 105.335938 45.980469 108.347656 45.1875 111.835938 45.1875 C 115.164062 45.1875 118.332031 45.980469 120.550781 47.246094 C 121.027344 47.882812 121.34375 48.199219 121.660156 48.355469 C 121.183594 48.988281 120.550781 49.78125 120.074219 50.414062 C 117.855469 53.425781 115.480469 56.433594 115.480469 59.441406 C 115.480469 59.917969 115.480469 60.550781 115.636719 61.5 C 115.480469 61.976562 115.480469 62.292969 115.480469 62.769531 C 115.480469 64.035156 116.429688 68.785156 117.855469 74.804688 L 118.015625 74.804688 C 119.757812 83.515625 121.976562 94.125 123.71875 101.886719 C 124.511719 105.371094 127.679688 108.0625 131.328125 108.0625 L 135.289062 108.0625 L 135.289062 105.210938 L 131.167969 105.210938 Z M 120.550781 54.53125 C 121.183594 53.742188 121.660156 52.949219 122.292969 52.15625 C 122.609375 51.839844 122.769531 51.523438 123.085938 51.207031 C 122.925781 52 121.660156 53.425781 120.550781 54.53125 Z M 100.582031 51.207031 C 100.902344 51.523438 101.058594 51.839844 101.375 52.15625 C 102.011719 52.949219 102.484375 53.742188 103.121094 54.53125 C 102.011719 53.425781 100.902344 52 100.582031 51.207031 Z M 122.136719 45.664062 C 120.234375 44.554688 116.90625 43.128906 111.835938 43.128906 C 106.765625 43.128906 103.4375 44.398438 101.535156 45.664062 C 101.21875 45.820312 100.902344 45.980469 100.742188 46.140625 C 100.582031 45.820312 100.582031 45.664062 100.582031 45.347656 C 100.582031 44.398438 101.21875 42.8125 103.277344 41.386719 C 105.496094 39.804688 108.507812 39.011719 111.992188 39.011719 C 115.320312 39.011719 118.492188 39.804688 120.710938 41.386719 C 122.453125 42.8125 123.246094 44.398438 123.246094 45.347656 C 123.246094 45.503906 123.085938 45.820312 123.085938 46.140625 C 122.769531 45.980469 122.453125 45.820312 122.136719 45.664062 Z M 508 104.894531 C 505.78125 104.894531 503.722656 103.3125 503.246094 101.09375 C 498.96875 81.140625 496.117188 67.042969 495.324219 61.660156 C 495.957031 60.074219 497.542969 58.332031 499.128906 56.589844 C 501.1875 54.375 502.773438 52.472656 502.773438 50.890625 C 502.773438 50.097656 502.457031 49.148438 501.820312 48.199219 C 502.457031 47.246094 502.773438 46.296875 502.773438 45.347656 C 502.773438 43.128906 501.347656 40.753906 498.808594 39.011719 C 496.910156 37.746094 493.582031 36.160156 488.511719 36.160156 C 483.4375 36.160156 480.113281 37.746094 478.210938 39.011719 C 475.832031 40.753906 474.25 43.128906 474.25 45.347656 C 474.25 46.296875 474.566406 47.246094 475.199219 48.199219 C 474.566406 48.988281 474.25 49.941406 474.25 50.890625 C 474.25 52.632812 475.992188 54.375 477.894531 56.589844 C 479.476562 58.332031 481.0625 60.074219 481.695312 61.660156 C 480.902344 67.042969 478.050781 81.140625 473.773438 101.09375 C 473.296875 103.3125 471.238281 104.894531 469.019531 104.894531 L 465.058594 104.894531 L 465.058594 107.746094 L 469.019531 107.746094 C 472.664062 107.746094 475.832031 105.210938 476.625 101.570312 C 478.210938 93.96875 480.585938 83.355469 482.328125 74.488281 L 482.488281 74.488281 C 483.914062 68.628906 484.867188 63.875 484.867188 62.453125 C 484.867188 61.976562 484.707031 61.660156 484.707031 61.183594 C 484.867188 60.234375 484.867188 59.601562 484.867188 59.125 C 484.867188 56.273438 482.488281 53.105469 480.269531 50.097656 C 479.792969 49.464844 479.160156 48.671875 478.683594 48.039062 C 479.003906 47.722656 479.320312 47.5625 479.792969 47.246094 C 482.011719 45.980469 485.023438 45.1875 488.511719 45.1875 C 491.996094 45.1875 495.007812 45.980469 497.226562 47.246094 C 497.703125 47.5625 498.019531 47.722656 498.335938 48.039062 C 497.859375 48.671875 497.226562 49.464844 496.75 50.097656 C 494.53125 53.105469 492.15625 56.117188 492.15625 59.125 C 492.15625 59.601562 492.15625 60.234375 492.3125 61.183594 C 492.15625 61.660156 492.15625 61.976562 492.15625 62.453125 C 492.15625 63.71875 493.105469 68.46875 494.53125 74.488281 L 494.691406 74.488281 C 496.433594 83.199219 498.652344 93.808594 500.394531 101.570312 C 501.1875 105.054688 504.355469 107.746094 508 107.746094 L 511.964844 107.746094 L 511.964844 104.894531 Z M 497.382812 54.53125 C 498.019531 53.742188 498.492188 52.949219 499.128906 52.15625 C 499.445312 51.839844 499.601562 51.523438 499.917969 51.207031 C 499.601562 52 498.492188 53.425781 497.382812 54.53125 Z M 477.257812 51.207031 C 477.574219 51.523438 477.734375 51.839844 478.050781 52.15625 C 478.683594 52.949219 479.160156 53.742188 479.792969 54.53125 C 478.683594 53.425781 477.574219 52 477.257812 51.207031 Z M 498.808594 45.664062 C 496.910156 44.554688 493.582031 43.128906 488.511719 43.128906 C 483.4375 43.128906 480.113281 44.398438 478.210938 45.664062 C 477.894531 45.820312 477.574219 45.980469 477.417969 46.140625 C 477.257812 45.820312 477.257812 45.664062 477.257812 45.347656 C 477.257812 44.398438 477.894531 42.8125 479.953125 41.386719 C 482.171875 39.804688 485.183594 39.011719 488.667969 39.011719 C 492.15625 39.011719 495.164062 39.804688 497.382812 41.386719 C 499.445312 42.8125 500.078125 44.398438 500.078125 45.347656 C 500.078125 45.503906 499.917969 45.820312 499.917969 46.140625 C 499.445312 45.980469 499.128906 45.820312 498.808594 45.664062 Z M 498.808594 45.664062 " fill-opacity="1" fill-rule="nonzero"/><path fill="#0cc0df" d="M 76.65625 102.835938 L 89.808594 102.835938 C 91.710938 102.835938 93.292969 104.421875 93.292969 106.320312 C 93.292969 108.222656 91.710938 109.804688 89.808594 109.804688 L 76.65625 109.804688 Z M 147.015625 102.835938 L 133.863281 102.835938 C 131.960938 102.835938 130.375 104.421875 130.375 106.320312 C 130.375 108.222656 131.960938 109.804688 133.863281 109.804688 L 147.015625 109.804688 Z M 119.441406 102.363281 L 104.386719 102.363281 C 103.753906 104.421875 102.484375 106.953125 100.109375 109.964844 L 123.71875 109.964844 C 121.34375 106.953125 120.074219 104.421875 119.441406 102.363281 Z M 453.332031 102.835938 L 466.484375 102.835938 C 468.386719 102.835938 469.96875 104.421875 469.96875 106.320312 C 469.96875 108.222656 468.386719 109.804688 466.484375 109.804688 L 453.332031 109.804688 Z M 523.847656 102.835938 L 510.695312 102.835938 C 508.792969 102.835938 507.210938 104.421875 507.210938 106.320312 C 507.210938 108.222656 508.792969 109.804688 510.695312 109.804688 L 523.847656 109.804688 Z M 496.117188 102.363281 L 481.0625 102.363281 C 480.429688 104.421875 479.160156 106.953125 476.785156 109.964844 L 500.394531 109.964844 C 498.019531 106.953125 496.75 104.421875 496.117188 102.363281 Z M 496.117188 102.363281 " fill-opacity="1" fill-rule="nonzero"/><g clip-path="url(#5c45265e4c)"><path fill="#2a2a2a" d="M 147.488281 101.570312 L 147.488281 86.050781 C 147.488281 82.722656 147.015625 79.554688 146.0625 76.386719 C 145.589844 74.964844 144.320312 74.011719 142.894531 74.011719 L 121.5 74.011719 C 120.390625 68.46875 119.601562 64.195312 119.28125 61.816406 C 119.917969 60.394531 121.5 58.652344 122.925781 57.226562 C 124.988281 55.007812 126.890625 52.949219 126.890625 51.046875 C 126.890625 50.097656 126.574219 49.304688 126.097656 48.355469 C 126.574219 47.40625 126.890625 46.457031 126.890625 45.503906 C 126.890625 43.128906 125.304688 40.597656 122.769531 38.695312 C 120.550781 37.113281 117.222656 35.527344 111.835938 35.527344 C 106.605469 35.527344 103.121094 37.113281 101.058594 38.535156 C 98.367188 40.4375 96.9375 42.972656 96.9375 45.347656 C 96.9375 46.296875 97.257812 47.246094 97.730469 48.199219 C 97.257812 48.988281 96.9375 49.941406 96.9375 50.890625 C 96.9375 52.789062 98.683594 54.847656 100.902344 57.066406 C 102.328125 58.652344 103.910156 60.394531 104.546875 61.660156 C 104.230469 64.195312 103.4375 68.3125 102.328125 73.855469 L 80.777344 73.855469 C 79.347656 73.855469 78.082031 74.804688 77.605469 76.230469 C 76.65625 79.398438 76.179688 82.566406 76.179688 85.890625 L 76.179688 101.410156 L 76.023438 101.410156 L 76.023438 110.597656 L 89.808594 110.597656 C 90.125 110.597656 90.285156 110.597656 90.601562 110.597656 C 90.757812 110.597656 90.757812 110.597656 90.917969 110.597656 C 91.074219 110.597656 91.234375 110.4375 91.394531 110.4375 C 91.550781 110.4375 91.550781 110.28125 91.710938 110.28125 C 91.867188 110.28125 91.867188 110.121094 92.027344 110.121094 C 92.183594 110.121094 92.34375 109.964844 92.34375 109.964844 C 92.820312 109.648438 93.136719 109.171875 93.453125 108.695312 C 95.039062 108.539062 96.464844 107.90625 97.574219 106.953125 C 98.046875 107.429688 98.523438 107.90625 98.839844 108.539062 C 98.839844 108.695312 99 108.695312 99 108.855469 C 99 109.011719 99.15625 109.171875 99.15625 109.332031 C 99.15625 109.648438 99.316406 109.804688 99.316406 110.121094 L 99.316406 110.753906 L 124.195312 110.753906 L 124.195312 110.121094 C 124.195312 109.804688 124.195312 109.648438 124.355469 109.332031 C 124.355469 109.171875 124.511719 109.011719 124.511719 108.855469 C 124.511719 108.695312 124.511719 108.695312 124.671875 108.539062 C 124.988281 107.90625 125.464844 107.429688 125.9375 106.953125 C 127.046875 107.90625 128.472656 108.378906 130.058594 108.695312 C 130.375 109.171875 130.691406 109.648438 131.167969 109.964844 C 131.328125 110.121094 131.484375 110.121094 131.484375 110.121094 C 131.644531 110.121094 131.644531 110.28125 131.800781 110.28125 C 131.960938 110.28125 131.960938 110.4375 132.117188 110.4375 C 132.277344 110.4375 132.4375 110.597656 132.59375 110.597656 C 132.753906 110.597656 132.753906 110.597656 132.910156 110.597656 C 133.226562 110.597656 133.386719 110.597656 133.703125 110.597656 L 147.488281 110.597656 L 147.488281 101.410156 Z M 125.304688 50.890625 C 125.304688 52.316406 123.5625 54.214844 121.820312 56.117188 C 120.710938 57.226562 119.757812 58.332031 118.964844 59.441406 C 118.964844 58.332031 119.917969 56.589844 121.183594 55.007812 C 122.453125 53.582031 123.402344 52.472656 123.71875 51.683594 C 124.195312 51.046875 124.671875 50.414062 125.144531 49.78125 C 125.304688 50.097656 125.304688 50.414062 125.304688 50.890625 Z M 101.851562 56.117188 C 100.109375 54.214844 98.367188 52.316406 98.367188 50.890625 C 98.367188 50.414062 98.523438 50.097656 98.683594 49.625 C 99.15625 50.257812 99.632812 50.890625 100.109375 51.523438 C 100.425781 52.316406 101.375 53.425781 102.644531 54.847656 C 103.753906 56.433594 104.863281 58.175781 104.863281 59.285156 C 103.910156 58.332031 102.960938 57.226562 101.851562 56.117188 Z M 89.808594 109.171875 L 77.289062 109.171875 L 77.289062 103.46875 L 89.808594 103.46875 C 91.394531 103.46875 92.660156 104.738281 92.660156 106.320312 C 92.660156 107.90625 91.394531 109.171875 89.808594 109.171875 Z M 89.808594 101.570312 L 77.449219 101.570312 L 77.449219 86.050781 C 77.449219 82.882812 77.921875 79.714844 78.875 76.707031 C 79.191406 75.914062 79.824219 75.4375 80.617188 75.4375 L 101.851562 75.4375 C 100.425781 82.25 98.683594 90.957031 96.464844 100.9375 C 96.148438 102.363281 95.039062 103.628906 93.609375 104.105469 C 92.976562 102.519531 91.550781 101.570312 89.808594 101.570312 Z M 101.375 109.171875 C 102.960938 107.113281 104.070312 105.054688 104.703125 102.996094 L 118.808594 102.996094 C 119.441406 105.054688 120.550781 107.113281 122.136719 109.171875 Z M 123.71875 107.429688 L 122.609375 107.429688 C 121.34375 105.6875 120.550781 103.789062 119.917969 102.203125 L 119.28125 101.726562 L 104.230469 101.726562 L 103.753906 102.046875 C 103.277344 103.789062 102.328125 105.53125 101.058594 107.273438 L 99.949219 107.273438 C 99.632812 106.636719 99.15625 106.164062 98.523438 105.6875 C 99.472656 104.578125 100.265625 103.3125 100.582031 101.726562 C 102.484375 93.019531 104.546875 83.199219 106.128906 75.28125 L 117.382812 75.28125 C 118.964844 83.199219 121.027344 93.019531 122.925781 101.726562 C 123.246094 103.3125 124.035156 104.578125 124.988281 105.6875 C 124.511719 106.320312 124.035156 106.796875 123.71875 107.429688 Z M 101.851562 46.140625 C 103.59375 45.03125 106.921875 43.761719 111.835938 43.761719 C 116.746094 43.761719 119.917969 45.03125 121.820312 46.140625 C 121.976562 46.140625 121.976562 46.296875 122.136719 46.296875 C 121.976562 46.613281 121.820312 46.929688 121.5 47.246094 C 121.34375 47.089844 121.183594 46.929688 120.867188 46.773438 C 118.648438 45.347656 115.320312 44.714844 111.835938 44.714844 C 108.347656 44.714844 105.179688 45.503906 102.800781 46.773438 C 102.644531 46.929688 102.328125 47.089844 102.167969 47.246094 C 101.851562 46.929688 101.691406 46.613281 101.535156 46.296875 C 101.691406 46.296875 101.851562 46.296875 101.851562 46.140625 Z M 101.21875 45.03125 C 101.375 44.238281 102.011719 43.128906 103.59375 42.019531 C 105.65625 40.597656 108.664062 39.804688 111.835938 39.804688 C 115.164062 39.804688 118.015625 40.597656 120.074219 42.019531 C 121.660156 43.128906 122.292969 44.238281 122.453125 45.03125 C 120.550781 43.921875 117.0625 42.496094 111.835938 42.496094 C 106.605469 42.496094 103.277344 43.761719 101.21875 45.03125 Z M 103.59375 48.199219 C 105.65625 46.929688 108.664062 46.296875 111.835938 46.296875 C 115.003906 46.296875 118.015625 46.929688 120.074219 48.199219 C 120.234375 48.355469 120.390625 48.355469 120.550781 48.515625 C 120.074219 49.148438 119.757812 49.625 119.441406 50.097656 C 117.0625 53.105469 114.6875 56.273438 114.6875 59.441406 C 114.6875 59.917969 114.6875 60.550781 114.847656 61.34375 C 114.6875 61.816406 114.6875 62.132812 114.6875 62.609375 C 114.6875 63.875 115.636719 68.3125 116.90625 73.855469 L 106.765625 73.855469 C 108.03125 68.152344 108.984375 63.875 108.984375 62.609375 C 108.984375 62.132812 108.984375 61.816406 108.824219 61.34375 C 108.984375 60.394531 108.984375 59.757812 108.984375 59.441406 C 108.984375 56.273438 106.605469 53.105469 104.230469 50.097656 C 103.910156 49.625 103.4375 49.148438 103.121094 48.515625 C 103.121094 48.355469 103.277344 48.355469 103.59375 48.199219 Z M 129.742188 106.953125 C 127.046875 106.320312 124.988281 104.261719 124.355469 101.570312 C 119.125 77.023438 116.113281 62.132812 116.113281 59.441406 C 116.113281 56.75 118.332031 53.742188 120.710938 50.890625 C 122.609375 48.355469 124.035156 46.613281 124.035156 45.347656 C 124.035156 44.714844 123.878906 42.8125 121.027344 40.914062 C 118.808594 39.328125 115.480469 38.378906 111.992188 38.378906 C 108.507812 38.378906 105.179688 39.328125 102.960938 40.914062 C 100.265625 42.8125 99.949219 44.871094 99.949219 45.347656 C 99.949219 46.457031 101.375 48.355469 103.277344 50.890625 C 105.496094 53.742188 107.714844 56.75 107.714844 59.441406 C 107.714844 61.976562 104.863281 77.023438 99.472656 101.570312 C 98.839844 104.261719 96.78125 106.320312 94.085938 106.953125 C 94.085938 106.796875 94.085938 106.636719 94.085938 106.320312 C 94.085938 106.003906 94.085938 105.6875 93.929688 105.371094 C 95.828125 104.894531 97.414062 103.3125 97.890625 101.253906 C 103.121094 77.179688 106.128906 61.976562 106.128906 59.441406 C 106.128906 57.226562 103.910156 54.375 101.851562 51.839844 C 99.949219 49.304688 98.207031 47.246094 98.207031 45.503906 C 98.207031 43.605469 99.632812 41.386719 101.851562 39.804688 C 103.59375 38.535156 106.765625 36.953125 111.835938 36.953125 C 116.746094 36.953125 119.917969 38.535156 121.816406 39.804688 C 124.035156 41.386719 125.464844 43.605469 125.464844 45.503906 C 125.464844 47.246094 123.878906 49.464844 121.816406 51.839844 C 119.917969 54.375 117.539062 57.382812 117.539062 59.441406 C 117.539062 61.816406 120.550781 77.179688 125.78125 101.253906 C 126.253906 103.3125 127.839844 104.894531 129.742188 105.371094 C 129.742188 105.6875 129.582031 106.003906 129.582031 106.320312 C 129.582031 106.480469 129.742188 106.636719 129.742188 106.953125 Z M 130.058594 104.105469 C 128.632812 103.628906 127.523438 102.519531 127.207031 100.9375 C 124.988281 90.800781 123.246094 82.089844 121.820312 75.4375 L 143.054688 75.4375 C 143.84375 75.4375 144.636719 75.914062 144.796875 76.707031 C 145.746094 79.714844 146.222656 82.882812 146.222656 86.050781 L 146.222656 101.570312 L 133.863281 101.570312 C 132.117188 101.570312 130.691406 102.519531 130.058594 104.105469 Z M 146.378906 109.171875 L 133.863281 109.171875 C 132.277344 109.171875 131.007812 107.90625 131.007812 106.320312 C 131.007812 104.738281 132.277344 103.46875 133.863281 103.46875 L 146.378906 103.46875 Z M 524.324219 101.570312 L 524.324219 86.050781 C 524.324219 82.722656 523.847656 79.554688 522.898438 76.386719 C 522.421875 74.964844 521.15625 74.011719 519.726562 74.011719 L 498.335938 74.011719 C 497.226562 68.46875 496.433594 64.195312 496.117188 61.816406 C 496.75 60.394531 498.335938 58.652344 499.761719 57.226562 C 501.820312 55.007812 503.722656 52.949219 503.722656 51.046875 C 503.722656 50.097656 503.40625 49.304688 502.929688 48.355469 C 503.40625 47.40625 503.722656 46.457031 503.722656 45.503906 C 503.722656 43.128906 502.136719 40.597656 499.601562 38.695312 C 497.382812 37.113281 493.898438 35.527344 488.511719 35.527344 C 483.28125 35.527344 479.792969 37.113281 477.734375 38.535156 C 475.039062 40.4375 473.613281 42.972656 473.613281 45.347656 C 473.613281 46.296875 473.929688 47.246094 474.40625 48.199219 C 473.929688 48.988281 473.613281 49.941406 473.613281 50.890625 C 473.613281 52.789062 475.359375 54.847656 477.574219 57.066406 C 479.003906 58.652344 480.585938 60.394531 481.21875 61.660156 C 480.902344 64.195312 480.113281 68.3125 479.003906 73.855469 L 457.609375 73.855469 C 456.183594 73.855469 454.914062 74.804688 454.441406 76.230469 C 453.488281 79.398438 453.011719 82.566406 453.011719 85.890625 L 453.011719 101.410156 L 452.855469 101.410156 L 452.855469 110.597656 L 466.640625 110.597656 C 466.957031 110.597656 467.117188 110.597656 467.433594 110.597656 C 467.59375 110.597656 467.59375 110.597656 467.75 110.597656 C 467.910156 110.597656 468.066406 110.4375 468.226562 110.4375 C 468.386719 110.4375 468.386719 110.28125 468.542969 110.28125 C 468.703125 110.28125 468.703125 110.121094 468.859375 110.121094 C 469.019531 110.121094 469.175781 109.964844 469.175781 109.964844 C 469.652344 109.648438 469.96875 109.171875 470.285156 108.695312 C 471.871094 108.539062 473.296875 107.90625 474.40625 106.953125 C 474.882812 107.429688 475.359375 107.90625 475.675781 108.539062 C 475.675781 108.695312 475.832031 108.695312 475.832031 108.855469 C 475.832031 109.011719 475.992188 109.171875 475.992188 109.332031 C 475.992188 109.648438 476.148438 109.804688 476.148438 110.121094 L 476.148438 110.753906 L 501.027344 110.753906 L 501.027344 110.121094 C 501.027344 109.804688 501.027344 109.648438 501.1875 109.332031 C 501.1875 109.171875 501.347656 109.011719 501.347656 108.855469 C 501.347656 108.695312 501.347656 108.695312 501.503906 108.539062 C 501.820312 107.90625 502.296875 107.429688 502.773438 106.953125 C 503.882812 107.90625 505.308594 108.378906 506.890625 108.695312 C 507.210938 109.171875 507.527344 109.648438 508 109.964844 C 508.160156 110.121094 508.320312 110.121094 508.320312 110.121094 C 508.476562 110.121094 508.476562 110.28125 508.636719 110.28125 C 508.792969 110.28125 508.792969 110.4375 508.953125 110.4375 C 509.109375 110.4375 509.269531 110.597656 509.429688 110.597656 C 509.585938 110.597656 509.585938 110.597656 509.746094 110.597656 C 510.0625 110.597656 510.21875 110.597656 510.539062 110.597656 L 524.324219 110.597656 L 524.324219 101.410156 Z M 502.136719 50.890625 C 502.136719 52.316406 500.394531 54.214844 498.652344 56.117188 C 497.542969 57.226562 496.59375 58.332031 495.800781 59.441406 C 495.800781 58.332031 496.75 56.589844 498.019531 55.007812 C 499.285156 53.582031 500.238281 52.472656 500.554688 51.683594 C 501.027344 51.046875 501.503906 50.414062 501.980469 49.78125 C 501.980469 50.097656 502.136719 50.414062 502.136719 50.890625 Z M 478.527344 56.117188 C 476.785156 54.214844 475.039062 52.316406 475.039062 50.890625 C 475.039062 50.414062 475.199219 50.097656 475.359375 49.625 C 475.832031 50.257812 476.308594 50.890625 476.785156 51.523438 C 477.101562 52.316406 478.050781 53.425781 479.320312 54.847656 C 480.429688 56.433594 481.539062 58.175781 481.539062 59.285156 C 480.585938 58.332031 479.636719 57.226562 478.527344 56.117188 Z M 466.484375 109.171875 L 453.964844 109.171875 L 453.964844 103.46875 L 466.484375 103.46875 C 468.066406 103.46875 469.335938 104.738281 469.335938 106.320312 C 469.335938 107.90625 468.066406 109.171875 466.484375 109.171875 Z M 466.484375 101.570312 L 454.121094 101.570312 L 454.121094 86.050781 C 454.121094 82.882812 454.597656 79.714844 455.550781 76.707031 C 455.867188 75.914062 456.5 75.4375 457.292969 75.4375 L 478.527344 75.4375 C 477.101562 82.25 475.359375 90.957031 473.140625 100.9375 C 472.820312 102.363281 471.710938 103.628906 470.285156 104.105469 C 469.8125 102.519531 468.226562 101.570312 466.484375 101.570312 Z M 478.210938 109.171875 C 479.792969 107.113281 480.902344 105.054688 481.539062 102.996094 L 495.640625 102.996094 C 496.273438 105.054688 497.382812 107.113281 498.96875 109.171875 Z M 500.394531 107.429688 L 499.285156 107.429688 C 498.019531 105.6875 497.226562 103.789062 496.59375 102.203125 L 495.957031 101.726562 L 480.902344 101.726562 L 480.269531 102.203125 C 479.792969 103.945312 478.84375 105.6875 477.574219 107.429688 L 476.625 107.429688 C 476.308594 106.796875 475.832031 106.320312 475.199219 105.847656 C 476.148438 104.738281 476.941406 103.46875 477.257812 101.886719 C 479.160156 93.175781 481.21875 83.355469 482.804688 75.4375 L 494.054688 75.4375 C 495.640625 83.355469 497.703125 93.175781 499.601562 101.886719 C 499.917969 103.46875 500.710938 104.738281 501.664062 105.847656 C 501.1875 106.320312 500.710938 106.796875 500.394531 107.429688 Z M 478.527344 46.140625 C 480.269531 45.03125 483.597656 43.761719 488.511719 43.761719 C 493.421875 43.761719 496.59375 45.03125 498.492188 46.140625 C 498.652344 46.140625 498.652344 46.296875 498.808594 46.296875 C 498.652344 46.613281 498.492188 46.929688 498.175781 47.246094 C 498.019531 47.089844 497.859375 46.929688 497.542969 46.773438 C 495.324219 45.347656 491.996094 44.714844 488.511719 44.714844 C 485.023438 44.714844 481.855469 45.503906 479.476562 46.773438 C 479.320312 46.929688 479.003906 47.089844 478.84375 47.246094 C 478.527344 46.929688 478.367188 46.613281 478.210938 46.296875 C 478.367188 46.296875 478.527344 46.296875 478.527344 46.140625 Z M 477.894531 45.03125 C 478.050781 44.238281 478.683594 43.128906 480.269531 42.019531 C 482.328125 40.597656 485.339844 39.804688 488.511719 39.804688 C 491.839844 39.804688 494.691406 40.597656 496.75 42.019531 C 498.175781 43.128906 498.96875 44.238281 499.128906 45.03125 C 497.226562 43.921875 493.738281 42.496094 488.511719 42.496094 C 483.28125 42.496094 479.953125 43.761719 477.894531 45.03125 Z M 480.269531 48.199219 C 482.328125 46.929688 485.339844 46.296875 488.511719 46.296875 C 491.679688 46.296875 494.691406 46.929688 496.75 48.199219 C 496.910156 48.355469 497.066406 48.355469 497.226562 48.515625 C 496.75 49.148438 496.433594 49.625 496.117188 50.097656 C 493.738281 53.105469 491.363281 56.273438 491.363281 59.441406 C 491.363281 59.917969 491.363281 60.550781 491.519531 61.34375 C 491.363281 61.816406 491.363281 62.132812 491.363281 62.609375 C 491.363281 63.875 492.3125 68.3125 493.582031 73.855469 L 483.4375 73.855469 C 484.707031 68.152344 485.65625 63.875 485.65625 62.609375 C 485.65625 62.132812 485.65625 61.816406 485.5 61.34375 C 485.65625 60.394531 485.65625 59.757812 485.65625 59.441406 C 485.65625 56.273438 483.28125 53.105469 480.902344 50.097656 C 480.585938 49.625 480.113281 49.148438 479.792969 48.515625 C 479.953125 48.355469 480.113281 48.355469 480.269531 48.199219 Z M 506.417969 106.953125 C 503.722656 106.320312 501.664062 104.261719 501.027344 101.570312 C 495.800781 77.023438 492.789062 62.132812 492.789062 59.441406 C 492.789062 56.75 495.007812 53.742188 497.382812 50.890625 C 499.285156 48.355469 500.710938 46.613281 500.710938 45.347656 C 500.710938 44.714844 500.554688 42.8125 497.703125 40.914062 C 495.484375 39.328125 492.15625 38.378906 488.667969 38.378906 C 485.183594 38.378906 481.855469 39.328125 479.636719 40.914062 C 476.941406 42.8125 476.625 44.871094 476.625 45.347656 C 476.625 46.457031 478.050781 48.355469 479.953125 50.890625 C 482.171875 53.742188 484.390625 56.75 484.390625 59.441406 C 484.390625 61.976562 481.539062 77.023438 476.148438 101.570312 C 475.515625 104.261719 473.457031 106.320312 470.761719 106.953125 C 470.761719 106.796875 470.761719 106.636719 470.761719 106.320312 C 470.761719 106.003906 470.761719 105.6875 470.601562 105.371094 C 472.503906 104.894531 474.089844 103.3125 474.566406 101.253906 C 479.792969 77.179688 482.804688 61.976562 482.804688 59.441406 C 482.804688 57.226562 480.585938 54.375 478.527344 51.839844 C 476.625 49.304688 474.882812 47.246094 474.882812 45.503906 C 474.882812 43.605469 476.308594 41.386719 478.527344 39.804688 C 480.269531 38.535156 483.4375 36.953125 488.511719 36.953125 C 493.582031 36.953125 496.59375 38.535156 498.492188 39.804688 C 500.710938 41.386719 502.136719 43.605469 502.136719 45.503906 C 502.136719 47.246094 500.554688 49.464844 498.492188 51.839844 C 496.59375 54.375 494.214844 57.382812 494.214844 59.441406 C 494.214844 61.816406 497.226562 77.179688 502.457031 101.253906 C 502.929688 103.3125 504.515625 104.894531 506.417969 105.371094 C 506.417969 105.6875 506.257812 106.003906 506.257812 106.320312 C 506.417969 106.480469 506.417969 106.636719 506.417969 106.953125 Z M 506.734375 104.105469 C 505.308594 103.628906 504.199219 102.519531 503.882812 100.9375 C 501.664062 90.800781 499.917969 82.089844 498.492188 75.4375 L 519.726562 75.4375 C 520.519531 75.4375 521.3125 75.914062 521.472656 76.707031 C 522.421875 79.714844 522.898438 82.882812 522.898438 86.050781 L 522.898438 101.570312 L 510.535156 101.570312 C 508.792969 101.570312 507.367188 102.519531 506.734375 104.105469 Z M 523.054688 109.171875 L 510.535156 109.171875 C 508.953125 109.171875 507.683594 107.90625 507.683594 106.320312 C 507.683594 104.738281 508.953125 103.46875 510.535156 103.46875 L 523.054688 103.46875 Z M 523.054688 109.171875 " fill-opacity="1" fill-rule="nonzero"/></g></svg>