<?xml version="1.0" encoding="utf-8"?>
<!-- Generator: Adobe Illustrator 24.0.0, SVG Export Plug-In . SVG Version: 6.00 Build 0)  -->
<svg version="1.1" id="圖層_1" xmlns="http://www.w3.org/2000/svg" xmlns:xlink="http://www.w3.org/1999/xlink" x="0px" y="0px"
	 viewBox="0 0 765.4 453.5" style="enable-background:new 0 0 765.4 453.5;" xml:space="preserve">
<style type="text/css">
	.st0{clip-path:url(#SVGID_2_);}
	.st1{fill:#516D53;}
	.st2{fill:#7BCFFB;}
	.st3{fill:#FDE17B;}
	.st4{clip-path:url(#SVGID_4_);}
	.st5{fill:#DE9B69;}
	.st6{fill:#291958;}
</style>
<g>
	<defs>
		<rect id="SVGID_1_" x="13.4" y="24.1" width="737.2" height="430.7"/>
	</defs>
	<clipPath id="SVGID_2_">
		<use xlink:href="#SVGID_1_"  style="overflow:visible;"/>
	</clipPath>
	<g class="st0">
		<path class="st1" d="M41,454.6c-3.8,0-7.6-0.2-11.4-0.5l-1.4-0.1c-5.3-0.3-11.5-4.4-12.8-10.7c-0.6-3-1.2-6.1-1.1-9.3
			c0.2-22.7,1-74.4,1.9-124.3c0.8-45.8,1.5-93.1,1.8-116.3c0.2-23.4,1.5-137.8,2-152.8c0.1-2,0.3-3.9,0.6-5.9c0.9-5,4.5-8.3,9.8-9.3
			c3.3-0.6,6.6-0.7,9.1-0.7c1.4,0,2.9,0,4.4,0.1c1.1,0,2.1,0.1,3.2,0.1c4.8,0,9.5,0.1,14.3,0.2c7.1,0.1,14.5,0.2,21.7,0.2
			c2.6,0,5.2,0,7.7,0c9.5-0.1,23.8-0.2,43.8-0.2c18.1,0,38.2,0.1,56.9,0.1c16.2,0,31.2,0.1,43,0.1c11.9,0,19,0,22.1-0.1
			c18.4-0.5,37.2-0.5,55.3-0.5h16.3c17.2,0,34.5,0,51.7,0.1c15.8,0.1,31.5,0.1,47.3,0.1h0.3c14.5,0,94.4-0.4,128.5-0.6l10.3,0
			c1.2,0,2.6,0,4.1,0c12.9,0,36.3,0.2,58.8,0.4c19.9,0.2,38.7,0.3,47.9,0.3c1,0,3,0,3,0c1.8,0,6.5,0.1,11.9,0.2
			c7.7,0.2,17.4,0.4,22.8,0.4c0.7,0,1.3,0,1.8,0c1.1,0,2.3,0,3.4,0c4.1,0,9.6,0.1,15,1.1c9.7,1.7,12.3,5.9,14.2,14.2
			c0.5,1.9,0.5,4,0.6,6V47c0.4,11.3,0.5,76.8,0.5,129.5c0,31.2,0,58.1,0.1,63.8c0.5,30-0.1,160.6-0.4,191.7c0,4.1-0.5,8.1-0.9,11.4
			c-0.9,6.6-4,9.5-10.1,9.5c-0.3,0-0.5,0-0.8,0c-11.6-0.5-22.1-0.7-32.1-0.7c-4.2,0-8.3,0-12.3,0.1c-14.4,0.3-65.7,0.7-102.8,0.7
			c-17.2,0-29.7-0.1-37-0.2c-14.5-0.3-45.3-0.5-82.3-0.5c-39.5,0-75.5,0.2-87.5,0.5c-2.1,0-4.7,0-7.8,0c-15.5,0-43,0.3-72.2,0.7
			c-35.8,0.4-76.3,0.9-104.4,0.9c-11.9,0-21-0.1-26.9-0.3c-21.3-0.6-43.9-1.2-66.5-1.2c-5.9,0-11.6,0-17.1,0.1
			c-12.9,0.2-26.9,0.7-44,1.5C43.5,454.6,42.3,454.6,41,454.6z"/>
	</g>
</g>
<path class="st1" d="M727.8,431.9c-1.4,0.6-2.8,1-4.4,0.9c-18.7-1.2-37.4-1.1-56.2-1.2c-11.4-0.1-22.8,0-34.2,0c0.2-3,1-5.9,0.6-8.9
	c3.4-1.2,4.4-3,3.8-6.7c-0.4-2.9-2-4.3-5.3-4.5c-4.8-0.3-9.5-0.7-14.3-0.9c-10.8-0.3-21.6-1.8-32.4-1.6c-0.7,0-1.4-0.1-2.1-0.2
	c-5.7-0.4-11.4-0.4-17.1-0.4c-1.2,0-2.3,0.2-3.1,1.3c-2.1,2.9-1.1,7,2.1,8.9c-0.6,4.5-1.4,9.1,1.6,13.2c-8.2,0.1-16.3,0.2-24.4-0.2
	c1.6-1,1.6-2.3,0.7-3.8c-1.4-2.2-3.3-3.3-6-3.4c-7.9-0.1-15.7,0.5-23.6,1.1c-3.9,0.3-4.7,1.9-3.5,6c-4.9,0.1-9.9,0.4-14.8-0.1
	c0.1-0.7,0.2-1.4,0.1-2.1c-0.6-3.4-1.4-4-4.9-4c-1.6,0-3.3,0-4.9,0.1c-6.7,0.1-13.5,0.3-20.2,1.5c-3.2,0.6-3.7,1.2-3.9,4.6
	c-8.3,0.3-16.5,0-24.8-0.1c-33.8-0.4-67.6-1.1-101.4,0.5c-28.5,1.4-57.1,1.6-85.6,1.8c-22.4,0.1-44.7,0.8-67.1,0.5
	c-31.6-0.4-63.1-2-94.7-1.2c-14.2,0.3-41.1,2-49.7,0c0.5-2.7,0.5-2.7-2.7-2.6c-1.8-1.8-2.2-4-2.1-6.4c0.9-21.5,0.5-43.1,1.3-64.7
	c0.7-20.3,0.9-40.6,1-60.8c0.1-19.7,0.2-39.4,0.2-59.1c0-12-0.4-24-0.3-36c0.2-16.3,0.6-32.6,1-48.9c0.5-18.1,0.2-36.1,0.4-54.2
	c0.2-18,0.5-35.9,0.8-53.8c1.3-0.2,1.9-0.9,1.8-2.2c1-1,2.2-1.3,3.5-1.1c17,2,34,0.9,51,1c43.8,0.1,87.7,0.3,131.5,0.1
	c36.5-0.1,73-0.6,109.4-1c27.5-0.3,55,0.5,82.5,0.1c24.2-0.3,48.5-0.8,72.7-1.5c23.2-0.6,46.4-0.1,69.6-0.4
	c9.6-0.1,19.1-0.3,28.7-0.3c15.1-0.1,30.3-0.1,45.4,0.8c11.4,0.7,22.8,1.2,34.2,1.1c12-0.2,24,0.3,36,0.6c6.4,0.1,12.8,0.5,19.2,0.8
	c3.6,0.2,5.6,1.8,6.4,5.3c0.5,2.3,0.7,4.6,0.6,6.9c-0.7,16.3-0.5,32.7,0.6,48.9c1.6,24.1,0.9,48.2,1.1,72.4
	c0.2,34.4,0,68.8-0.2,103.2c-0.2,27.2-0.8,54.3-1.3,81.5c-0.2,12.8-0.4,25.7-0.6,38.5c-0.1,4.5,0,9.1,0.5,13.6
	c0.4,4.2-0.3,8.4-0.4,12.6c0,1.7-0.9,3.1-1.6,4.6C728.1,431.8,727.9,431.9,727.8,431.9z"/>
<path class="st2" d="M542.4,431.5c-8.1,0.4-16.2,0.8-24.3,1.2c-2.8,0.1-5.6,0.3-8.1-1.2c-1.2-4.1-0.4-5.6,3.5-6
	c7.8-0.7,15.7-1.2,23.6-1.1c2.7,0,4.6,1.1,6,3.4C544,429.2,544,430.5,542.4,431.5z"/>
<path class="st3" d="M495.1,431.3c-1.7,1.5-3.9,1.6-6,1.6c-7.6,0.2-15.1,0.2-22.7,0.3c-1.9,0-3.7-0.2-5.1-1.9
	c0.2-3.4,0.7-4.1,3.9-4.6c6.7-1.2,13.4-1.4,20.2-1.5c1.6,0,3.3-0.1,4.9-0.1c3.5,0,4.3,0.7,4.9,4
	C495.3,429.9,495.1,430.6,495.1,431.3z"/>
<g>
	<defs>
		<rect id="SVGID_3_" x="13.4" y="23.6" width="738" height="432"/>
	</defs>
	<clipPath id="SVGID_4_">
		<use xlink:href="#SVGID_3_"  style="overflow:visible;"/>
	</clipPath>
	<g class="st4">
		<path class="st5" d="M750,47c-0.1-2.1-0.1-4.2-0.6-6.2c-2.1-9-5.1-12.9-14.6-14.6c-6.1-1.1-12.3-1.1-18.5-1
			c-8,0.1-32.5-0.7-36.7-0.6c-16.3,0.1-92.1-0.9-113.6-0.8c-21.1,0.1-123.7,0.7-139.1,0.7c-35.3,0-70.6-0.2-106-0.2
			c-21.6,0-43.1-0.1-64.7,0.5c-15.6,0.4-126.1-0.4-165.7,0.1c-14.6,0.2-29.1-0.2-43.7-0.4c-5.6-0.1-11.2-0.4-16.8,0.6
			c-5.5,0.9-9.2,4.5-10.2,9.7c-0.4,1.9-0.6,3.9-0.6,5.9c-0.5,15.1-1.7,129.7-2,152.8c-0.5,48.3-3.3,196.9-3.6,240.6
			c0,3.2,0.5,6.2,1.2,9.3c1.3,6.4,7.6,10.8,13.2,11.1c5.6,0.3,11.2,0.8,16.8,0.5c14.7-0.7,29.3-1.3,44-1.5
			c27.9-0.4,55.7,0.3,83.6,1.1c37.9,1.1,180.5-1.6,211.4-1.2c24.1-0.6,135.5-0.7,169.8,0c27,0.5,120.3,0,139.8-0.4
			c14.8-0.3,29.6,0,44.4,0.6c7,0.3,10.5-2.9,11.5-9.9c0.5-3.8,0.9-7.6,0.9-11.5c0.3-31.8,0.9-161.6,0.4-191.7
			C750.4,225.3,750.7,65.2,750,47z M725.2,41.5c0.5-1.2,1.4-2.2,2.3-3.1c3.2-3.1,7.1-5.2,10.9-7.5c0.5-0.3,1.1-0.4,1.6,0
			c0.2,0.7-0.2,1.1-0.7,1.5c-3.6,3.2-7.1,6.4-10.6,9.6c-0.5,0.5-1,0.9-1.7,1.3c-0.5,0.3-1.1,0.3-1.6-0.2C725,42.6,725,42,725.2,41.5
			z M741.8,449.8c-0.6,0.4-1.1,0-1.5-0.5c-0.6-0.7-1.2-1.4-1.8-2.1c-3.2-4.1-6.4-8.3-9.5-12.5c-0.7-0.8-1.4-1.6-1.1-2.8
			c-1.4,0.6-2.8,1-4.4,0.9c-18.7-1.2-37.4-1.1-56.2-1.2c-11.4-0.1-22.8,0-34.2,0c-1.6,3-4.2,4-7.5,4.1c-17.2,0.4-34.3-0.4-51.4-2
			c-2.5-0.2-5.1-0.7-7.3-2c-8.2,0.1-16.3,0.2-24.4-0.2c-8.1,0.4-16.2,0.8-24.3,1.2c-2.8,0.1-5.6,0.3-8.1-1.2
			c-4.9,0.1-9.9,0.4-14.8-0.1c-1.7,1.5-3.9,1.6-5.9,1.6c-7.6,0.2-15.1,0.2-22.7,0.3c-1.9,0-3.7-0.2-5.1-1.9
			c-8.3,0.3-16.5,0-24.8-0.1c-33.8-0.4-67.6-1.1-101.4,0.5c-28.5,1.4-57.1,1.6-85.6,1.8c-22.4,0.1-44.7,0.8-67.1,0.5
			c-31.6-0.4-63.1-2-94.7-1.2c-14.2,0.3-48.6,0.5-49.7,0c-4.9,5-9.7,10-14.7,14.9c-0.8,0.8-1.6,2.7-2.9,1.6
			c-1.4-1.2,0.1-2.6,0.9-3.6c4.1-5.2,8-10.6,13.3-14.6c0.3-0.2,0.4-0.5,0.6-0.8c-1.8-1.8-2.2-4-2.1-6.4c0.9-21.5,0.5-43.1,1.3-64.7
			c0.7-20.3,0.9-40.6,1-60.8c0.1-19.7,0.2-39.4,0.2-59.1c0-12-0.4-24-0.3-36c0.2-16.3,0.6-32.6,1-48.9c0.5-18.1,0.2-36.1,0.4-54.2
			c0.2-18,0.5-35.9,0.8-53.8c-3.9-4.6-7.1-9.7-10.7-14.5c-0.6-0.7-1.2-1.7-0.1-2.4c1-0.7,1.7,0.1,2.4,0.8c2,1.9,3.7,4.1,5.3,6.5
			c1.7,2.5,3.3,5,4.9,7.6c1-1,2.2-1.3,3.5-1.1c17,2,34,0.9,51,1c43.8,0.1,87.7,0.3,131.5,0.1c36.5-0.1,73-0.6,109.4-1
			c27.5-0.3,55,0.5,82.5,0.1c24.2-0.3,48.5-0.8,72.7-1.4c23.2-0.6,46.4-0.2,69.6-0.4c9.6-0.1,19.1-0.3,28.7-0.3
			c15.1-0.1,30.3-0.1,45.4,0.8c11.4,0.7,22.8,1.2,34.2,1.1c12-0.2,24,0.3,36,0.6c6.4,0.1,12.8,0.5,19.2,0.8c3.6,0.2,5.6,1.8,6.4,5.3
			c0.5,2.3,0.7,4.6,0.6,6.9c-0.7,16.3-0.5,32.7,0.6,48.9c1.6,24.1,0.9,48.2,1.1,72.4c0.2,34.4,0.1,68.8-0.2,103.2
			c-0.2,27.2-0.8,54.3-1.3,81.5c-0.2,12.8-0.4,25.7-0.6,38.5c-0.1,4.6,0,9.1,0.5,13.6c0.4,4.2-0.3,8.4-0.4,12.6
			c0,1.7-0.9,3.1-1.6,4.6c1.2-0.4,2,0.2,2.8,1c4.5,4.6,7.7,10.2,11,15.7C742.2,448.8,742.4,449.4,741.8,449.8z M573.2,419.2
			c15.8,1,31.6,2.9,47.6,2.8c4.3,0,8.6,0.5,12.8,0.7c3.4-1.2,4.4-3,3.8-6.7c-0.4-2.9-2-4.3-5.3-4.5c-4.8-0.3-9.5-0.7-14.3-0.9
			c-10.8-0.3-21.6-1.8-32.4-1.6c-0.7,0-1.4-0.1-2.1-0.2c-5.7-0.4-11.4-0.4-17.1-0.4c-1.2,0-2.3,0.2-3.1,1.3c-2.1,2.9-1.1,7,2.1,8.9
			C567.9,419.1,570.5,419,573.2,419.2z M617.4,418.9c-12.8-0.6-25.6-1.3-38.3-2c-1.2-0.1-3.4,0.8-3.4-1.1c0-1.3,2.2-0.9,3.3-0.9
			c10.3,0,20.7,0.8,31,1.6c4.3,0.4,8.6,0.8,12.8,1.2c1,0.1,2.1-0.2,3.2,1.2C622.9,419.4,620.2,419,617.4,418.9z M620,414.6
			c-11.1-1.1-22.2-2-33.3-2.5c-3.5-0.2-7-0.1-10.4-0.2c-0.8,0-1.6,0.2-2.3-0.8c16.2-1.3,32.2,0.3,48.4,2.4
			C621.9,415.1,620.8,414.7,620,414.6z"/>
	</g>
</g>
<path class="st6" d="M633,431.7c-1.6,3-4.2,4-7.5,4.1c-17.2,0.4-34.3-0.4-51.4-2c-2.5-0.2-5.1-0.7-7.3-2c-3-4.1-2.2-8.7-1.6-13.2
	c2.6,0.6,5.3,0.5,8,0.6c15.8,1,31.6,2.9,47.6,2.8c4.3,0,8.6,0.5,12.8,0.7C634.1,425.8,633.2,428.7,633,431.7z M35.3,430.4
	c-0.2,0.3-0.4,0.6-0.6,0.8c-5.4,4-9.3,9.4-13.3,14.6c-0.8,1-2.3,2.4-0.9,3.6c1.4,1.1,2.1-0.8,2.9-1.6c4.9-4.9,9.8-9.9,14.7-14.9
	C38.4,430.2,38.4,430.2,35.3,430.4z M39.3,44.1c-1.6-2.5-3.3-5-4.9-7.6c-1.5-2.3-3.3-4.5-5.3-6.5c-0.7-0.7-1.4-1.4-2.4-0.8
	c-1.1,0.8-0.5,1.7,0.1,2.4c3.6,4.8,6.8,10,10.7,14.5C38.8,46.1,39.4,45.4,39.3,44.1z M730.9,432.6c-0.8-0.8-1.6-1.4-2.8-1
	c0,0.2-0.2,0.3-0.4,0.3c-0.2,1.2,0.5,1.9,1.1,2.8c3.2,4.1,6.4,8.3,9.5,12.5c0.6,0.7,1.2,1.4,1.8,2.1c0.4,0.4,0.9,0.8,1.5,0.5
	c0.6-0.4,0.5-1,0.1-1.5C738.6,442.8,735.4,437.3,730.9,432.6z M727.1,43.3c0.6-0.3,1.1-0.8,1.6-1.3c3.6-3.2,7.1-6.4,10.6-9.6
	c0.4-0.4,0.9-0.8,0.7-1.5c-0.5-0.5-1.1-0.4-1.6,0c-3.8,2.3-7.7,4.5-10.9,7.5c-0.9,0.9-1.8,1.8-2.3,3.1c-0.3,0.6-0.2,1.1,0.3,1.6
	C726,43.6,726.6,43.6,727.1,43.3z M622.9,417.7c-4.3-0.4-8.6-0.8-12.8-1.2c-10.3-0.9-20.6-1.6-31-1.6c-1.2,0-3.3-0.5-3.3,0.9
	c0,1.9,2.2,1.1,3.4,1.1c12.8,0.7,25.5,1.4,38.3,2c2.8,0.1,5.6,0.6,8.7,0C625,417.6,623.9,417.8,622.9,417.7z M573.9,411.1
	c0.7,1,1.5,0.8,2.3,0.8c3.5,0.1,7,0,10.4,0.2c11.1,0.5,22.2,1.4,33.3,2.5c0.8,0.1,1.8,0.5,2.3-1.1
	C606.1,411.4,590.1,409.7,573.9,411.1z"/>
</svg>
