<svg xmlns="http://www.w3.org/2000/svg" xmlns:xlink="http://www.w3.org/1999/xlink" width="400" zoomAndPan="magnify" viewBox="0 0 300 412.499988" height="550" preserveAspectRatio="xMidYMid meet" version="1.0"><defs><clipPath id="4f8e202ad3"><path d="M 23.664062 73 L 276.109375 73 L 276.109375 185 L 23.664062 185 Z M 23.664062 73 " clip-rule="nonzero"/></clipPath><clipPath id="adef38e9dd"><path d="M 76 307 L 218 307 L 218 404.308594 L 76 404.308594 Z M 76 307 " clip-rule="nonzero"/></clipPath></defs><g clip-path="url(#4f8e202ad3)"><path fill="#d5763d" d="M 138.199219 122.519531 L 55.828125 142.648438 L 26.699219 110.449219 L 23.683594 98.371094 L 52.8125 73.214844 L 137.191406 93.34375 Z M 162.609375 175.851562 L 243.972656 184.863281 L 272.101562 169.773438 L 276.117188 151.65625 L 237.945312 126.503906 L 162.609375 140.640625 Z M 162.609375 175.851562 " fill-opacity="1" fill-rule="nonzero"/></g><path fill="#f1be5c" d="M 53.027344 125.324219 C 54.828125 127.261719 56.628906 129.238281 58.335938 131.203125 L 60.066406 133.140625 L 60.964844 134.113281 L 61.046875 134.203125 L 61.34375 134.132812 L 62.78125 133.789062 L 70.789062 131.933594 L 78.554688 130.128906 L 86.65625 128.253906 C 89.355469 127.632812 91.992188 127.011719 94.664062 126.453125 L 102.761719 124.738281 L 111.222656 122.9375 C 113.792969 122.402344 116.359375 121.882812 118.933594 121.386719 L 126.761719 119.90625 L 131.746094 119.003906 L 131.621094 119.003906 L 136.039062 118.105469 L 140.539062 117.15625 C 140.5 115.800781 140.464844 114.429688 140.429688 113.046875 C 140.367188 110.972656 140.269531 108.882812 140.152344 106.800781 L 140.050781 104.996094 C 140.050781 104.464844 139.996094 103.933594 139.996094 103.410156 C 139.996094 103.140625 139.996094 102.871094 139.996094 102.597656 C 139.996094 102.328125 139.996094 102.066406 139.996094 101.796875 C 139.996094 101.527344 139.996094 101.257812 140.050781 100.996094 C 140.050781 100.507812 140.132812 100.09375 140.195312 99.605469 C 140.195312 99.507812 140.277344 99.445312 140.332031 99.480469 C 140.40625 99.546875 140.441406 99.632812 140.429688 99.734375 L 140.429688 99.8125 C 140.429688 100.238281 140.382812 100.652344 140.367188 101.085938 L 140.367188 101.84375 C 140.367188 102.417969 140.367188 103.003906 140.367188 103.644531 C 140.367188 104.285156 140.449219 105.070312 140.492188 105.789062 C 140.582031 107.207031 140.671875 108.621094 140.734375 110.035156 L 140.878906 113.578125 L 141.015625 117.644531 L 139.648438 117.941406 L 137.503906 118.402344 L 135.542969 118.808594 L 131.621094 119.582031 L 124.125 121.035156 L 116.367188 122.621094 C 113.667969 123.171875 110.96875 123.757812 108.324219 124.351562 C 103.015625 125.523438 97.695312 126.6875 92.394531 127.957031 L 84.351562 129.867188 L 76.109375 131.777344 C 73.410156 132.390625 70.808594 133.03125 68.164062 133.679688 L 64.175781 134.65625 L 60.578125 135.554688 L 55.3125 129.914062 C 53.515625 127.992188 51.785156 126.082031 49.976562 124.207031 L 44.003906 118.015625 L 38.253906 112.019531 L 36.355469 110.027344 L 33.589844 99.957031 L 36.292969 97.542969 C 40.285156 93.9375 44.300781 90.332031 48.339844 86.726562 L 54.640625 81.261719 L 57.734375 78.558594 L 62.539062 79.730469 C 65.238281 80.378906 67.9375 80.972656 70.636719 81.53125 L 78.1875 83.238281 L 84.601562 84.75 L 94.382812 87.03125 L 110.050781 90.699219 C 114.882812 91.84375 119.707031 93.035156 124.539062 94.136719 C 126.890625 94.675781 129.238281 95.191406 131.585938 95.6875 L 135.183594 96.433594 L 136.8125 96.75 C 137.082031 96.792969 137.359375 96.839844 137.632812 96.902344 L 138.1875 97.019531 C 138.515625 97.105469 138.835938 97.210938 139.152344 97.335938 C 139.550781 97.425781 139.851562 97.652344 140.050781 98.011719 C 140.101562 98.140625 140.074219 98.253906 139.96875 98.34375 C 139.746094 98.5 139.496094 98.574219 139.222656 98.5625 C 138.925781 98.585938 138.625 98.585938 138.324219 98.5625 L 137.773438 98.515625 C 137.503906 98.515625 137.226562 98.445312 136.957031 98.398438 L 135.6875 98.183594 L 134.789062 98.011719 L 130.875 97.191406 C 128.265625 96.625 125.644531 96.039062 123.042969 95.386719 L 116.304688 93.800781 L 107.0625 91.835938 L 91.039062 88.121094 L 83.972656 86.453125 L 74.914062 84.328125 L 66.929688 82.523438 C 64.375 81.957031 61.835938 81.34375 59.300781 80.722656 L 58.128906 80.441406 L 47.332031 89.878906 L 41.277344 95.289062 L 35.589844 100.4375 L 35.453125 100.5625 L 35.597656 100.996094 L 35.929688 102.230469 L 36.597656 104.691406 L 37.839844 109.199219 L 41.664062 113.253906 L 47.421875 119.367188 C 49.140625 121.167969 50.859375 122.972656 52.558594 124.773438 Z M 245.773438 179.042969 L 240.238281 182.007812 L 237.539062 181.726562 L 229.503906 180.898438 L 221.40625 179.996094 L 213.570312 179.140625 L 205.351562 178.238281 C 202.652344 177.960938 199.953125 177.679688 197.253906 177.335938 L 189.15625 176.320312 L 180.671875 175.238281 C 178.085938 174.902344 175.507812 174.550781 172.941406 174.183594 L 165.140625 173.027344 L 162.835938 172.695312 L 162.996094 169.332031 L 162.996094 169.457031 C 163.195312 165.15625 163.328125 160.84375 163.394531 156.523438 C 163.394531 154.460938 163.394531 152.394531 163.394531 150.332031 L 163.394531 148.527344 C 163.394531 148.003906 163.394531 147.472656 163.394531 146.960938 C 163.394531 146.6875 163.394531 146.425781 163.4375 146.15625 C 163.484375 145.886719 163.4375 145.625 163.5 145.363281 C 163.566406 145.101562 163.566406 144.832031 163.601562 144.570312 C 163.65625 144.09375 163.71875 143.667969 163.808594 143.210938 C 163.808594 143.101562 163.898438 143.046875 163.941406 143.082031 C 164.011719 143.15625 164.042969 143.242188 164.03125 143.34375 L 164.03125 143.417969 C 163.976562 143.832031 163.941406 144.246094 163.90625 144.667969 C 163.90625 144.921875 163.90625 145.175781 163.90625 145.417969 C 163.90625 146.003906 163.863281 146.582031 163.863281 147.167969 L 163.863281 149.292969 C 163.863281 150.699219 163.914062 152.105469 163.914062 153.511719 C 163.914062 156.21875 163.914062 158.921875 163.808594 161.570312 C 163.699219 164.222656 163.644531 166.871094 163.539062 169.511719 L 163.402344 172.21875 L 167.902344 172.875 L 175.757812 173.957031 C 178.457031 174.316406 181.15625 174.640625 183.855469 174.957031 C 189.253906 175.578125 194.554688 176.210938 199.917969 176.761719 L 208.078125 177.570312 L 216.414062 178.472656 C 221.773438 179.042969 227.148438 179.539062 232.527344 179.960938 L 240.042969 180.589844 L 240.878906 180.140625 C 243.136719 178.898438 245.378906 177.660156 247.628906 176.371094 L 254.996094 172.089844 L 262.125 168 L 263.25 167.347656 L 266.066406 153.007812 L 266.144531 152.539062 L 259.890625 148.617188 L 253.414062 144.472656 L 246.519531 139.964844 L 239.691406 135.457031 L 236.945312 133.859375 L 235.632812 133.023438 L 234.589844 132.375 L 233.015625 132.671875 L 225.472656 134.050781 L 219.039062 135.167969 L 209.25 136.882812 L 193.546875 139.640625 C 188.707031 140.46875 183.847656 141.261719 179.015625 142.136719 C 176.667969 142.558594 174.328125 143.039062 171.996094 143.460938 L 168.398438 144.171875 L 166.792969 144.523438 L 165.992188 144.707031 L 165.4375 144.804688 C 165.105469 144.855469 164.773438 144.886719 164.4375 144.894531 C 164.039062 144.960938 163.679688 144.871094 163.359375 144.625 C 163.273438 144.523438 163.253906 144.414062 163.304688 144.289062 C 163.445312 144.054688 163.648438 143.886719 163.90625 143.785156 C 164.179688 143.640625 164.460938 143.515625 164.753906 143.417969 L 165.273438 143.246094 C 165.515625 143.15625 165.796875 143.101562 166.058594 143.027344 L 167.300781 142.742188 L 168.199219 142.53125 L 172.09375 141.757812 C 174.6875 141.253906 177.296875 140.773438 179.90625 140.324219 L 186.671875 139.152344 L 195.761719 137.574219 L 211.804688 134.726562 L 218.894531 133.5 L 227.964844 131.914062 L 234.921875 130.632812 L 236.308594 131.535156 C 238.503906 132.90625 240.671875 134.320312 242.839844 135.734375 L 256.492188 144.589844 L 267.882812 151.800781 L 266.984375 155.984375 L 264.472656 168.46875 L 259.882812 171.027344 L 252.683594 175.109375 C 250.535156 176.328125 248.390625 177.554688 246.234375 178.714844 Z M 245.773438 179.042969 " fill-opacity="1" fill-rule="nonzero"/><g clip-path="url(#adef38e9dd)"><path fill="#a57342" d="M 158.488281 307.675781 L 196.660156 324.800781 L 204.695312 334.871094 L 215.746094 340.902344 L 217.753906 372.101562 L 153.46875 404.300781 L 77.125 373.109375 L 76.128906 345.941406 L 85.125 339.902344 L 91.171875 330.816406 L 131.351562 307.675781 Z M 158.488281 307.675781 " fill-opacity="1" fill-rule="nonzero"/></g><path fill="#f1be5c" d="M 163.511719 60.132812 L 239.851562 27.933594 L 272.039062 56.113281 L 270.035156 74.222656 L 246.84375 97.371094 L 165.488281 95.351562 Z M 136.164062 173.839844 L 78.933594 166.800781 L 48.796875 187.929688 L 57.878906 203.019531 L 88.015625 219.117188 L 137.234375 205.039062 Z M 136.164062 173.839844 " fill-opacity="1" fill-rule="nonzero"/><path fill="#d5763d" d="M 247.429688 87.203125 L 242.03125 92.566406 L 240.148438 92.621094 L 232.050781 92.828125 L 223.855469 93.027344 L 215.910156 93.1875 L 207.585938 93.378906 C 204.886719 93.441406 202.121094 93.511719 199.386719 93.539062 L 182.523438 93.539062 C 179.910156 93.539062 177.289062 93.539062 174.667969 93.539062 L 166.757812 93.40625 L 163.359375 93.34375 L 163.359375 91.089844 L 163.359375 91.222656 C 163.359375 86.859375 163.195312 82.542969 163.015625 78.179688 C 162.925781 76.105469 162.808594 74.023438 162.671875 71.949219 L 162.558594 70.148438 C 162.558594 69.625 162.492188 69.09375 162.492188 68.5625 C 162.492188 68.300781 162.492188 68.03125 162.492188 67.757812 C 162.492188 67.488281 162.492188 67.226562 162.492188 66.957031 C 162.492188 66.6875 162.492188 66.417969 162.539062 66.15625 C 162.539062 65.675781 162.601562 65.253906 162.664062 64.777344 C 162.664062 64.667969 162.746094 64.613281 162.800781 64.640625 C 162.871094 64.707031 162.90625 64.792969 162.898438 64.894531 L 162.898438 64.972656 C 162.898438 65.386719 162.898438 65.8125 162.898438 66.234375 L 162.898438 66.992188 C 162.898438 67.578125 162.898438 68.164062 162.960938 68.796875 C 163.023438 69.425781 163.0625 70.21875 163.113281 70.933594 C 163.222656 72.347656 163.320312 73.753906 163.402344 75.167969 C 163.566406 77.875 163.664062 80.578125 163.761719 83.28125 C 163.863281 85.984375 163.898438 88.636719 163.941406 91.25 L 163.941406 92.808594 L 169.519531 92.898438 L 177.511719 92.972656 C 180.210938 92.972656 182.984375 92.972656 185.726562 92.917969 C 191.125 92.835938 196.570312 92.773438 202.003906 92.628906 L 210.257812 92.386719 L 218.699219 92.1875 C 224.097656 92.0625 229.558594 91.84375 234.984375 91.585938 L 241.5625 91.285156 L 243.03125 89.789062 C 244.828125 87.933594 246.628906 86.078125 248.429688 84.183594 L 254.285156 77.875 L 259.855469 71.96875 L 259.855469 71.769531 L 261.082031 57.519531 L 259.890625 56.535156 C 255.765625 53.09375 251.660156 49.621094 247.582031 46.117188 L 241.285156 40.707031 L 235.433594 35.605469 L 232.097656 37.019531 L 228.324219 38.644531 L 221.226562 41.691406 L 215.160156 44.230469 L 205.902344 48.109375 L 191.054688 54.335938 C 186.492188 56.246094 181.902344 58.121094 177.351562 60.0625 C 175.136719 61.007812 172.941406 61.972656 170.746094 62.9375 L 167.425781 64.433594 L 165.921875 65.136719 C 165.679688 65.253906 165.425781 65.386719 165.175781 65.496094 L 164.652344 65.722656 C 164.355469 65.847656 163.996094 65.9375 163.691406 66.039062 C 163.320312 66.195312 162.945312 66.195312 162.574219 66.039062 C 162.464844 65.957031 162.421875 65.847656 162.449219 65.714844 C 162.539062 65.453125 162.695312 65.246094 162.925781 65.089844 C 163.160156 64.886719 163.410156 64.699219 163.671875 64.53125 L 164.148438 64.253906 C 164.375 64.117188 164.636719 63.992188 164.878906 63.863281 L 166.019531 63.296875 L 166.867188 62.902344 L 170.511719 61.261719 C 172.949219 60.1875 175.40625 59.132812 177.863281 58.097656 L 184.242188 55.390625 L 192.816406 51.785156 L 207.9375 45.394531 L 214.621094 42.589844 L 223.1875 38.984375 L 230.675781 35.75 L 232.96875 34.8125 L 235.722656 33.65625 L 238.339844 35.929688 L 250.75 46.648438 L 256.507812 51.542969 L 262.808594 56.851562 L 262.636719 58.582031 L 261.339844 72.671875 L 258.820312 75.277344 L 253.027344 81.335938 C 251.316406 83.136719 249.605469 84.941406 247.871094 86.742188 Z M 76.59375 206.019531 C 74.847656 205.121094 73.09375 204.21875 71.339844 203.398438 L 65.4375 200.441406 L 64.933594 200.1875 L 64.816406 200.144531 L 58.617188 190.382812 L 58.257812 189.820312 L 58.175781 189.6875 L 58.175781 189.640625 L 58.101562 189.542969 L 57.804688 189.109375 L 58.167969 188.8125 L 58.382812 188.648438 L 58.886719 188.273438 L 60.917969 186.773438 L 64.988281 183.808594 L 75.460938 176.335938 C 77.136719 175.148438 78.808594 173.957031 80.464844 172.730469 L 81.085938 172.269531 L 81.464844 171.972656 L 82.363281 172.054688 L 83.578125 172.164062 L 86.015625 172.398438 L 93.285156 173.164062 L 98.964844 173.769531 L 111.867188 175.046875 L 119.15625 175.824219 L 124.554688 176.398438 C 126.65625 176.628906 128.753906 176.828125 130.855469 176.996094 C 131.90625 177.085938 132.953125 177.167969 133.996094 177.230469 L 134.734375 177.230469 C 135.066406 177.230469 135.417969 177.230469 135.742188 177.230469 C 136.066406 177.230469 136.183594 177.230469 136.398438 177.230469 L 136.832031 177.230469 C 137.082031 177.203125 137.324219 177.152344 137.566406 177.085938 C 137.800781 177.042969 137.992188 176.933594 138.144531 176.75 C 138.199219 176.636719 138.199219 176.523438 138.144531 176.410156 C 137.980469 176.109375 137.734375 175.929688 137.398438 175.878906 C 137.140625 175.804688 136.878906 175.75 136.613281 175.714844 L 136.171875 175.667969 L 135.515625 175.667969 L 134.210938 175.597656 L 131.351562 175.390625 C 129.460938 175.238281 127.578125 175.074219 125.699219 174.886719 C 121.8125 174.507812 117.933594 174.046875 114.054688 173.625 L 101.457031 172.308594 L 93.601562 171.476562 L 88.472656 170.929688 L 82.417969 170.351562 L 81.023438 170.207031 L 78.554688 172.011719 L 76.359375 173.632812 L 71.0625 177.363281 L 65.742188 181.160156 L 60.785156 184.765625 L 55.519531 188.660156 L 55.828125 189.136719 L 62.910156 200.1875 L 63.671875 201.378906 L 68.269531 203.613281 L 74.363281 206.554688 C 76.164062 207.453125 78.015625 208.355469 79.835938 209.328125 L 85.574219 212.269531 L 88.894531 213.960938 L 92.800781 212.789062 L 97.03125 211.582031 L 103.4375 209.78125 L 109.734375 207.976562 C 113.847656 206.8125 117.988281 205.734375 122.117188 204.632812 C 124.214844 204.082031 126.292969 203.542969 128.417969 203.027344 L 134.554688 201.585938 L 139.195312 200.523438 L 139.195312 198.890625 C 139.195312 196.753906 139.25 194.679688 139.195312 192.582031 C 139.144531 190.480469 139.152344 188.316406 139.0625 186.179688 C 139.0625 185.0625 138.960938 183.953125 138.890625 182.835938 L 138.800781 181.152344 C 138.800781 180.691406 138.800781 180.25 138.800781 179.769531 L 138.800781 179.175781 C 138.800781 178.832031 138.800781 178.5 138.882812 178.175781 L 138.882812 178.140625 C 138.890625 178.050781 138.859375 177.988281 138.78125 177.941406 C 138.78125 177.941406 138.675781 177.941406 138.65625 178.039062 C 138.574219 178.398438 138.519531 178.765625 138.484375 179.132812 C 138.484375 179.339844 138.421875 179.546875 138.414062 179.761719 C 138.40625 179.980469 138.414062 180.1875 138.414062 180.394531 L 138.414062 181.035156 C 138.414062 181.4375 138.414062 181.863281 138.414062 182.277344 L 138.476562 183.710938 C 138.558594 185.351562 138.621094 186.992188 138.648438 188.632812 C 138.703125 192.058594 138.703125 195.492188 138.648438 198.890625 L 138.648438 198.800781 L 138.59375 200.144531 L 136.46875 200.585938 L 130.359375 201.945312 C 128.34375 202.402344 126.335938 202.882812 124.332031 203.390625 L 117.746094 205.03125 L 111.445312 206.625 C 109.367188 207.164062 107.289062 207.742188 105.21875 208.328125 L 98.921875 210.078125 L 92.882812 211.734375 L 89.101562 212.773438 L 89.039062 212.773438 L 88.257812 212.359375 L 82.625 209.292969 C 80.824219 208.300781 79.023438 207.308594 77.144531 206.355469 Z M 76.59375 206.019531 " fill-opacity="1" fill-rule="nonzero"/><path fill="#bb8953" d="M 132.773438 324.324219 C 132.773438 324.324219 136.945312 61.261719 135.902344 36.199219 C 134.859375 11.140625 144.261719 8.019531 152.578125 10.105469 C 160.890625 12.1875 167.164062 84.226562 166.074219 113.453125 C 164.984375 142.675781 158.785156 328.507812 158.785156 328.507812 L 142.15625 329.582031 Z M 132.773438 324.324219 " fill-opacity="1" fill-rule="nonzero"/><path fill="#a57342" d="M 142.15625 329.582031 L 138.558594 327.605469 C 138.46875 298.445312 138.457031 266.109375 138.234375 233.640625 C 137.882812 181.3125 138.988281 128.625 139.0625 88.304688 C 139.144531 68.121094 139.179688 51.128906 139.609375 38.589844 C 139.664062 37.03125 139.71875 35.53125 139.773438 34.082031 C 139.828125 32.628906 139.953125 31.304688 140.105469 30.023438 C 140.167969 29.394531 140.230469 28.773438 140.292969 28.175781 C 140.359375 27.582031 140.449219 27.003906 140.519531 26.457031 C 140.65625 25.347656 140.851562 24.320312 141.003906 23.382812 C 141.410156 21.074219 142.007812 18.816406 142.804688 16.613281 C 143.316406 15.207031 143.984375 13.882812 144.8125 12.636719 C 145.585938 11.480469 146.574219 10.558594 147.78125 9.871094 C 147.996094 9.757812 148.21875 9.660156 148.445312 9.582031 C 149.847656 9.578125 151.222656 9.75 152.578125 10.105469 C 153.746094 10.402344 154.882812 12.078125 155.960938 14.835938 L 155.699219 14.746094 C 154.761719 14.328125 153.796875 13.988281 152.800781 13.726562 C 152.199219 13.554688 151.585938 13.515625 150.964844 13.621094 C 150.34375 13.722656 149.773438 13.953125 149.257812 14.3125 C 148.625 14.816406 148.101562 15.417969 147.691406 16.117188 C 147.15625 17.035156 146.703125 17.992188 146.332031 18.992188 C 145.671875 20.84375 145.175781 22.742188 144.839844 24.679688 C 144.695312 25.527344 144.515625 26.429688 144.390625 27.445312 C 144.316406 27.960938 144.246094 28.484375 144.171875 29.035156 C 144.101562 29.582031 144.054688 30.160156 143.992188 30.746094 C 143.847656 31.925781 143.785156 33.214844 143.667969 34.558594 C 143.550781 35.902344 143.550781 37.390625 143.496094 38.90625 C 143.199219 44.960938 143.15625 52.355469 142.992188 60.648438 C 142.832031 68.941406 142.824219 78.261719 142.722656 88.328125 C 142.453125 128.613281 142.398438 181.292969 142.398438 233.613281 C 142.398438 266.824219 142.398438 299.886719 142.398438 329.554688 Z M 164.390625 100.617188 C 163.40625 98.886719 162.734375 97.039062 162.367188 95.082031 C 161.960938 92.820312 161.785156 90.539062 161.835938 88.238281 C 161.835938 83.40625 162.441406 78.007812 161.59375 72.609375 C 160.746094 67.210938 159.066406 62.269531 157.761719 57.601562 C 157.117188 55.375 156.589844 53.121094 156.175781 50.839844 C 155.820312 48.808594 155.628906 46.761719 155.601562 44.699219 C 155.523438 41.597656 156.027344 38.59375 157.113281 35.6875 C 157.929688 33.613281 158.660156 32.53125 158.535156 32.449219 C 158.410156 32.367188 157.527344 33.351562 156.464844 35.398438 C 155.054688 38.328125 154.3125 41.421875 154.234375 44.671875 C 154.144531 46.816406 154.242188 48.953125 154.519531 51.082031 C 154.839844 53.445312 155.289062 55.78125 155.863281 58.097656 C 156.996094 62.875 158.507812 67.875 159.121094 72.941406 C 159.730469 78.007812 159.066406 83.128906 158.914062 88.1875 C 158.800781 90.679688 158.9375 93.164062 159.316406 95.632812 C 159.699219 97.96875 160.457031 100.171875 161.59375 102.25 C 162.628906 104.128906 164.019531 105.6875 165.769531 106.925781 C 165.921875 107.035156 166.085938 107.105469 166.238281 107.195312 C 166.238281 105.832031 166.238281 104.417969 166.238281 102.953125 C 165.523438 102.25 164.910156 101.472656 164.390625 100.617188 Z M 150.714844 190.757812 C 151.210938 191.121094 151.761719 191.363281 152.359375 191.496094 C 152.957031 191.628906 153.558594 191.636719 154.160156 191.515625 C 155.214844 191.25 156.140625 190.75 156.941406 190.011719 C 157.285156 189.695312 157.644531 189.398438 157.96875 189.054688 C 158.292969 188.714844 158.617188 188.371094 158.867188 187.992188 C 160.082031 186.457031 160.980469 184.75 161.566406 182.882812 C 162.710938 178.976562 162.871094 175.03125 162.054688 171.046875 C 160.476562 163.023438 156.003906 155.890625 154.726562 148.039062 C 153.449219 140.1875 154.25 132.003906 154.972656 124.414062 C 155.691406 116.824219 156.230469 109.578125 155.402344 103.429688 C 155.402344 103.050781 155.320312 102.671875 155.257812 102.292969 C 155.195312 101.914062 155.125 101.554688 155.050781 101.195312 C 154.917969 100.464844 154.773438 99.75 154.648438 99.066406 C 154.339844 97.730469 153.890625 96.445312 153.304688 95.207031 C 152.394531 93.15625 151.066406 91.425781 149.320312 90.015625 C 148.164062 89.109375 146.855469 88.621094 145.386719 88.554688 C 145.015625 88.527344 144.644531 88.558594 144.28125 88.644531 C 144.039062 88.644531 143.910156 88.726562 143.921875 88.753906 C 143.929688 88.78125 144.054688 88.808594 144.300781 88.824219 C 144.652344 88.824219 145.003906 88.851562 145.351562 88.90625 C 146.6875 89.125 147.863281 89.679688 148.878906 90.574219 C 150.429688 91.996094 151.589844 93.683594 152.363281 95.640625 C 152.851562 96.804688 153.21875 98.007812 153.46875 99.246094 C 153.578125 99.925781 153.683594 100.621094 153.792969 101.328125 L 153.953125 102.402344 C 154 102.761719 154.015625 103.140625 154.054688 103.511719 C 154.648438 109.503906 153.988281 116.554688 153.027344 124.136719 C 152.570312 127.921875 152.074219 131.867188 151.839844 135.933594 C 151.546875 140.097656 151.695312 144.242188 152.28125 148.375 C 153.011719 152.496094 154.171875 156.496094 155.753906 160.371094 C 157.226562 163.980469 158.371094 167.6875 159.191406 171.496094 C 159.859375 174.992188 159.671875 178.441406 158.632812 181.84375 C 158.152344 183.339844 157.425781 184.699219 156.445312 185.929688 C 156.222656 186.214844 155.953125 186.46875 155.707031 186.738281 C 155.464844 187.007812 155.167969 187.21875 154.90625 187.460938 C 154.515625 187.847656 154.050781 188.113281 153.523438 188.261719 C 153.179688 188.3125 152.882812 188.21875 152.621094 187.992188 C 152.214844 187.703125 151.894531 187.335938 151.660156 186.890625 C 151.535156 186.660156 151.429688 186.421875 151.34375 186.171875 C 151.246094 185.855469 151.136719 185.550781 151.046875 185.269531 C 150.867188 184.65625 150.714844 184.042969 150.597656 183.46875 C 150.164062 181.382812 150.015625 179.28125 150.15625 177.15625 C 150.253906 175.710938 150.480469 174.289062 150.832031 172.882812 C 151.164062 171.605469 151.128906 171.929688 151.171875 171.828125 C 151.324219 171.691406 151.5 171.628906 151.703125 171.640625 C 151.96875 171.617188 152.203125 171.6875 152.40625 171.855469 L 152.558594 172.035156 C 152.617188 172.128906 152.671875 172.21875 152.722656 172.316406 C 152.824219 172.503906 152.921875 172.675781 153.019531 172.832031 C 153.148438 173.101562 153.359375 173.28125 153.648438 173.371094 C 153.890625 173.371094 154.152344 173.253906 154.386719 172.902344 C 154.515625 172.695312 154.613281 172.472656 154.683594 172.234375 C 154.738281 172.089844 154.773438 171.941406 154.78125 171.785156 C 154.800781 171.574219 154.800781 171.363281 154.78125 171.152344 C 154.703125 170.574219 154.480469 170.054688 154.121094 169.59375 C 153.761719 169.132812 153.308594 168.792969 152.765625 168.574219 C 152.121094 168.296875 151.453125 168.207031 150.757812 168.304688 C 149.960938 168.425781 149.269531 168.769531 148.691406 169.332031 C 148.386719 169.636719 148.140625 169.984375 147.953125 170.371094 L 147.773438 170.820312 L 147.691406 171.0625 C 147.6875 171.125 147.6875 171.183594 147.691406 171.242188 L 147.476562 172.046875 C 147.089844 173.660156 146.851562 175.292969 146.765625 176.949219 C 146.628906 179.402344 146.824219 181.828125 147.359375 184.222656 C 147.511719 184.910156 147.691406 185.601562 147.90625 186.304688 C 148.015625 186.65625 148.148438 187.007812 148.265625 187.371094 C 148.414062 187.800781 148.601562 188.210938 148.824219 188.605469 C 149.296875 189.460938 149.925781 190.179688 150.714844 190.757812 Z M 159.714844 126.378906 C 158.90625 128.636719 158.304688 130.945312 157.914062 133.3125 C 157.527344 135.699219 157.351562 138.105469 157.382812 140.523438 C 157.382812 141.675781 157.453125 142.8125 157.554688 143.875 C 157.648438 144.945312 157.835938 145.996094 158.121094 147.03125 C 158.554688 148.742188 159.335938 150.277344 160.460938 151.636719 C 161.015625 152.292969 161.667969 152.828125 162.421875 153.242188 C 163.003906 153.578125 163.601562 153.617188 164.222656 153.359375 C 164.433594 153.257812 164.609375 153.113281 164.753906 152.925781 C 164.753906 152.304688 164.796875 151.691406 164.816406 151.078125 C 164.800781 151.023438 164.777344 150.972656 164.753906 150.925781 C 164.621094 150.589844 164.402344 150.328125 164.09375 150.140625 C 163.699219 149.929688 163.347656 149.660156 163.042969 149.328125 C 162.203125 148.375 161.601562 147.289062 161.242188 146.066406 C 160.964844 145.222656 160.761719 144.359375 160.640625 143.480469 C 160.496094 142.488281 160.386719 141.453125 160.308594 140.371094 C 160.164062 138.113281 160.191406 135.859375 160.398438 133.609375 C 160.613281 131.367188 161.003906 129.152344 161.574219 126.972656 C 162.082031 125.125 162.925781 123.445312 164.105469 121.933594 C 164.617188 121.316406 165.21875 120.800781 165.902344 120.386719 C 165.902344 120.007812 165.902344 119.644531 165.902344 119.285156 C 164.84375 119.636719 163.914062 120.203125 163.113281 120.988281 C 161.589844 122.527344 160.464844 124.3125 159.730469 126.351562 Z M 153.675781 205.785156 C 154.789062 204.339844 156.234375 203.414062 158.011719 203.011719 C 159.160156 202.738281 160.28125 202.816406 161.378906 203.246094 C 162.105469 203.558594 162.449219 203.859375 162.503906 203.792969 C 162.558594 203.730469 162.269531 203.378906 161.53125 202.894531 C 160.398438 202.277344 159.199219 202.078125 157.929688 202.289062 C 156.945312 202.4375 156.019531 202.753906 155.152344 203.238281 C 154.28125 203.726562 153.527344 204.347656 152.882812 205.109375 C 151.339844 207.171875 150.398438 209.480469 150.058594 212.035156 C 148.402344 225.097656 147.945312 238.207031 148.691406 251.355469 C 148.878906 254.960938 149.167969 258.566406 149.527344 262.089844 C 149.554688 262.617188 149.625 263.136719 149.742188 263.648438 C 149.976562 264.394531 150.410156 264.996094 151.039062 265.453125 C 151.351562 265.679688 151.699219 265.835938 152.074219 265.929688 C 152.445312 266.03125 152.824219 266.054688 153.207031 266.003906 C 154 265.859375 154.644531 265.472656 155.140625 264.839844 C 155.523438 264.378906 155.820312 263.871094 156.042969 263.316406 C 156.238281 262.828125 156.382812 262.328125 156.484375 261.8125 C 156.582031 261.242188 156.609375 260.910156 156.671875 260.449219 L 156.832031 259.179688 C 157.679688 252.425781 158.265625 246.0625 158.632812 240.535156 C 158.832031 237.777344 158.976562 235.21875 159.09375 232.9375 C 159.226562 230.882812 159.25 228.828125 159.164062 226.773438 C 159.164062 225.871094 159.039062 225.066406 158.929688 224.347656 C 158.917969 224.214844 158.894531 224.085938 158.859375 223.960938 C 158.859375 223.804688 158.785156 223.660156 158.742188 223.527344 C 158.632812 223.238281 158.492188 222.96875 158.320312 222.714844 C 158.007812 222.257812 157.609375 221.894531 157.121094 221.632812 C 156.40625 221.246094 155.648438 221.117188 154.84375 221.246094 C 154.449219 221.3125 154.074219 221.4375 153.71875 221.625 C 153.035156 221.984375 152.542969 222.519531 152.234375 223.230469 C 152.011719 223.765625 151.925781 224.324219 151.984375 224.90625 C 152.019531 225.5625 152.148438 226.199219 152.363281 226.816406 C 152.730469 227.890625 153.261719 228.457031 153.746094 228.394531 C 154.234375 228.332031 154.566406 227.664062 154.84375 226.707031 C 154.980469 226.230469 155.105469 225.679688 155.222656 225.078125 C 155.296875 224.671875 155.339844 224.707031 155.359375 224.707031 C 155.375 224.707031 155.359375 224.707031 155.359375 224.707031 C 155.378906 224.699219 155.398438 224.699219 155.421875 224.707031 C 155.414062 224.753906 155.414062 224.796875 155.421875 224.84375 C 155.519531 225.464844 155.601562 226.175781 155.65625 226.980469 C 155.753906 228.914062 155.753906 230.847656 155.65625 232.785156 C 155.574219 235.046875 155.464844 237.582031 155.3125 240.320312 C 155.015625 245.808594 154.539062 252.128906 153.828125 258.835938 L 153.691406 260.097656 C 153.648438 260.503906 153.601562 261 153.558594 261.277344 C 153.5 261.613281 153.410156 261.9375 153.289062 262.253906 C 153.195312 262.511719 153.070312 262.753906 152.910156 262.984375 C 152.859375 263.0625 152.789062 263.113281 152.695312 263.128906 C 152.601562 263.148438 152.519531 263.128906 152.441406 263.074219 C 152.347656 263.003906 152.289062 262.914062 152.261719 262.800781 C 152.191406 262.449219 152.140625 262.097656 152.109375 261.738281 C 151.6875 258.25 151.328125 254.699219 151.066406 251.148438 C 150.058594 238.160156 150.136719 225.179688 151.300781 212.203125 C 151.542969 209.851562 152.339844 207.703125 153.691406 205.757812 Z M 150.28125 304.753906 C 150.921875 300.3125 151.535156 295.839844 151.8125 291.601562 C 152.082031 287.734375 151.980469 283.875 151.507812 280.027344 C 151.34375 278.417969 150.855469 276.917969 150.039062 275.519531 C 149.335938 274.386719 148.34375 273.632812 147.0625 273.269531 C 146.261719 273.015625 145.46875 273.042969 144.6875 273.347656 C 144.183594 273.566406 143.984375 273.800781 144.011719 273.84375 C 144.039062 273.890625 144.308594 273.78125 144.792969 273.691406 C 145.5 273.570312 146.179688 273.648438 146.835938 273.933594 C 147.867188 274.355469 148.632812 275.0625 149.140625 276.054688 C 149.769531 277.367188 150.105469 278.753906 150.148438 280.207031 C 150.375 283.96875 150.277344 287.71875 149.851562 291.457031 C 149.402344 295.585938 148.617188 299.96875 147.835938 304.386719 C 147.050781 308.800781 146.277344 313.300781 145.882812 317.609375 C 145.675781 319.765625 145.585938 321.871094 145.578125 323.917969 C 145.566406 325.964844 145.675781 327.769531 145.578125 329.371094 C 145.574219 329.390625 145.574219 329.410156 145.578125 329.425781 L 148.824219 329.21875 C 148.871094 327.460938 148.71875 325.667969 148.691406 323.875 C 148.664062 322.082031 148.691406 319.953125 148.808594 317.871094 C 149.066406 313.605469 149.660156 309.171875 150.300781 304.726562 Z M 159.199219 276.179688 C 158.8125 277.003906 158.492188 277.855469 158.238281 278.730469 C 157.929688 279.632812 157.660156 280.597656 157.335938 281.597656 C 156.785156 283.703125 156.34375 285.835938 156.015625 287.988281 C 155.390625 292.105469 155.171875 296.242188 155.359375 300.402344 C 155.519531 303.851562 155.90625 306.234375 155.933594 306.476562 C 155.972656 306.703125 156.054688 306.917969 156.179688 307.113281 C 156.304688 307.308594 156.460938 307.46875 156.652344 307.601562 C 156.84375 307.734375 157.050781 307.824219 157.277344 307.871094 C 157.503906 307.917969 157.730469 307.917969 157.957031 307.875 C 158.179688 307.828125 158.386719 307.746094 158.578125 307.625 C 158.769531 307.503906 158.929688 307.351562 159.0625 307.167969 C 159.195312 306.984375 159.292969 306.785156 159.351562 306.566406 C 159.40625 306.347656 159.425781 306.125 159.398438 305.898438 C 159.398438 305.675781 158.914062 303.449219 158.589844 300.167969 C 158.203125 296.207031 158.167969 292.242188 158.488281 288.277344 C 158.652344 286.132812 158.921875 284.003906 159.261719 282.011719 C 159.441406 281.019531 159.605469 280.066406 159.804688 279.164062 C 159.960938 278.328125 160.164062 277.503906 160.414062 276.691406 L 160.523438 276.421875 C 160.523438 275.628906 160.578125 274.816406 160.605469 274.007812 C 160.023438 274.644531 159.5625 275.359375 159.21875 276.152344 Z M 152.207031 67.949219 C 150.128906 64.34375 149.679688 59.878906 149.507812 56.625 C 149.339844 53.371094 149.3125 51.101562 149.050781 51.089844 C 148.789062 51.082031 148.394531 53.253906 148.148438 56.617188 C 147.996094 58.558594 148.019531 60.5 148.214844 62.441406 C 148.433594 64.761719 149.03125 66.980469 150.011719 69.09375 C 151.058594 71.292969 152.460938 73.050781 152.945312 74.746094 C 153.339844 76.4375 153.359375 78.136719 153 79.839844 C 152.75 81.480469 152.488281 83.003906 152.425781 84.164062 C 152.371094 84.859375 152.371094 85.554688 152.425781 86.246094 C 152.433594 86.5 152.496094 86.738281 152.609375 86.960938 C 152.726562 87.1875 152.886719 87.371094 153.089844 87.523438 C 153.292969 87.671875 153.519531 87.773438 153.765625 87.820312 C 154.015625 87.867188 154.261719 87.855469 154.503906 87.789062 C 154.929688 87.679688 155.28125 87.449219 155.550781 87.101562 C 155.820312 86.75 155.957031 86.355469 155.960938 85.914062 C 155.910156 85.390625 155.886719 84.863281 155.898438 84.335938 C 155.898438 83.382812 156.070312 82.019531 156.257812 80.242188 C 156.578125 78.054688 156.402344 75.90625 155.734375 73.800781 C 154.808594 71.445312 153.199219 69.742188 152.226562 67.957031 Z M 156.292969 20.082031 C 154.863281 22.035156 153.699219 24.140625 152.800781 26.390625 C 151.917969 28.59375 151.347656 30.875 151.101562 33.234375 C 150.929688 35.136719 151.101562 36.398438 151.308594 36.425781 C 151.515625 36.453125 151.875 35.246094 152.441406 33.515625 C 153.121094 31.410156 153.992188 29.386719 155.050781 27.445312 C 155.972656 25.761719 157.046875 24.183594 158.273438 22.707031 C 157.941406 21.300781 157.609375 20 157.265625 18.785156 C 156.988281 19.199219 156.664062 19.613281 156.3125 20.089844 Z M 156.292969 20.082031 " fill-opacity="1" fill-rule="nonzero"/><path fill="#845429" d="M 91.0625 332.761719 C 92.097656 333.214844 93.125 333.664062 94.140625 334.152344 L 98.75 336.332031 L 104.96875 339.253906 L 116 344.328125 L 120.867188 346.617188 C 122.925781 347.601562 124.988281 348.582031 127.085938 349.519531 C 128.882812 350.347656 130.785156 351.140625 132.636719 351.945312 C 134.492188 352.746094 136.144531 353.558594 137.863281 354.398438 L 143.265625 357.039062 C 144.863281 357.914062 146.550781 358.546875 148.332031 358.941406 C 149.015625 359.050781 149.699219 359.023438 150.371094 358.859375 C 151.113281 358.652344 151.8125 358.355469 152.46875 357.957031 C 153.199219 357.542969 154 357.011719 154.835938 356.480469 L 157.300781 354.882812 C 160.675781 352.691406 164.09375 350.546875 167.496094 348.382812 L 172.609375 345.113281 C 174.121094 344.128906 175.613281 343.121094 177.160156 342.183594 L 177.558594 341.949219 C 179.210938 340.972656 180.90625 340.046875 182.605469 339.136719 C 184.304688 338.226562 186.105469 337.261719 187.84375 336.285156 C 189.578125 335.3125 191.359375 334.386719 193.132812 333.4375 L 198.296875 330.734375 C 199.035156 330.355469 199.746094 329.957031 200.476562 329.582031 L 201.707031 331.121094 L 197.742188 333.25 C 194.230469 335.125 190.820312 337.152344 187.464844 339.234375 C 185.78125 340.289062 184.109375 341.335938 182.40625 342.355469 C 180.707031 343.371094 179.148438 344.292969 177.601562 345.355469 L 172.492188 348.871094 L 167.503906 352.222656 L 157.609375 358.679688 C 156.789062 359.210938 155.996094 359.742188 155.132812 360.273438 C 154.21875 360.863281 153.253906 361.34375 152.234375 361.714844 C 151.070312 362.136719 149.871094 362.316406 148.636719 362.25 C 147.453125 362.171875 146.304688 361.929688 145.191406 361.527344 C 144.164062 361.15625 143.164062 360.730469 142.183594 360.246094 L 139.441406 358.914062 L 134.039062 356.207031 C 132.242188 355.308594 130.34375 354.515625 128.472656 353.695312 C 126.597656 352.875 124.96875 352.171875 123.242188 351.367188 L 118.84375 349.304688 L 112.128906 346.175781 C 108.53125 344.523438 104.929688 342.847656 101.332031 341.15625 C 98.027344 339.585938 94.78125 337.945312 91.433594 336.449219 C 90.625 336.078125 89.8125 335.726562 88.996094 335.375 Z M 215.746094 340.875 L 215.546875 340.765625 C 213.59375 341.667969 211.652344 342.515625 209.726562 343.472656 C 207.800781 344.425781 205.894531 345.375 203.996094 346.363281 C 202.09375 347.355469 200.144531 348.382812 198.191406 349.347656 C 196.238281 350.3125 194.484375 351.222656 192.636719 352.179688 C 190.792969 353.132812 188.824219 354.144531 186.941406 355.179688 L 181.308594 358.226562 C 179.507812 359.203125 177.710938 360.191406 175.910156 361.273438 L 175.488281 361.535156 C 173.824219 362.574219 172.195312 363.664062 170.582031 364.78125 L 165.113281 368.484375 L 159.714844 372.171875 L 157.078125 374.074219 L 155.761719 375.03125 L 155.105469 375.515625 L 154.773438 375.75 L 154.675781 375.851562 C 154.53125 375.976562 154.367188 376.054688 154.179688 376.074219 C 154.011719 376.117188 153.84375 376.132812 153.675781 376.128906 C 153.449219 376.128906 153.234375 376.128906 152.992188 376.128906 C 152.027344 376.128906 151.003906 376.074219 149.976562 376.003906 C 147.917969 375.859375 145.828125 375.617188 143.679688 375.390625 C 143.128906 375.335938 142.570312 375.28125 141.984375 375.246094 L 140.953125 375.246094 C 140.394531 375.246094 140.375 375.246094 140.160156 375.300781 C 139.347656 375.316406 138.5625 375.175781 137.800781 374.886719 C 135.9375 374.070312 134.136719 373.125 132.402344 372.054688 C 130.601562 371.039062 128.859375 370.027344 127.003906 369.097656 C 125.148438 368.171875 123.1875 367.171875 121.308594 366.179688 C 119.167969 365.042969 117.042969 363.863281 114.929688 362.679688 L 109.960938 359.929688 L 98.648438 353.828125 L 92.296875 350.3125 L 87.574219 347.671875 C 85.738281 346.664062 83.878906 345.699219 82.003906 344.777344 C 81.191406 344.382812 80.375 343.996094 79.546875 343.632812 L 76.21875 345.851562 L 76.21875 346.023438 C 76.578125 346.167969 76.945312 346.300781 77.296875 346.464844 C 78.195312 346.851562 79.035156 347.257812 79.898438 347.671875 C 81.589844 348.492188 83.28125 349.332031 84.9375 350.203125 C 88.375 352.007812 91.710938 353.980469 95.105469 355.867188 C 98.765625 357.902344 102.441406 359.917969 106.136719 361.90625 L 113.019531 365.636719 L 117.519531 368.117188 C 119.320312 369.082031 121.117188 370 122.917969 370.921875 C 124.71875 371.839844 126.769531 372.875 128.632812 373.949219 L 131.421875 375.5625 C 132.320312 376.101562 133.222656 376.652344 134.265625 377.195312 C 135.320312 377.78125 136.425781 378.242188 137.585938 378.574219 C 138.21875 378.742188 138.859375 378.84375 139.511719 378.878906 C 140.066406 378.894531 140.621094 378.878906 141.175781 378.835938 C 142.078125 378.835938 143.148438 378.988281 144.171875 379.085938 L 147.324219 379.402344 C 149.46875 379.628906 151.617188 379.722656 153.773438 379.691406 C 154.730469 379.71875 155.609375 379.480469 156.417969 378.96875 L 160.640625 375.851562 C 162.027344 374.8125 163.449219 373.832031 164.84375 372.8125 C 166.589844 371.53125 168.351562 370.269531 170.117188 369.019531 C 171.878906 367.765625 173.714844 366.375 175.605469 365.097656 C 177.277344 363.925781 179.015625 362.859375 180.761719 361.816406 L 186.222656 358.453125 C 189.820312 356.21875 193.546875 354.070312 197.328125 352.144531 L 203.195312 349.085938 L 208.890625 346.03125 C 211.191406 344.804688 213.523438 343.644531 215.871094 342.488281 Z M 215.746094 340.875 " fill-opacity="1" fill-rule="nonzero"/></svg>