<svg xmlns="http://www.w3.org/2000/svg" viewBox="0 0 527.79 7.47"><defs><style>.cls-1{fill:#303030;}</style></defs><title>資產 1</title><g id="圖層_2" data-name="圖層 2"><g id="圖層_1-2" data-name="圖層 1"><path class="cls-1" d="M2.37,7.47h.24c23.23-2.32,58.55-1.55,92.7-.79,24.41.53,47.5,1.06,64.43.4,13.47-.55,27.08-.79,40.24-1,13.57-.23,27.58-.47,41.52-1.06,15.84-.65,32.06.06,47.77.75,13.7.59,27.86,1.2,41.76.93,64.63-1.38,112.47-1.33,163-1.28l31.37,0a2.37,2.37,0,0,0,0-4.73l-31.37,0C443.44.62,395.6.55,330.94,1.92c-13.73.28-27.84-.33-41.47-.93C273.68.31,257.35-.4,241.31.27c-13.89.57-27.87.82-41.41,1-13.19.24-26.82.48-40.34,1-16.81.67-39.81.14-64.16-.39C61.12,1.17,25.66.41,2.14,2.75a2.37,2.37,0,0,0,.23,4.72"/></g></g></svg>