<?xml version="1.0" encoding="utf-8"?>
<!-- Generator: Adobe Illustrator 24.0.0, SVG Export Plug-In . SVG Version: 6.00 Build 0)  -->
<svg version="1.1" id="圖層_1" xmlns="http://www.w3.org/2000/svg" xmlns:xlink="http://www.w3.org/1999/xlink" x="0px" y="0px"
	 viewBox="0 0 800 1100" style="enable-background:new 0 0 800 1100;" xml:space="preserve">
<style type="text/css">
	.st0{clip-path:url(#SVGID_2_);}
	.st1{fill:#E8DB84;}
	.st2{fill:#D6C761;}
	.st3{fill:#303030;}
	.st4{clip-path:url(#SVGID_4_);}
	.st5{clip-path:url(#SVGID_6_);}
	.st6{clip-path:url(#SVGID_8_);}
	.st7{clip-path:url(#SVGID_10_);}
	.st8{clip-path:url(#SVGID_12_);}
	.st9{clip-path:url(#SVGID_14_);}
	.st10{clip-path:url(#SVGID_16_);}
	.st11{clip-path:url(#SVGID_18_);}
	.st12{clip-path:url(#SVGID_20_);}
	.st13{clip-path:url(#SVGID_22_);}
	.st14{clip-path:url(#SVGID_24_);}
	.st15{clip-path:url(#SVGID_26_);}
	.st16{clip-path:url(#SVGID_28_);}
	.st17{clip-path:url(#SVGID_30_);}
	.st18{clip-path:url(#SVGID_32_);}
	.st19{clip-path:url(#SVGID_34_);}
	.st20{clip-path:url(#SVGID_36_);}
	.st21{clip-path:url(#SVGID_38_);}
	.st22{clip-path:url(#SVGID_40_);}
	.st23{clip-path:url(#SVGID_42_);}
	.st24{clip-path:url(#SVGID_44_);}
	.st25{clip-path:url(#SVGID_46_);}
	.st26{clip-path:url(#SVGID_48_);}
	.st27{clip-path:url(#SVGID_50_);}
	.st28{clip-path:url(#SVGID_52_);}
	.st29{clip-path:url(#SVGID_54_);}
	.st30{clip-path:url(#SVGID_56_);}
	.st31{clip-path:url(#SVGID_58_);}
	.st32{clip-path:url(#SVGID_60_);}
	.st33{clip-path:url(#SVGID_62_);}
	.st34{clip-path:url(#SVGID_64_);}
	.st35{clip-path:url(#SVGID_66_);}
	.st36{clip-path:url(#SVGID_68_);}
	.st37{clip-path:url(#SVGID_70_);}
	.st38{clip-path:url(#SVGID_72_);}
	.st39{clip-path:url(#SVGID_74_);}
	.st40{clip-path:url(#SVGID_76_);}
	.st41{clip-path:url(#SVGID_78_);}
	.st42{clip-path:url(#SVGID_80_);}
	.st43{clip-path:url(#SVGID_82_);}
	.st44{clip-path:url(#SVGID_84_);}
	.st45{clip-path:url(#SVGID_86_);}
	.st46{clip-path:url(#SVGID_88_);}
	.st47{clip-path:url(#SVGID_90_);}
	.st48{clip-path:url(#SVGID_92_);}
	.st49{filter:url(#Adobe_OpacityMaskFilter);}
	.st50{fill-opacity:0.498;}
	.st51{mask:url(#_x31_57783b2f3_1_);}
	.st52{clip-path:url(#SVGID_94_);}
	.st53{clip-path:url(#SVGID_96_);}
	.st54{clip-path:url(#SVGID_98_);}
	.st55{clip-path:url(#SVGID_100_);}
	.st56{clip-path:url(#SVGID_102_);}
	.st57{clip-path:url(#SVGID_104_);}
	.st58{clip-path:url(#SVGID_106_);}
	.st59{clip-path:url(#SVGID_108_);}
	.st60{clip-path:url(#SVGID_110_);}
	.st61{clip-path:url(#SVGID_112_);}
	.st62{clip-path:url(#SVGID_114_);}
	.st63{clip-path:url(#SVGID_116_);}
	.st64{clip-path:url(#SVGID_118_);}
	.st65{clip-path:url(#SVGID_120_);}
	.st66{clip-path:url(#SVGID_122_);}
	.st67{clip-path:url(#SVGID_124_);}
	.st68{clip-path:url(#SVGID_126_);}
	.st69{clip-path:url(#SVGID_128_);}
	.st70{clip-path:url(#SVGID_130_);}
	.st71{clip-path:url(#SVGID_132_);}
	.st72{clip-path:url(#SVGID_134_);}
	.st73{clip-path:url(#SVGID_136_);}
	.st74{clip-path:url(#SVGID_138_);}
	.st75{clip-path:url(#SVGID_140_);}
	.st76{clip-path:url(#SVGID_142_);}
	.st77{clip-path:url(#SVGID_144_);}
	.st78{clip-path:url(#SVGID_146_);}
</style>
<g>
	<defs>
		<rect id="SVGID_1_" x="41.4" y="13.6" width="714.6" height="1072.1"/>
	</defs>
	<clipPath id="SVGID_2_">
		<use xlink:href="#SVGID_1_"  style="overflow:visible;"/>
	</clipPath>
	<g class="st0">
		<path class="st1" d="M755.4,326.7v1091.7h-714V327.1c22.9-176.9,174-313.5,357-313.5C581.3,13.6,732.3,150,755.4,326.7"/>
	</g>
</g>
<path class="st2" d="M737.5,371.5c-20.3,15.9-30.4,67.7-32.9,92c-3.3,31.7,0,64.5,7.9,95.4c7.2,28.2,19.1,56.3,17.6,85.8
	c-4.4,83.6-47.9,162.2-34.5,247c6.9,43.5,25.9,85.8,59.5,114.8c0.1,0.1,0.2,0.2,0.4,0.3V358.7C748.6,362.3,741.9,368,737.5,371.5"/>
<path class="st3" d="M219.3,277c0.1,1.3,1.1,2.3,2.4,2.3c0,0,0.1,0,0.1,0c49.2-1.9,99.5-2.4,153.9-1.7c11.5,0.1,23.2-0.1,34.5-0.4
	c15.8-0.4,32.1-0.8,48.1,0c21.1,1.1,42.8,1.2,63.7,1.3l14.5,0.1c2.8,0,5.6,0.1,8.4,0.2c5.4,0.1,11,0.3,16.4,0.1c1,0,3.6,0,5.9,0
	c6.8,0,7.4,0.1,7.5-2.3c0.1-1.3-1-2.4-2.3-2.5c-0.3,0-0.6,0-0.8,0c-0.9,0-2.6,0-4.4,0c-2.4,0-5,0-6.1,0c-5.3,0.2-10.8,0-16.1-0.1
	c-2.8-0.1-5.7-0.2-8.5-0.2l-14.6-0.1c-20.8-0.1-42.4-0.2-63.5-1.3c-16.1-0.8-32.6-0.4-48.4,0c-11.3,0.3-22.9,0.6-34.3,0.4
	c-54.5-0.7-104.9-0.2-154.2,1.7C220.2,274.6,219.2,275.7,219.3,277"/>
<path class="st3" d="M572.8,284.5c-0.3,0-0.6,0-0.8,0c-0.8,0-2.5,0-4.2,0c-2.5,0-5.2,0-6.3,0c-5.2,0.2-10.6,0-15.8-0.1
	c-2.9-0.1-5.9-0.2-8.8-0.2l-15.5-0.1c-20.5-0.1-41.8-0.2-62.5-1.3c-16.2-0.8-32.6-0.4-48.5,0c-11.3,0.3-22.9,0.6-34.3,0.4
	c-53.2-0.8-105-0.2-154.2,1.6c-1.3,0.1-2.3,1.1-2.3,2.5c0.1,1.3,1.1,2.3,2.4,2.3c0,0,0.1,0,0.1,0c49.1-1.8,100.8-2.4,153.9-1.6
	c11.5,0.2,23.2-0.1,34.5-0.4c15.8-0.4,32.2-0.8,48.2,0c20.8,1.1,42.1,1.2,62.7,1.3l15.5,0.1c2.9,0,5.8,0.1,8.8,0.2
	c5.3,0.1,10.7,0.3,16.1,0.1c1.1-0.1,3.7,0,6.1,0c6.5,0,7.2,0,7.4-2.3C575.1,285.8,574.1,284.6,572.8,284.5"/>
<path class="st3" d="M116.1,372.3c1.4-3.6,4.1-5.9,7.4-6.3c3.5-0.5,6,3.1,6.6,6.5c0.6,3.5-0.3,8.1-5.1,9.3c-2.6,0.7-6.2,1-8.2-1.2
	C115.1,378.8,114.9,375.5,116.1,372.3z M121.4,387.1c1.4,0,2.9-0.2,4.7-0.6c7.4-1.8,9.7-9,8.6-14.8c-1-5.7-5.5-11-11.8-10.3
	c-5,0.6-9.3,4.1-11.3,9.3c-1.9,4.9-1.3,9.9,1.5,13.1C114.4,385.1,116.9,387.1,121.4,387.1"/>
<path class="st3" d="M116.1,665c1.4-3.6,4.1-5.9,7.4-6.3c0.2,0,0.4,0,0.6,0c3.3,0,5.4,3.3,6,6.5c0.7,3.9-0.6,8.2-5.1,9.3
	c-2.6,0.7-6.2,1-8.2-1.2C115.1,671.4,114.9,668.1,116.1,665z M121.4,679.7c1.4,0,2.9-0.2,4.7-0.6c7.4-1.9,9.7-9,8.6-14.8
	c-1-5.7-5.4-11-11.7-10.3c-5,0.6-9.3,4.1-11.3,9.3c-1.9,4.9-1.3,9.9,1.5,13.1C114.4,677.8,116.9,679.7,121.4,679.7"/>
<path class="st3" d="M116.1,953.1c1.4-3.6,4.1-5.9,7.4-6.3c3.5-0.5,6,3.1,6.6,6.5c0.6,3.6-0.3,8.1-5.1,9.3c-2.6,0.7-6.2,1-8.2-1.2
	C115.1,959.6,114.8,956.3,116.1,953.1z M121.4,967.8c1.4,0,2.9-0.2,4.7-0.6c7.4-1.8,9.7-8.9,8.6-14.8c-1-5.7-5.5-11.1-11.8-10.3
	c-5,0.5-9.3,4.1-11.3,9.3c-1.9,4.9-1.3,9.9,1.5,13.1C114.4,965.9,116.9,967.8,121.4,967.8"/>
<path class="st3" d="M124.9,481.6c-2.6,0.7-6.2,1-8.2-1.2c-1.6-1.8-1.9-5.1-0.6-8.2c1.4-3.6,4.1-5.9,7.4-6.3c3.8-0.4,6,3.1,6.6,6.5
	C130.7,475.8,129.7,480.4,124.9,481.6z M123,461.1c-5,0.6-9.3,4.1-11.3,9.3c-1.9,4.9-1.3,9.9,1.5,13.1c1.2,1.4,3.8,3.3,8.2,3.3
	c1.4,0,2.9-0.2,4.7-0.6c7.4-1.9,9.7-9,8.6-14.8C133.7,465.8,129.4,460.4,123,461.1"/>
<path class="st3" d="M124.9,774.3c-2.6,0.7-6.2,1-8.2-1.2c-1.6-1.8-1.9-5.1-0.6-8.2c1.4-3.6,4.1-5.9,7.4-6.3c3.6-0.4,6,3.1,6.6,6.5
	C130.7,768.5,129.7,773.1,124.9,774.3z M123,753.8c-5,0.6-9.3,4.2-11.3,9.3c-1.9,4.9-1.3,9.9,1.5,13.1c1.2,1.4,3.7,3.3,8.2,3.3
	c1.4,0,2.9-0.2,4.7-0.6c7.4-1.9,9.7-9,8.6-14.8C133.7,758.5,129.3,753.1,123,753.8"/>
<path class="st3" d="M124.9,1062.4c-2.6,0.6-6.2,1-8.2-1.3c-1.6-1.8-1.9-5.1-0.6-8.2c1.4-3.6,4.1-5.9,7.4-6.3c3.8-0.5,6,3.1,6.6,6.5
	C130.7,1056.7,129.7,1061.2,124.9,1062.4z M123,1041.9c-5,0.6-9.3,4.2-11.3,9.3c-1.9,4.9-1.3,9.9,1.5,13.1c1.2,1.4,3.8,3.3,8.2,3.3
	c1.4,0,2.9-0.2,4.7-0.6c7.4-1.9,9.7-9,8.6-14.8C133.7,1046.6,129.3,1041.2,123,1041.9"/>
<path class="st3" d="M124.9,575.1c-2.6,0.7-6.2,1-8.2-1.2c-1.6-1.8-1.9-5.1-0.6-8.2c1.4-3.6,4.1-5.9,7.4-6.3c3.8-0.5,6,3.1,6.6,6.5
	C130.7,569.3,129.7,573.9,124.9,575.1z M123,554.6c-5,0.6-9.3,4.1-11.3,9.3c-1.9,4.9-1.3,9.9,1.5,13.1c1.2,1.4,3.8,3.3,8.2,3.3
	c1.4,0,2.9-0.2,4.7-0.6c7.4-1.9,9.7-9,8.6-14.8C133.7,559.2,129.4,553.8,123,554.6"/>
<path class="st3" d="M124.9,867.7c-2.6,0.7-6.2,1-8.2-1.2c-1.6-1.8-1.9-5.1-0.6-8.2c1.4-3.6,4.1-5.9,7.4-6.3c3.6-0.4,6,3.1,6.6,6.5
	C130.7,862,129.7,866.5,124.9,867.7z M123,847.2c-5,0.6-9.3,4.2-11.3,9.3c-1.9,4.9-1.3,9.9,1.5,13.1c1.2,1.4,3.7,3.3,8.2,3.3
	c1.4,0,2.9-0.2,4.7-0.6c7.4-1.9,9.7-9,8.6-14.8C133.7,851.9,129.3,846.5,123,847.2"/>
<path class="st3" d="M155.6,1074.1c0.1,0,0.2,0,0.2,0c23.3-2.3,58.6-1.6,92.7-0.8c24.4,0.6,47.5,1,64.4,0.4
	c13.4-0.5,26.9-0.8,39.9-1c13.7-0.2,27.8-0.5,41.8-1.1c15.8-0.7,32.1,0,47.8,0.7c13.7,0.6,27.8,1.2,41.8,0.9
	c64.6-1.4,112.3-1.3,162.9-1.3l31.5,0c1.3,0,2.4-1.1,2.4-2.4c0-1.3-1.1-2.4-2.4-2.4l-31.5,0c-50.6,0-98.4-0.1-163,1.3
	c-13.8,0.3-27.9-0.3-41.5-0.9c-15.8-0.7-32.1-1.4-48.1-0.7c-14,0.6-28.1,0.8-41.7,1.1c-13.1,0.2-26.6,0.5-40,1
	c-16.8,0.7-39.8,0.2-64.1-0.4c-34.3-0.7-69.8-1.5-93.3,0.8c-1.3,0.1-2.3,1.3-2.1,2.6C153.4,1073.2,154.4,1074.1,155.6,1074.1"/>
<path class="st3" d="M586.2,142c0.4-0.5,1.1-1.1,2.4-1.1c0.2,0,0.4,0,0.6,0c1,0.1,2.8,0.4,3.3,1.3c1.1,2-1.9,7.7-4.4,12.7
	c-1,2-2.1,4.1-3.1,6.3C583.8,153.6,583.6,145.1,586.2,142z M584.2,172.1C584.2,172.1,584.2,172.1,584.2,172.1c1.1,0,2-0.7,2.3-1.7
	c1.3-4.4,3.7-9.2,5.8-13.3c3.7-7.2,6.6-12.9,4.4-17.1c-1.1-2.1-3.5-3.4-6.9-3.8c-2.9-0.3-5.3,0.6-7.1,2.7c-6.5,7.4-1.4,29-0.8,31.4
	C582.2,171.3,583.1,172,584.2,172.1"/>
<path class="st3" d="M620.8,167.4c0,0,0.1,0,0.1,0c2,0,3.7,1,5.2,3c1.3,1.8,1.3,2.6,1.3,2.6c-0.9,1.2-7.8,1.2-11.5,1.2
	c-2.8,0-5.5,0-7.9,0.2C611.9,170.8,616.8,167.4,620.8,167.4z M598.3,181.5c0.4,0.3,0.9,0.5,1.4,0.5c0.7,0,1.4-0.3,1.9-0.9
	c0,0,0.1-0.1,0.1-0.1c1.7-1.9,8.9-2,14.1-2c7.7,0,13.8,0,15.8-3.8c1.5-3.1-0.9-6.4-1.7-7.5c-2.3-3.2-5.3-4.8-8.9-4.9
	c-0.1,0-0.1,0-0.2,0c-10,0-20.8,12.9-22.7,15.2c-0.1,0.1-0.2,0.2-0.2,0.3C597.1,179.2,597.3,180.7,598.3,181.5"/>
<path class="st3" d="M653.2,248.6c2.3,4.8,5.5,8.3,7.8,10.3c-3.5,2.9-5.9,6.9-7.5,10.5c-2.2-4.8-5.8-8.1-8.4-10
	C649.3,255.8,651.8,252,653.2,248.6z M640.2,261.8c0.1,0,10.4,5.4,10.7,16.4c0,1.2,1,2.2,2.2,2.3c0.1,0,0.1,0,0.2,0
	c1.1,0,2.1-0.8,2.3-1.9c0-0.1,2.8-13.4,10.6-17.4c0.7-0.4,1.2-1.2,1.3-2c0-0.8-0.4-1.7-1.1-2.1c-0.1-0.1-9.7-6.4-11.1-18.2
	c0-1.4-0.1-2.2-0.2-2.4c-0.2-1.2-1.3-2-2.6-1.9c-1.2,0.1-2.2,1.2-2.1,2.4c0,0.7,0.1,1.4,0.1,2.1c0,3.4-1.3,11.4-10.8,18.7
	c-0.7,0.5-1,1.3-0.9,2.1C639,260.7,639.5,261.5,640.2,261.8"/>
<path class="st3" d="M182.2,262.6c1.8,3.4,4.1,5.9,5.9,7.5c-2.5,2.1-4.2,5-5.5,7.7c-1.8-3.4-4.4-5.8-6.3-7.4
	C179.1,267.8,181,265.1,182.2,262.6z M171.2,272.8c0.4,0.2,8.4,4.4,8.8,13.1c0.1,1.2,1,2.2,2.2,2.3c0.1,0,0.1,0,0.2,0
	c1.1,0,2.1-0.8,2.3-1.9c0.6-3,3.3-11.3,8.5-13.9c0.8-0.4,1.2-1.1,1.3-2c0-0.8-0.4-1.7-1.1-2.1c-0.1-0.1-7.9-5.2-9.1-14.7
	c0-1.2-0.1-1.9-0.2-2c-0.2-1.2-1.4-2-2.6-1.9c-1.2,0.1-2.1,1.2-2.1,2.4c0,0.6,0.1,1.2,0.1,1.8c0,2.8-1,9.1-8.7,14.8
	c-0.7,0.5-1,1.3-0.9,2.1C170,271.7,170.5,272.4,171.2,272.8"/>
<path class="st3" d="M411.2,129.5c1.8,3.3,4.1,5.7,5.8,7.3c-2.3,2-4,4.7-5.2,7.2c-1.8-3.3-4.3-5.6-6.2-7.1
	C408.3,134.4,410.1,131.8,411.2,129.5z M400.5,139.2c0.1,0,8.3,4.3,8.7,12.7c0.1,1.2,1,2.2,2.2,2.2c0.1,0,0.1,0,0.2,0
	c1.1,0,2.1-0.8,2.3-1.9c0-0.1,2.1-10.3,8.1-13.2c0.8-0.4,1.3-1.2,1.3-2c0-0.9-0.4-1.7-1.1-2.1c-0.1,0-7.9-5-9.1-14.2
	c0-1.1-0.2-1.8-0.2-1.9c-0.3-1.2-1.4-2-2.6-1.9c-1.2,0.2-2.1,1.2-2.1,2.5c0,0.6,0.1,1.2,0.2,1.7c0,2.7-0.9,8.7-8.3,14.1
	c-0.7,0.5-1,1.3-1,2.1C399.3,138.1,399.8,138.8,400.5,139.2"/>
<path class="st3" d="M211.9,120.3c0,0,0.2-0.2,0.9-0.2c0.5,0,1.3,0.1,2.4,0.4c2,0.6,3.5,1.8,4.6,3.8c2.8,5.4,1.5,15.1-0.4,22.8
	c-1.1-4.1-2.6-8.3-4-12.2C213.6,130,210.6,121.6,211.9,120.3z M216.4,157.4c0.1,1.1,0.9,2,2,2.2c0.1,0,0.2,0,0.3,0
	c1,0,1.9-0.6,2.2-1.6c0.4-1,8.9-24.3,2.9-35.9c-1.6-3.2-4.2-5.3-7.5-6.2c-1.4-0.4-5.6-1.5-8,1.1c-3.2,3.4-0.8,10.2,2.5,19.5
	C213.3,143.3,216,151,216.4,157.4"/>
<path class="st3" d="M177.4,150.9c1.7-1.4,3-1.8,4.1-1.8c0.6,0,1.1,0.1,1.5,0.3c6.2,2.2,11.3,15.8,13.8,24.4
	c-6.6-3.5-19.1-11.8-20.9-18.5C175.4,153.5,175.8,152.1,177.4,150.9z M200,180.2c0.1,0,0.2,0,0.3,0c0.7,0,1.3-0.3,1.8-0.8
	c0.5-0.6,0.7-1.4,0.6-2.1c-0.7-2.9-6.8-28.4-18.1-32.4c-2.3-0.8-6-1.1-10.1,2.2c-3.1,2.5-4.2,5.7-3.1,9.4
	C174.3,167.3,195.7,179.6,200,180.2"/>
<path class="st3" d="M276.2,203c2.6-5.2,7.3-7.9,13.9-8.1c0.2,0,0.5,0,0.7,0c12,0,14.1,10.5,14.4,15.1c0.8,11.7-6.2,25.7-17.6,26.9
	c-3.7,0.4-6.7-3.1-8.2-5.2C274.5,224.7,271.8,211.6,276.2,203z M275.5,234.5c3.3,4.7,7.3,7.3,11.4,7.3c0.4,0,0.7,0,1.1-0.1
	c14.3-1.6,22.8-17.8,21.8-32c-0.9-12.4-8.6-19.8-19.9-19.5c-10.6,0.3-15.6,6-18,10.7C266.7,211.2,269.7,226.1,275.5,234.5"/>
<path class="st3" d="M397,203c2.6-5.2,7.3-7.9,13.9-8.1c0.2,0,0.5,0,0.7,0c12,0,14.1,10.5,14.4,15.1c0.8,11.7-6.2,25.7-17.6,26.9
	c-3.7,0.4-6.7-3.1-8.2-5.2C395.3,224.7,392.6,211.6,397,203z M407.8,241.7c0.4,0,0.8,0,1.1-0.1c14.3-1.6,22.8-17.8,21.8-32
	c-0.9-12.4-8.7-19.8-19.9-19.5c-10.6,0.3-15.6,6-18,10.7c-5.2,10.3-2.3,25.2,3.6,33.6C399.6,239.2,403.6,241.7,407.8,241.7"/>
<path class="st3" d="M354.9,194.9c2.1-2.6,5.5-4,9.3-3.5c4.1,0.5,7.8,2.9,9.5,6.2c3.7,7.7,2.4,19.5-2.9,26.9
	c-2.5,3.5-7,7.5-14.1,6.5c0,0,0,0,0,0c-0.1-1-0.1-2.1-0.1-2.7c0-0.7,0-1.3,0-1.6c-0.3-3.2-0.8-6.9-1.3-10.8
	c-1-6.8-1.9-14.4-1.7-20.3C354.1,195.5,354.6,195.4,354.9,194.9z M351.9,227.1c0,0.2,0,0.7,0,1.2c0.1,4.3,0.1,6.7,2.2,7.3
	c0.2,0.1,0.4,0.1,0.6,0.1c0.3,0,0.6-0.1,0.9-0.2c0.2,0.1,0.3,0.2,0.5,0.2c0.9,0.1,1.8,0.2,2.7,0.2c6.2,0,11.8-3,15.8-8.6
	c6.4-8.9,7.8-22.5,3.3-31.7c-2.3-4.8-7.4-8.2-13.2-8.8c-4.8-0.5-9.1,1-12.3,4c-0.3-0.1-0.5-0.2-0.8-0.3c-1.2-0.2-2.5,0.7-2.7,2
	c-0.9,6.7,0.4,15.9,1.5,24.1C351.1,220.4,351.6,224,351.9,227.1"/>
<path class="st3" d="M466,200.2l0,17.4c0,2-0.1,4,0,5.9c0.3,6.6,1.5,10.1,3.8,12c1.3,1,2.8,1.4,4.5,1.4c1.7,0,3.6-0.4,5.6-0.8
	c2.7-0.6,5.8-1.2,9.5-1.2c1.3,0,2.4-1.1,2.4-2.4c0-1.3-1.1-2.4-2.4-2.4c-4.1,0-7.6,0.7-10.4,1.3c-2.9,0.6-5.2,1.1-6.2,0.3
	c-0.7-0.6-1.7-2.5-2-8.4c-0.1-1.9-0.1-3.8,0-5.6l0-17.5c0-13.9,0-13.9-2.6-13.9c-1.3,0-2.4,1.3-2.4,2.6c0,0,0,1,0,1
	c0,0.2,0,0.5,0.1,0.7C465.9,193,466,197.5,466,200.2"/>
<path class="st3" d="M503,239.9c0.1,0,0.2,0,0.2,0c1.3,0,2.4-1.4,2.4-2.7c0-0.3-0.1-0.6-0.2-0.8c-0.2-2.4-0.7-9.9-0.8-11.5
	c-0.2-8.4-0.1-16.9,0.2-25.4c0.1-3.1,0.4-6.2,0.7-8.9c0.5-0.7,0.6-1.6,0.2-2.5c-0.4-1-1.5-1.9-2.6-1.8c-1.1,0.1-2,1-2.1,2.1
	c-0.4,3.3-0.8,7.1-0.9,10.9c-0.3,8.6-0.4,17.2-0.2,25.7C500.2,239.4,501,239.9,503,239.9"/>
<path class="st3" d="M522.9,216.9c3.2,4.4,6.1,8.5,6.8,13.5c0.3,2.1-0.6,2.9-1.3,3.3c-2.1,1.2-6.1,0.6-8.3-1.2
	c-1-0.8-2.5-0.7-3.3,0.4c-0.8,1-0.7,2.5,0.4,3.3c2.3,1.9,5.5,2.9,8.5,2.9c1.9,0,3.7-0.4,5.2-1.3c2.8-1.6,4.1-4.6,3.6-8.1
	c-0.9-6.1-4.3-10.9-7.7-15.6c-3.3-4.5-6.3-8.8-7.1-14.1c-0.5-3.3,0.1-8,2-10.2c0.8-0.9,1.8-1.3,3-1.2c3.5,0.1,6.1,1.1,7.4,2.6
	c0.8,1,2.3,1.1,3.3,0.3c1-0.8,1.1-2.3,0.3-3.3c-2.2-2.6-5.9-4.1-10.8-4.3c-2.6-0.1-5,0.9-6.7,2.8c-3.6,4-3.7,10.7-3.2,14
	C515.9,207.2,519.4,212.1,522.9,216.9"/>
<path class="st3" d="M550,191.4c0.5,0,0.9,0,1.3,0c-0.8,13.2-0.8,26.7-0.8,39.8v4.3c0,1.3,1.1,2.4,2.4,2.4c1.3,0,2.4-1.1,2.4-2.4
	v-4.3c0-13.1,0-26.6,0.8-39.7c1.3,0,2.5,0,3.8,0c1.6,0,3.2-0.1,4.8-0.1c1.3,0,2.4-1.1,2.4-2.4c0-1.3-1.1-2.4-2.4-2.4
	c-1.6,0-3.3,0-4.9,0.1c-3.2,0.1-6.4,0.1-9.5-0.1c-1.2-0.1-3.7-0.3-5-0.5c-1.4-0.7-3.8,0.4-3.8,2.1C541.3,190.9,543.3,191,550,191.4"
	/>
<path class="st3" d="M252.3,191.4c0.4,0,0.9,0,1.3,0c-0.8,13.2-0.8,26.7-0.8,39.8v4.3c0,1.3,1.1,2.4,2.4,2.4s2.4-1.1,2.4-2.4v-4.3
	c0-13.1,0-26.6,0.8-39.7c1.3,0,2.6,0,3.9,0c1.6,0,3.2-0.1,4.8-0.1c1.3,0,2.4-1.1,2.4-2.4c0-1.3-1.1-2.4-2.4-2.4
	c-1.7,0-3.3,0-4.9,0.1c-3.2,0.1-6.4,0.1-9.5-0.1c-1.2-0.1-3.7-0.3-5-0.5c-1.4-0.7-3.8,0.4-3.8,2.1
	C243.7,190.9,245.7,191,252.3,191.4"/>
<g>
	<defs>
		<rect id="SVGID_3_" x="754.7" y="326.7" width="3.7" height="94.7"/>
	</defs>
	<clipPath id="SVGID_4_">
		<use xlink:href="#SVGID_3_"  style="overflow:visible;"/>
	</clipPath>
	<g class="st4">
		<path class="st1" d="M758.5,373.9c0,16-1.1,31.8-3.1,47.2v-94.4C757.4,342.1,758.5,357.9,758.5,373.9"/>
	</g>
</g>
<g>
	<defs>
		<rect id="SVGID_5_" x="201.3" y="193.3" width="93.3" height="44"/>
	</defs>
	<clipPath id="SVGID_6_">
		<use xlink:href="#SVGID_5_"  style="overflow:visible;"/>
	</clipPath>
	<g class="st5">
		<g>
			<defs>
				<path id="SVGID_7_" d="M253.5,231.9c8.7-7.5,14.5-7.4,15.5-9.5c0.9-1.7,0.1-5.3-1.8-7.1c-3.6-3.3-18.3-1.3-24.4-4
					c-4.4-2-7-6.3-9.9-8.1c-2.3-1.4-3.6-2.1-6.3-2.8c-4.5-1.3-14.8-2.3-18.8-1.8c-1.8,0.3-3.1,1.8-4,1.4c-0.8-0.4-2-3-1.3-4
					c1.6-2.1,16.2-2,22.7,0c5.7,1.7,8.2,7.5,14.5,9.7c9,3.1,27,1,35.5,2.6c4.8,0.8,8,1.6,11.2,3.4c3.1,1.7,7,5.3,7.8,7.1
					c0.4,0.8,0.3,1.8,0,2.4c-0.3,0.6-1.1,1.1-1.8,1.3c-0.7,0.1-1.8-0.3-2.3-0.9c-0.4-0.7-0.6-2.4-0.1-3.1c0.4-0.6,1.4-1.1,2.1-1
					c0.9,0.1,2.3,1.1,2.4,1.8c0.1,0.8-1.6,3.1-2.7,3.1c-1.7,0.1-4.3-5-7-6.5c-2.8-1.7-5.5-2.3-9.9-3.1c-8.5-1.7-29.1,0-37.9-3.3
					c-5.5-2-7.2-7-12.2-8.7c-5.8-2-18,0.7-21-0.8c-1.1-0.6-1.6-1.6-1.7-2.3c-0.1-0.7,0.3-1.6,0.9-2.1c0.8-0.9,2.7-1.3,5-1.6
					c4.5-0.4,15.6,0.7,20.6,2.1c3.1,0.9,4.8,2,7.2,3.6c2.7,1.8,4.1,5.5,7.8,7.1c5.5,2.4,19.2,0,23.7,2.3c2.4,1.1,3.4,2.8,4.4,4.8
					c1.1,2.4,2.7,6.1,1.6,9.1c-1.7,4.7-13.2,13.4-16.9,13.8c-1.6,0.1-3.1-0.8-3.6-1.7C252.4,234.2,253.5,231.9,253.5,231.9"/>
			</defs>
			<clipPath id="SVGID_8_">
				<use xlink:href="#SVGID_7_"  style="overflow:visible;"/>
			</clipPath>
			<g class="st6">
				<path class="st1" d="M196.4,188.3h104.2v54H196.4V188.3z"/>
			</g>
		</g>
	</g>
</g>
<g>
	<defs>
		<rect id="SVGID_9_" x="158.7" y="120.6" width="452" height="203.4"/>
	</defs>
	<clipPath id="SVGID_10_">
		<use xlink:href="#SVGID_9_"  style="overflow:visible;"/>
	</clipPath>
	<g class="st7">
		<g>
			<defs>
				<path id="SVGID_11_" d="M283.3,199.2c75,1.1,76.2,2.4,77.3,4c1,1.3,1.4,2.8,1.6,4.3c0.1,1.4,0,3-0.6,4.4
					c-0.6,1.3-1.3,2.7-2.4,3.7c-1.4,1.1-3,1.8-6.3,2.4c-11.2,2-63.4,4.8-75.4-0.7c-5-2.3-6.7-6.1-8.4-9.7c-1.6-3.4-2.7-7.8-1.6-11.2
					c1.3-3.8,6.4-10.2,10.1-10.4c4.5-0.1,8.1,10.4,15.2,13.9c10.7,5.4,35.1,5.8,45.8,9.4c6.1,2,8.1,4.4,13.8,6.5
					c8.8,3.3,25.2,7.5,34.7,9.8c6.5,1.6,10.2,2.4,16.6,3.1c8.2,0.8,21.5-0.1,28.8,1c4.8,0.7,7.8,1.7,11.8,3.1
					c4.1,1.6,8.1,4.7,12.5,6.1c4.7,1.4,9.1,0.8,14.9,2.1c8.2,1.8,20.7,7.4,29.8,9.1c7.3,1.4,11.2,1.4,19.9,1.8
					c15.9,0.7,54.4-2.1,67.9,0c5.8,1,9,1.7,12.4,4.1c3.3,2.3,6.8,5.8,7.8,9.7c1.1,4.4,0.4,11.2-2.7,15.9
					c-4.4,6.5-17.8,12.1-26.7,16.5c-8.4,4.1-16.9,7.5-25.6,9.8c-8.4,2.1-19.3,1.1-25.6,3.6c-4.3,1.6-5.5,4.7-9.7,6.4
					c-6.1,2.4-14.5,3.6-24.7,4.4c-16.6,1.3-51.7,1-66.1-1.3c-7.3-1.1-10.5-3.6-15.9-4.7c-5.5-1.1-11.2-0.6-17.2-2.1
					c-7.2-1.8-15.3-7.1-22.9-9.2c-7-2-12.5-2.7-20.6-3.6c-11.2-1.1-30.8,1-40.3-1.4c-5.8-1.6-8.7-5.3-13.1-6.7
					c-4.1-1.3-6.3-1.1-12.4-1.6c-16.9-1-79.7,2.8-96.1,0.4c-5.7-0.9-7.4-1.6-11.4-3.6c-5.3-2.6-14.2-8.4-17.2-11.8
					c-1.4-1.7-2-3-2.3-4.7c-0.3-1.6-0.1-3.6,0.3-5.1c0.4-1.6,1.4-3.3,2.6-4.4c1.1-1.3,2-2.1,4.4-2.8c6.5-2,26-1.3,39.8-1.3
					c15.1,0,40.1,0.7,47.3,1.7c2.3,0.3,3,0.3,4.3,1c1.6,1,3.6,3.1,4.3,4.8c0.6,1.4,0.7,3,0.6,4.4s-0.6,2.8-1.6,4.1
					c-1.1,1.4-2.4,2.8-5.4,3.7c-8.1,2.4-34.7,1.6-49.7-0.7c-13.1-2-30.3-6.3-35.7-10.5c-2.3-1.7-3-3.8-3.4-5.7
					c-0.4-1.6-0.1-3,0.3-4.4c0.4-1.4,1.1-2.8,2.3-3.8c1.4-1.3,2.7-2,6.1-2.7c14.1-2.8,67.6,2.3,112.3,2.4c65.8,0.3,214-4.5,244.3-3
					c7,0.3,8.5,0.6,12.8,1.4c4.3,0.9,8.4,2.1,12.6,3.8c4.4,1.7,9.5,3.4,13.2,6.5s8.8,8,9,12.2c0.1,4.5-3,11.1-9.5,14.6
					c-18.2,9.9-88,1-133.4,0.7c-47.3-0.3-124.5-2.6-145.1-2.3c-5.5,0-7,0-10.7,0.4c-4.3,0.6-10.2,1.1-13.2,3
					c-2.1,1.3-2.4,4.1-4.3,4.8c-1.7,0.7-4.7,0.3-6.4-0.4c-1.4-0.6-2.6-1.3-3.4-2.6c-1.1-1.4-2.1-4.1-2-6.1c0.1-2,1.4-4.4,2.6-5.8
					c1-1.1,1.6-1.8,3.7-2.3c7-1.7,28.4,3.3,49.6,4.3c37.4,1.7,118.5,1.6,155.6,1.1c20.7-0.3,39.8-3.3,48.3-1.4
					c3.3,0.7,5.1,1.7,6.4,3.3c1.1,1.4,1.4,3.8,1.3,5.4c-0.1,1.3-0.4,2.4-1.3,3.4c-1,1.3-2.4,2.3-4.5,3c-3.7,1.1-10.2,0.8-16.3,0.3
					c-8.1-0.7-17.8-3.8-27.7-5.1c-11.4-1.4-21.6-2.3-36.7-2.8c-23.7-1-64.8-0.6-92.4-0.1c-22.4,0.3-51.3,3.3-60.8,1.7
					c-3-0.4-4.4-1-5.8-2.1c-1.3-0.8-2.1-2.1-2.6-3.6c-0.6-1.7-0.8-4.5,0-6.4c1-2.1,2.6-4.1,6.3-5.5c11.7-4.4,58.5,2.1,83.3-0.4
					c20.2-2.1,38.8-7.2,54.6-11.4c12.2-3.3,22-8,32.3-10.4c9.1-2.1,17.5-1.4,26-4.1c8.9-2.8,20.6-12.8,26.3-13.2
					c2.6-0.1,4.4,0.7,5.8,2c1.4,1.3,2.7,3.6,3,5.4c0.3,2-0.3,4.5-1.3,6.1c-1,1.6-2.1,2.7-5,3.6c-10.5,3.1-54-2.3-80.1-2.7
					c-25-0.4-59.1-3.3-73.3,0c-6.3,1.4-6.7,3.6-12.8,6.1c-14.8,6.3-64.1,28-77,28.7c-4.3,0.3-6.7-0.7-8.7-2.3
					c-1.7-1.4-2.7-4.3-3-6.3c-0.3-1.6,0.1-3,0.7-4.4c0.6-1.4,1.6-2.8,2.7-3.8c1.1-1,1.7-1.6,4.1-2c10.5-2.3,62.4,3,90.7,3.3
					c24.7,0.3,60.1-3.7,69.5-0.8c2.7,0.8,3.7,1.7,4.7,3.3c1.1,1.8,1.3,5.5,0.9,7.4c-0.3,1.3-1.1,2.3-2.1,3.1c-1.3,1-2.3,1.4-5.4,2
					c-16.2,3-137.8,5.3-155.9,0.7c-4.1-1-5.7-2-7.1-3.8c-1.1-1.6-1.7-3.8-1.4-5.8c0.4-2.3,2-5.3,4.5-6.7c4-2.1,11.5,0.3,19-0.7
					c11.1-1.6,30.1-3.8,41.1-9.8c9.4-5.1,18.5-13.1,22.3-21.5c3.6-7.7,3.1-19.5,1.6-25.9c-1.1-4.3-3.6-6.7-6.1-9.9
					c-2.8-3.8-6.4-8.7-10.7-11.2c-4.4-2.6-9.8-3.1-15.8-4c-7.8-1.1-21.5,1.1-27.3-1.3c-3.4-1.4-5.7-4.1-6.7-6.3
					c-0.7-1.6-0.7-3.1-0.4-4.7c0.3-1.4,1-3,1.8-4.3c0.9-1.1,2.1-2.3,3.6-3c1.4-0.7,3,0.3,4.7-1c4.1-3.3,15.6-26.1,13.9-27.8
					c-1.3-1.1-9.4,3.6-13.5,8.1c-6.3,7-19.9,27.3-16.2,33.5c4.3,7.1,39.9-1.7,48.4,1.7c3.7,1.4,5.8,3.6,6.7,6c0.8,2.6-0.1,7-1.3,8.9
					c-0.9,1.4-2.1,2.3-3.4,3c-1.3,0.7-2.1,0.7-4.5,1c-9.8,1-73.2-3.1-73.6-0.1c-0.3,2.4,41.1,9.4,49.3,13.5c3.3,1.6,4.8,2.7,6,4.7
					c1.1,2.1,1.4,5.7,0.4,7.8c-1,2.1-3.1,3.7-6.1,4.8c-5.5,2.1-17.8,1-26.6,1.3c-8.7,0.3-20.6,1.3-25.6,0.7c-2-0.1-3-0.3-4.3-1
					c-1.3-0.7-2.6-1.8-3.4-3c-0.9-1.1-1.4-2.6-1.6-4.1c-0.1-1.8,0.3-4.7,1.6-6.4c1.4-2,3.4-3.1,7.5-4.1c14.2-3.6,88.2-2.3,99.9,1.6
					c2.8,0.9,3.7,1.7,4.7,3.3c1.1,1.8,1.3,5.5,0.9,7.4c-0.3,1.3-1.1,2.3-2.1,3.1c-1.3,1-2.7,2.3-5.3,2c-7.4-0.7-29.4-20.6-42.1-25.3
					c-9.2-3.4-20.9-2.4-25.4-4.3c-1.8-0.7-2.7-1.3-3.6-2.6c-1.1-1.4-2.1-4-2.1-6c0-2,1.3-4.5,2.4-6c1-1.1,2.3-2,3.6-2.4
					c1.3-0.4,2.4-0.6,4.3-0.4c3.6,0.3,9.2,3.6,15.8,4.7c10.2,1.8,33.4,0.4,40.1,3c2.6,1,3.8,2.1,4.8,3.7c1,1.6,1.3,4.1,1.1,5.8
					c-0.1,1.4-0.6,2.7-1.6,3.8c-1.1,1.3-2.3,2.3-5.1,3.1c-10.2,2.8-70.9-6.4-74.5,0c-1.6,2.7,3.6,7.7,7,11.7
					c5.1,6,14.4,13.6,23,18.8c9.1,5.4,25.7,7.7,30.8,12.1c2.4,2,3.6,4.3,3.7,6.4s-1.6,5.3-3.1,6.7c-1.4,1.1-3.3,1.8-5.4,1.6
					c-3.6-0.3-7.8-5.5-13.6-7.1c-8.8-2.4-30,0.1-35.5-1.4c-1.8-0.6-2.6-1-3.6-2c-1.1-1.3-2.6-3.7-2.7-5.5c-0.1-1.8,0.6-4.4,1.6-5.8
					c0.7-1.3,1.3-2,3.1-2.7c5.3-2.3,35.2-4.7,35.7-3.1c0.3,0.8-6.8,4.8-9.9,5.1c-2.7,0.3-6.1-1.1-8-2.4c-1.3-1-2-2.4-2.6-3.8
					c-0.6-1.4-0.7-3.1-0.4-4.7c0.3-1.4,0.9-3.1,1.7-4.3c0.8-1.3,1.4-2.3,3.6-3c8-2.8,62.9,2.3,63.1,0.7c0.1-0.9-12.6-2.1-16.2-4
					c-2.1-1.1-3.3-2.1-4.3-3.8c-1.3-2.1-2.4-6-1.7-8.4c0.7-2.4,2.3-4.5,6-6.1c13.1-5.5,88.1,3.4,104.3,0.1c5.3-1.1,10.1-2.6,9.9-4.3
					c-0.3-3.7-34.8-11.5-51.6-14.1c-15.3-2.4-37.7,0.6-44.9-1.8c-2.6-0.8-3.8-2-4.8-3.4c-0.9-1.1-1.1-2.6-1.3-3.8
					c-0.1-1.3,0-2.7,0.6-4c0.7-1.6,1.3-3.3,4-4.4c11.1-4.8,93.6-2.3,102.9,1.3c1.7,0.7,2,1.3,2.6,2.3c0.7,1.1,1.3,3.3,1.1,4.7
					c0,1.1-0.4,2.3-1.1,3.1c-0.9,1.1-1.8,2.1-4.1,2.8c-7.5,2.4-40.9-0.6-52.6,0.3c-5.8,0.4-9.7,2.1-12.9,1.8c-2.1-0.3-3.7-0.7-5-1.8
					c-1.3-1.1-2.3-3-2.4-4.7c-0.1-1.6,0.3-3.7,1.3-5.1c1.3-1.6,2.7-2.4,6.1-3.3c11.5-2.7,70.6-1.7,80.6,1.6c2.6,0.9,3.4,1.8,4.3,3
					c0.7,1,1,2,1.1,3.1c0.1,1.4-0.3,3.7-1.1,5c-0.9,1.3-2,2.1-4.3,2.8c-6,1.8-23.2-2.1-35.2,0c-13.4,2.4-33,11.2-41.2,15.1
					c-3.7,1.7-5.4,3.8-7.8,4.4c-1.7,0.4-3.4,0.6-4.8,0c-1.4-0.6-3-1.7-3.7-3.1c-0.7-1.6-0.7-4.5,0-6.3c0.6-1.4,1.7-3,3.6-3.3
					c3.8-0.6,13.4,7.5,19.9,9.7c5.8,1.8,10.1,2.1,17.1,3c10.9,1.3,30.1,2.6,42.3,2.7c9.2,0.1,19.8-2.1,24.3-0.7
					c2.1,0.7,3.3,1.7,4.1,3.1c0.9,1.3,1.3,3.4,1.1,5c-0.1,1.6-1.3,3.6-2.4,4.5c-1.3,1.1-2,1.3-4.8,1.8
					c-14.2,2.6-119.5,2.1-133.3-0.4c-2.7-0.4-3.4-0.7-4.5-1.7c-1.1-1-2.1-2.8-2.3-4.4s0.3-3.4,1.1-4.7c0.9-1.3,1.6-1.7,4.1-2.7
					c12.2-4.5,92.6-10.1,116.8-15.5c11.2-2.6,18.6-8,24.2-7.8c3,0,5.4,1.3,6.7,2.4c0.9,0.7,1,1.8,1.1,2.8c0.1,1.3-0.1,3.3-1,4.4
					c-0.9,1.1-2,2.4-3.7,2.6c-3.4,0.1-10.5-7.3-15.9-9.1c-5-1.7-9.9-1.7-15.5-2.3c-6.1-0.7-11.5-1.4-19.8-1.7
					c-13.5-0.6-45.9,2.6-53.6,0c-2.4-0.9-3.4-1.7-4.3-3.1c-0.9-1.4-1.4-3.6-1.3-5.1c0.1-1.7,1.4-3.7,2.6-4.7
					c0.9-0.9,1.3-1.1,3.1-1.6c11.5-2.7,115.8-2,129.3,0.4c2.6,0.4,3.4,0.6,4.5,1.7c1.3,1.3,2.3,4.1,2.1,5.8c-0.1,1.6-1,3.3-2.1,4.3
					c-1.1,1-2.1,1.3-4.5,1.7c-8.7,1.7-40.5-1.7-60.5,1.6c-20.6,3.3-50.3,12.5-61.2,18.6c-4.7,2.6-6.3,7.2-8.8,7.8
					c-1.7,0.3-3.4-0.6-4.5-1.4c-1.1-0.9-2.1-2.7-2.6-4c-0.3-1.1-0.3-2.1,0.1-3.3c0.4-1.3,1.1-3.3,3-3.8c4-1.4,14.2,4.3,24,5.7
					c14.9,2.3,49.7,0.7,57.4,3.6c2.1,0.9,3,1.6,3.7,2.8c0.7,1.3,1,3.3,0.9,4.5c-0.1,1.1-0.6,2.1-1.3,3c-0.8,1-1.6,1.7-4,2.4
					c-10.9,3.1-86.5,3.7-98.5,1.4c-2.8-0.6-3.7-0.9-5-2c-1.3-1.1-2.3-3-2.6-4.7c-0.3-1.7,0.1-3.8,1.3-5.3c1.3-1.6,3-2.6,6.3-3.3
					c8.8-2.1,44.8-1.4,52.3,0.8c2.3,0.7,3.3,1.6,4.1,2.7c0.7,0.8,1,2,1.1,3.1c0.1,1.1,0.1,2.3-0.3,3.4c-0.6,1.3-1.1,2.7-3.4,3.7
					c-8.9,4.1-68.8,4.4-79.9,2.8c-3-0.4-4.1-0.6-5.5-1.8c-1.7-1.6-3.7-5.3-3.6-7.7c0.1-2.6,2.3-6,4.4-7.3c2.1-1.3,6.1-1.4,8.4-0.4
					c2.3,1,4.8,4.3,5.3,6.7c0.4,2.4-1,6.4-2.8,8.1c-1.8,1.7-5.7,2.8-8.1,2.3c-2.4-0.6-5.5-3.3-6.4-5.5c-0.9-2.3-0.6-6.4,0.9-8.4
					c1.4-2.1,3.6-3,7.5-4c12.4-2.8,70.9-1.3,79.9,2.8c2.3,1,2.8,2.4,3.4,3.7c0.4,1,0.4,2.3,0.3,3.3c-0.1,1.1-0.4,2.3-1.1,3.1
					c-0.8,1.1-1.8,2.1-4.1,2.8c-7.5,2.4-44.2,2.4-52.3,0.9c-2.6-0.4-3.7-0.9-5-2c-1.3-1.1-2.3-3-2.6-4.7c-0.3-1.7,0.1-3.8,1.3-5.3
					c1.3-1.6,3.1-2.6,6.3-3.3c8.1-1.8,29.6,1.4,45.2,1.6c16.8,0.1,44.8-2.4,52.4-0.9c2.3,0.4,3.3,0.9,4.3,1.8c1,1,1.7,2.8,1.8,4.3
					s-0.4,3.4-1.3,4.5c-0.8,1.1-1.7,1.8-4,2.4c-8.1,2-45.8-2-60.3-4.5c-8.4-1.4-15.9-3.4-19.6-5.5c-1.8-1-2.7-2-3.4-3.3
					c-0.7-1.4-1.1-3.1-0.4-4.8c1.3-3.1,5.7-7.1,11.7-10.5c12.5-7.1,43.3-16.1,64.9-19.8c20.5-3.4,51.7-4.7,61-2.6
					c3,0.7,4.5,1.4,5.5,3s1.1,4.5,0.7,6.1c-0.3,1.1-0.8,2-1.7,2.7c-1.1,0.9-2,1.3-4.5,1.7c-13.5,2.4-113.7,3.1-127.6,0.7
					c-2.8-0.6-3.7-0.7-5-1.8c-1.3-1.1-2.3-3-2.4-4.7c-0.1-1.6,0.3-3.8,1.3-5.1c1-1.4,1.8-2.3,4.4-3c9.7-2.7,57.4-1,75.7,3.4
					c11.2,2.7,20.6,10.5,25.7,11.9c2,0.6,3.1-0.1,4.4,0.6c1.4,0.8,3.1,3.1,3.4,4.7c0.3,1.4-0.1,3.3-1,4.4c-0.9,1.1-1.8,1.7-3.7,2.6
					c-4.7,2.1-14.6,4.7-25.7,6.8c-19.5,3.8-60.5,7.4-82,10.9c-14.1,2.3-28.7,7.4-34.8,6.8c-2.3-0.1-3.4-0.7-4.5-1.7
					c-1.1-1-2.1-2.8-2.3-4.4s0.1-3.4,1.1-4.7c1.1-1.4,2.4-2.1,5.7-3c15.1-3.7,119.2-3,133.4-0.4c2.8,0.6,3.7,0.7,4.8,1.8
					c1.3,1.4,2.4,4.4,2.3,6.4c-0.1,1.7-1.3,3.6-2.4,4.5c-1.3,1.1-2.3,1.4-4.8,1.8c-9.4,1.4-51-1.7-67.1-3.8
					c-9.1-1.3-16.2-1.7-21.3-4.5c-3.8-2-5.7-7.1-8.2-8.1c-1.7-0.7-3.4,0.6-4.8,0c-1.4-0.6-3-1.7-3.7-3.1c-0.7-1.6-0.7-4.5,0-6.3
					c0.6-1.4,1.4-2,3.6-3.3c7.2-4.4,37.5-17.6,53.9-20.6c12.8-2.4,29.4-2,35.4-0.1c2.3,0.7,3.4,1.7,4.3,3c0.9,1.3,1.3,3.4,1.1,5
					s-1.1,3.4-2.3,4.4c-1.1,1-2.1,1.4-4.8,1.8c-10.7,1.8-74,1.4-82.3-1.7c-1.7-0.7-2-1.3-2.7-2.3c-0.9-1.3-1.4-3.6-1.3-5.1
					c0.1-1.7,1.3-3.6,2.4-4.7c0.9-0.8,1.4-1.3,3.3-1.7c6.8-1.8,39.4-1.8,51.6-1.7c6.7,0,12.5-0.1,15.6,0.7c1.4,0.4,2.1,0.7,3,1.6
					c1.1,1.3,2.3,4.3,2.3,6c0,1.1-0.4,2.3-1.1,3.1c-0.9,1.1-1.7,2-4.1,2.8c-10.9,3.6-87,3-97.8,1.7c-2.1-0.3-2.7-0.3-3.8-1
					c-1.4-0.9-3.3-2.8-3.8-4.5c-0.6-1.7-0.6-4.3,0.1-6c0.7-1.7,1.7-3.4,4-4.4c5.5-2.3,22,0.3,33.4,1.4c11.9,1.3,24,2.8,36.2,6.1
					c13.4,3.6,35,7.4,40.6,14.8c3.6,4.5,3.4,12.5,1.7,16.5c-1.4,3.3-5.1,5.1-8.5,7c-4.1,2.1-7.7,3.4-15.1,4.5
					c-19.2,3.1-93.3,7.1-105.4,2.4c-3-1.1-3.8-2.8-4.7-4.5c-0.7-1.3-0.8-2.8-0.8-4.3c0-1.4,0.4-3,1.3-4.3c1-1.6,3.1-3.4,5.1-4
					c2-0.6,4.3-0.4,6.5,0.3c3,1,6,4.3,9.7,6.1c4.3,2.1,11.7,1.7,14.5,5.3c3.1,3.7,4.7,12.8,2.6,17.2c-2.3,4.5-9.1,7.1-16.6,9.2
					c-13.4,3.7-49.7,3.6-59.4,1.8c-3.3-0.6-4.8-1.1-6.4-2.6s-2.7-4-3-6.1c-0.3-2.1,0.4-5,1.7-6.7c1.3-1.7,3-3,5.7-3.7
					c5.3-1.4,18-1.4,24.6,1.3c5.5,2.3,12.1,7.4,13.2,11.7c1,3.6-0.3,8.4-3.6,11.4c-6,5.5-28.3,7.5-38.5,8.7
					c-6.5,0.7-12.6,1.3-16.3,0c-2.3-0.7-3.8-2.1-4.8-3.7c-1-1.6-1.7-4-1.4-5.8c0.3-1.8,1.6-4.1,3-5.4c1.4-1.3,2.8-1.6,5.7-2
					c6.8-1,27.3-1,36.5,1.8c6.4,2,11.9,6.3,15.1,8.9c1.7,1.6,2.8,2.7,3.4,4.4c0.6,1.7,0.1,4.1-0.4,5.7c-0.4,1.3-1.3,2.3-2.4,3
					c-1.7,1-4,1.7-7.2,1.3c-7.1-0.9-23.2-8.7-33.3-14.5c-9.5-5.5-18.9-12.5-26-19c-5.8-5.4-12.9-10.8-14.1-16.8
					c-1-5.4,2.3-13.2,5.7-17c3-3.4,6.5-4.4,12.6-5.7c14.2-3.1,62.7-3.6,74-0.6c3.7,1,5.5,2.1,6.8,4c1.1,1.6,1.3,4.1,1.1,5.8
					c-0.1,1.4-0.6,2.7-1.6,3.8c-1.1,1.3-2.4,2.4-5.1,3.1c-7.4,1.8-33.1-1-44-2.7c-6.5-1-12.4-2.6-15.6-4.1c-1.7-0.9-2.7-1.3-3.6-2.6
					c-1.1-1.8-2.4-5.7-1.8-8.1s2.8-5.3,5.7-6.3c4.4-1.6,13.6,1.1,19.8,2.6c5.4,1.3,10.4,2.7,14.8,5c4,2.1,6.7,5.7,10.7,8
					c4.4,2.6,10.9,3.6,14.8,6.4c3.1,2.4,4.7,6.5,7.2,8.7c2.1,1.7,5.3,1.7,6.5,3.4c1.1,1.4,1.6,3.8,1.3,5.5c-0.3,1.7-1.3,3.8-2.6,5
					c-1.3,1.1-2.3,1.4-5.3,2c-12.2,2.3-86.7,2.6-97.9,1.3c-2.4-0.3-3-0.3-4.3-1c-1.3-0.7-2.6-1.8-3.4-3c-0.9-1.1-1.4-2.6-1.6-4.1
					c-0.1-1.8,0.3-4.7,1.6-6.4c1.4-2,3.7-3.1,7.5-4.1c9.5-2.4,45-2.4,53.1,0.3c2.7,1,3.8,2.3,4.8,3.7c0.9,1.1,1.3,2.4,1.1,3.8
					c-0.1,2-1.4,5.8-3.1,7.2c-1.4,1.3-3.6,1.8-5.8,1.7c-3.6-0.1-7.4-3.4-13.4-5.3c-11.2-3.4-41.3-2.8-49.3-10.9
					c-5.4-5.4-6.4-16.8-4.8-22c1-3.7,4.7-6,7.8-8c3.4-2,6.1-2.8,11.9-3.7c14.1-2.1,62-3.3,74-0.3c4.3,1,6.4,2.4,8,4.3
					c1.1,1.3,1.4,2.8,1.6,4.4c0.1,1.4,0,3.1-0.6,4.5c-0.6,1.4-1.6,2.8-2.7,3.8c-1.1,1-2,1.6-4.1,2.1c-6.4,1.6-29.4,0.7-39.5,0.4
					c-6.1-0.1-10.5,0.3-14.9-0.9c-4-1.1-8.2-2.6-10.8-5.4c-2.6-2.8-4.4-6.3-4.4-11.5c-0.1-11.1,10.1-43.2,19-52
					c5.4-5.4,13.5-6,19.2-6.8c4.1-0.7,7.1-0.6,11.2,0.3c5.3,1,14.1,2.8,17.8,6.5c3.1,3.1,4.4,8.5,4.4,12.6c0,3.8-1.4,6.8-3.8,10.9
					c-4,6.7-14.6,18.2-20.7,23.6c-3.8,3.4-7.2,7.3-10.5,7.4c-2.7,0.1-6.3-2.6-7.8-4.4c-1.1-1.3-1.4-2.8-1.6-4.4
					c-0.1-1.6,0.1-3.3,0.7-4.7c0.6-1.4,1.4-2.7,2.7-3.7c1.6-1.1,3.6-1.8,6.5-2.3c6-0.8,19.2,0.7,27.1,1.7c6.4,0.8,12.2,1.3,16.9,3.3
					c3.8,1.6,6.3,3.8,9.4,6.4c3.7,3.1,8,6.3,11.2,11.1c4.3,6.3,9.5,15.9,10.8,24c1.1,7.8-1,17.2-2.8,23.9c-1.4,5.1-2.3,8.5-5.8,13.1
					c-5.7,7.3-17.5,17.5-29,23.3c-12.9,6.7-34,11.2-45.6,12.8c-7,1-13.2,1.3-17.2,0c-2.4-0.7-4-2.1-5.1-3.6
					c-0.9-1.1-1.3-2.4-1.4-3.8c-0.1-1.7,0.1-4.4,1.4-6c1.4-1.8,3-2.7,7.1-3.7c18.2-4.4,138.3-3.6,155.9,0.7c3.8,1,5.4,1.7,6.7,3.4
					c1.1,1.4,1.6,3.8,1.3,5.5c-0.3,1.7-1.3,3.8-2.6,5c-1.3,1.1-2.6,1.6-5.4,2c-9.8,1.7-45.3-1.1-67.5-1c-21.7,0.1-48,2-64.4,2.1
					c-10.1,0.1-19,0.9-24.4-0.3c-2.8-0.6-4.8-1-6.4-2.6c-1.7-1.8-2.8-6.3-2.8-8.5c0-1.7,0.9-3.1,1.7-4.3c0.9-1.1,1.8-2,3.6-2.8
					c3-1.4,9.1-1.6,13.4-3.1c4.3-1.6,6.4-4.3,11.9-6.5c10.7-4.4,39.4-9.8,49.4-13.9c4.7-2,4.3-4,9.9-5.5
					c21.2-5.7,143.5-6.4,162.3-2.1c4.1,1,5.8,1.8,7.2,3.6c1.3,1.6,1.7,4.1,1.7,6c0,1.4-0.6,2.8-1.4,4c-1,1.4-2.8,2.6-5,3.6
					c-3,1.4-7.8,1.4-11.9,3.1c-4.8,2-9,6.8-14.6,8.7c-6.7,2.1-15.1,0.6-23.4,2.3c-10.4,2.1-21.2,7.1-34.1,10.9
					c-16.6,4.8-36.4,12.6-57.4,15.3c-24.6,3.1-69.9,1.7-81.3-0.3c-3.1-0.6-4.4-1-5.8-2.1c-1.3-0.8-2.1-2-2.6-3.6
					c-0.6-2.1-0.3-6.3,1.1-8.2s3-3,7.2-4c18-4.4,126.2,2.3,153.7,2.8c10.2,0.3,12.6,0,20.9,0.6c11.8,0.9,32,4.7,42.9,5.5
					c6.7,0.4,12.6-0.9,16.3,0.3c2.1,0.7,3.6,1.6,4.5,3c1,1.4,1.6,3.7,1.3,5.4c-0.3,1.7-1.3,3.6-2.6,4.7c-1.3,1.1-2.4,1.6-5.1,2
					c-7.8,1.4-28.7-1.3-48.3-1.4c-30.1-0.1-82.3,1.7-114.9,1.8c-24.3,0-47-0.1-63.4-0.7c-10.4-0.4-20.7-0.4-25.6-1.6
					c-2-0.4-2.8-0.6-4-1.7c-1.6-1.6-3.6-5.3-3.6-7.7c0-2.1,1.1-4,2.6-5.8c1.7-2.1,3.8-4.4,7.1-5.8c4.7-2.1,10.7-2.1,19.6-2.8
					c19.3-1.4,64.4,0.6,92.2,0.1c23.2-0.3,40.9-1.7,63.5-2c25.9-0.3,61.4,1.3,83.3,0.8c14.3-0.3,28.7-5,35.4-1.6
					c3.8,1.8,7.1,8.8,6.5,9.5c-0.7,0.7-6.4-3.7-10.5-5.3c-5.4-2-12.8-3.8-19.5-4.7c-6.7-0.9-11.9-0.4-20.6-0.6
					c-14.6-0.1-37.4,0.7-59.3,0.4c-27.3-0.3-63.2-2.3-92.1-2.7c-25.6-0.4-45.5-0.6-72.2-0.1c-33.5,0.4-99.8,6.8-113.4,3.3
					c-3.3-0.9-4.4-1.8-5.7-3.4c-1.3-1.7-2.1-4.3-2-6.4c0.1-2,1.3-4.5,2.7-6c1.4-1.4,3.6-2.4,6.1-2.7c4.1-0.4,11.2,2,16.3,3.8
					c5,1.8,8,5.5,14.3,7c11.4,2.6,41.5-3.3,49.4-0.9c3,0.9,4.3,2.3,5.4,3.7c1,1.3,1.4,2.7,1.6,4.1c0.1,1.4,0,3.1-0.6,4.4
					c-0.6,1.3-1.3,2.6-2.4,3.6c-1.4,1.1-2.8,1.7-6.1,2.4c-12.1,2.4-76.4,6-88,1.4c-3.4-1.3-4.5-3.1-5.5-5.3c-1-2.1-1.3-5.4-0.6-7.7
					c0.7-2.3,2.6-4.8,4.5-6.1c2-1.3,4.5-2,7.5-1.4c5,1,9.5,9.5,18.9,12.4c19.5,6,81.8,0.6,97.9,2.1c5.3,0.6,7,0.4,10.5,1.8
					c4.5,1.7,7.2,6.5,14.1,8.8c13.4,4.5,49.4,3.3,64.7,6.7c8.5,1.8,12.8,5.4,19.5,6.8c6.7,1.4,14.9,0.4,20.6,1.7
					c4.4,1,7.1,3.4,11.1,4.1c4.4,0.7,8.1,0,14.5-0.1c12.9-0.4,43.3,0.3,58.7-2.8c10.4-2.1,17.2-7.3,25.3-9.1
					c7.1-1.6,13.5-0.6,20.3-2.1c7.1-1.6,14.5-4.4,21.3-7.4c7-3,20.6-8.2,20-10.8c-1.1-4.7-59.8,1-81.7-2.4
					c-15.2-2.3-27-8.4-37.8-10.7c-8-1.6-14.5-0.9-20.9-2.7c-6.1-1.8-9.5-6-16.8-8.1c-11.9-3.4-34.1-3-49.4-5.7
					c-13.6-2.4-29.8-5.7-38.4-8.8c-4.5-1.6-5.4-3.6-9.9-5c-8.8-2.8-30.5-3.4-40.6-6.5c-6.5-2-10.5-3.7-15.3-7.4
					c-6-4.5-15.1-12.9-16.8-19.6c-1.3-5.5,0.9-13.6,3.8-16.8c2.4-2.6,7.2-3.6,10.7-3c3.6,0.6,8.1,2.8,10.2,6.5
					c3.1,5.4,3.6,18.2,1.7,25.4c-1.6,6.3-5.4,13.6-9.9,16.1c-4.1,2.3-12.4,2-15.6-0.6c-3.1-2.4-5-10.2-3.8-13.8
					c1-3.1,5.1-5.8,8.4-7.2c3.1-1.4,5.5-1.3,10.8-1.7c14.1-1.1,68.2-2.8,77.7-0.4c2.3,0.6,2.8,1,4,2.1c1.3,1.4,2.8,3.8,3,6
					c0.1,2.4-1.3,6.4-3,8.1c-1.6,1.6-3,1.8-6.3,2.4c-10.8,2-61.5,2.7-71.8-0.4c-3.1-1-4.4-2-5.5-3.7c-1.1-1.7-1.8-4.4-1.6-6.4
					c0.3-2.1,1.6-4.5,3.1-6C278.8,200.1,283.3,199.2,283.3,199.2"/>
			</defs>
			<clipPath id="SVGID_12_">
				<use xlink:href="#SVGID_11_"  style="overflow:visible;"/>
			</clipPath>
			<g class="st8">
				<path class="st1" d="M153.6,115.8h461.3V328H153.6V115.8z"/>
			</g>
		</g>
	</g>
</g>
<g>
	<defs>
		<rect id="SVGID_13_" x="324" y="165.5" width="267.3" height="150.5"/>
	</defs>
	<clipPath id="SVGID_14_">
		<use xlink:href="#SVGID_13_"  style="overflow:visible;"/>
	</clipPath>
	<g class="st9">
		<g>
			<defs>
				<path id="SVGID_15_" d="M376.7,232.8c27.8-9.9-20.6-14.3-32.4-17.9c-5.1-1.6-8-2.7-10.5-4.4c-1.8-1.3-3-2.1-4.3-4
					c-1.8-2.6-4.3-6.7-5-10.2c-0.7-3.6-0.6-7.8,0.4-11.4c1-3.6,3.6-7.5,5.5-9.9c1.4-1.7,2.4-2.6,4.4-3.7c2.7-1.6,5.8-2.8,10.8-3.7
					c9.7-1.6,31.1-1.3,44-0.1c10.4,1,18.5,4,27.7,5.3c9.4,1.3,19.2-2,28.1,2.3c11.5,5.5,32,23.6,32,34.1c0,9-15.2,18.8-23.4,25
					c-7.1,5.4-13.8,6.3-22.4,11.4c-13.1,7.7-36.7,22.6-47,32.1c-6.3,5.7-8.7,11.8-12.9,15.6c-3.3,3-6.8,5.1-9.8,6.4
					c-2.1,0.9-3.6,1.3-5.8,1.4c-3.1,0.1-8.5-0.6-11.5-1.6c-2.1-0.7-3.4-1.4-5.3-2.8c-2.6-2-6-5.5-7.7-9c-1.7-3.4-2.6-7.5-2.6-11.4
					c0-3.8,1.6-8.5,3-11.4c1-2,2.6-2.4,3.4-4.8c1.7-4.5-0.1-15.1,1.6-22.3c1.7-7.2,4.5-15.3,9.1-21.2c4.4-5.5,9.8-10.1,17.2-13.1
					c9.8-4,24.6-4.7,37.9-4.4c14.9,0.3,33,3.8,47.2,7.1c12.1,2.8,25,4.8,33.1,10.7c6.7,4.7,11.5,11.7,13.9,18.6c2.4,7,3,15.6,1,23.2
					c-2.1,8.2-7.4,17-14.6,23.7c-8.8,8.1-25.2,15.5-36.9,18.9c-9.7,2.7-26.9-0.3-27.8,2.3c-0.4,1.1,4.4,3.4,4,4.7
					c-0.6,1.7-7.7,3.3-11.5,3.4c-3.8,0.1-8.8-1.1-11.8-2.3c-2.1-0.9-3.4-1.6-5.1-3.1c-2.4-2.1-5.7-6.1-7.3-9.7
					c-1.6-3.6-2.1-8.5-2.1-11.8c0-2.3,0.4-3.8,1.3-6c1.3-3,4.1-7.8,6.3-10.2c1.6-1.7,2.3-2.8,4.8-3.7c5.8-2.1,19.5-1,32.5-1.1
					c20-0.1,62.1-1.8,75.7,1.6c5.4,1.4,8.2,3.6,10.8,5.5c1.8,1.4,2.8,2.8,4,4.5c1.1,1.7,2.1,3.1,2.8,5.4c1,3.1,2,8.2,1.4,12.1
					c-0.6,3.8-2.7,8.4-4.4,11.2c-1.1,2-2.4,3.3-4,4.5c-1.4,1.3-2.8,2.4-5,3.4c-3,1.4-7.5,4.1-11.8,3c-7.4-2-21.6-16.3-25.6-25.4
					c-3.1-7.1,2.1-16.2-1-22.5c-3.4-6.7-14.1-8.5-19.8-15.8c-7.2-9.1-20.3-26.6-17.3-36.7c3.4-11.1,29.4-21.6,42.5-25.4
					c9.7-2.8,17.5-2.7,27.1-1.1c11.8,2,28.6,7.5,37.8,14.6c7.5,5.8,12.4,16.2,15.6,21.7c1.8,3.1,2.7,4.7,3.6,7.5
					c1.1,3.6,2.3,8.2,1.8,12.2c-0.4,4-2.4,8.8-4.1,11.8c-1.1,2.1-2.1,3.3-4,4.8c-2.6,2.1-7.7,5-10.9,6.1c-2.3,0.7-3.7,1-6.1,0.9
					c-3.4-0.1-8.5-0.9-12.2-2.6c-3.6-1.7-5.3-5.4-9.5-8c-6.5-4-21.3-4.3-27.4-11.4c-7-8.1-12.5-26.4-9.4-36.9
					c3.1-10.5,18.6-21.9,28.6-26c7.8-3.3,15.5-0.7,24.2-1c9.9-0.3,23.9-1.3,32.1-0.3c5.1,0.6,8.8,1.1,12.5,3c3.7,2,7.2,5.1,9.7,8.5
					c2.4,3.4,4,8.5,4.5,11.9c0.4,2.4,0.4,4.1,0,6.5c-0.6,3.4-2.7,9-4.5,11.9c-1.3,2.1-2.3,3.4-4.3,5c-2.7,2.1-5.8,4.5-11.4,6
					c-11.7,3-46.9,1.4-57.4,0.6c-4.1-0.3-5.7-0.6-8.4-1.4c-2.7-0.8-5.4-2.3-7.7-4c-2.3-1.7-4.4-3.8-6-6.3c-1.6-2.3-2.8-5.1-3.6-7.8
					c-0.7-2.7-1.1-5.8-1-8.7c0.1-2.8,0.9-5.8,1.8-8.4c1.1-2.7,2.7-5.3,4.5-7.4c1.8-2.1,4.1-4.1,6.5-5.5c2.4-1.4,5.3-2.6,8-3.1
					c2.8-0.6,5.8-0.8,8.7-0.6c2.8,0.3,5.7,1.3,8.2,2.4c2.6,1.3,5.1,2.8,7.1,4.8c2.1,2,4,4.3,5.3,6.8c1.3,2.4,2.3,5.3,2.7,8.1
					c0.4,2.8,0.4,5.8,0,8.7c-0.4,2.8-1.4,5.5-2.7,8.1c-1.3,2.6-3.1,5-5.3,7c-2,2-4.5,3.7-7.1,4.8c-2.6,1.1-5.4,2-8.2,2.3
					c-2.8,0.3-5.8,0-8.7-0.6c-2.7-0.6-5.5-1.7-8-3.1c-2.4-1.4-4.7-3.4-6.5-5.5c-1.8-2.1-3.4-4.7-4.5-7.4c-1-2.6-1.7-5.5-1.8-8.4
					c-0.1-2.8,0.3-6,1-8.7c0.7-2.7,2-5.5,3.6-7.8c1.6-2.4,3.7-4.5,6-6.3c2.3-1.7,5-3.1,7.7-4c2.7-0.9,4.3-1.1,8.4-1.4
					c10.5-0.9,45.8-2.3,57.3,0.6c5.5,1.4,8.2,3.3,11.4,6c3.1,2.7,6,7.4,7.4,10.5c1,2.3,1.4,3.8,1.6,6.3c0.3,3.6-0.1,9-1.6,12.8
					c-1.4,4-4.8,8.2-7.3,10.7c-1.7,1.7-3,2.6-5.3,3.6c-3.1,1.4-7,2.4-12.5,3.1c-10.7,1.4-45.3,5.7-47.7,0.4
					c-1.8-4,11.4-20.5,18.5-21.7c6.8-1.3,19,8.7,23,12.5c2,1.8,2.3,3.3,3.1,5.5c1.1,3.3,2.3,8.2,1.8,12.2c-0.4,4-1.8,8.4-4.1,11.8
					c-2.1,3.4-5.5,6.5-9.1,8.5c-3.6,2-8,3.1-11.9,3.3s-9.1-1.3-12.2-2.6c-2.3-0.9-3.7-2.1-5.3-3.4c-1.6-1.3-3.4-3-4.3-4.5
					c-0.7-1.3,0-2.4-1-3.8c-2.4-3.6-11.7-10.9-18.5-13.8c-6.8-2.8-19.5,1-22.7-3.6c-3.6-5,0.3-25.2,4.5-27c3.8-1.6,12.4,7.2,18,12.4
					c6.3,5.7,13.1,12.4,17.3,21c5.1,10.4,12.4,35.9,8.7,38.5c-3.1,2.1-24.7-15.3-24.2-16.6c0.3-0.7,8.7,1.7,11.7,3
					c2.1,1,3.4,1.7,5.1,3.4c2.3,2.3,5.4,6.3,6.8,9.9c1.4,3.7,1.8,8.2,1.4,12.1c-0.4,3.8-2.6,8.4-4.3,11.2c-1.3,2-2.6,3.3-4.1,4.5
					c-1.6,1.3-2.8,2.4-5,3.4c-3,1.4-6.5,2.4-11.8,3c-10.4,1.3-33.1,0.9-46.9-0.7c-11.1-1.3-23.9-6.7-29.8-6.1
					c-2.7,0.3-3.3,1.8-5.5,2.4c-3.1,0.7-8.1,1.3-11.9,0.6c-3.8-0.7-8-2.6-10.9-5c-3-2.4-5.7-6.1-7.3-9.7c-1.6-3.6-2.4-8-2.1-11.8
					c0.3-3.8,1.8-8.1,3.8-11.4c2.1-3.3,8.8-8.1,8.5-8.5c-0.1-0.1-3.1,1.4-3.1,1.6c0.1,0.3,21.3-10.8,32.1-12.5
					c10.2-1.6,30.7,2.6,30.8,2c0.1-0.7-24.9-5.8-36.7-6.8c-10.9-0.9-26.6-4.3-31.7,0.7c-4.3,4.1,1.1,15.5-1.3,22.6
					c-2.6,7.4-10.4,16.8-14.1,20.7c-1.7,2-2.6,2.7-4.5,3.8c-2.7,1.6-7.2,3.6-10.9,4c-3.8,0.4-8.7-0.6-11.7-1.6
					c-2.1-0.7-3.4-1.4-5.3-2.8c-2.6-2-6-5.5-7.7-9c-1.7-3.4-2.6-7.5-2.6-11.4c0-3.8,1.4-8,3-11.4c1.4-3.3,2.8-5.4,5.7-8.7
					c4.5-5.4,12.1-12.2,21-19.2c13.4-10.5,37.4-28,53.3-35.2c11.2-5.1,28.4-11.7,31-8.5c2.4,3.1-7.1,22.6-15.1,26.6
					c-9,4.4-24.9-4.7-38.2-5.5c-14.5-1-35.8,2.4-45.5,0.6c-4.8-1-7.5-2.3-10.5-4.4c-3-2.3-5.8-5.5-7.4-8.8
					c-1.6-3.3-2.4-7.4-2.3-11.1c0.1-3.7,1.1-7.7,3-10.9c1.8-3.3,4.7-6.4,7.8-8.4c3.1-2,7.7-3.3,10.8-3.7c2.1-0.3,2.8-0.3,5.7,0.1
					c8.8,1.3,38.9,9.1,53.4,15.1c10.7,4.4,19.2,7.8,26.6,14.8c7.8,7.4,17.1,18.8,18.2,28.7c1,9.5-4.5,22.6-10.7,29.6
					c-5.7,6.4-15.2,8.5-23.4,11.8c-8.7,3.4-21.7,7-27.4,8.1c-2.4,0.6-3.3,0.9-5.4,0.7c-2.8-0.1-7.7-1.1-10.4-2.3
					c-1.8-0.9-3-1.6-4.4-3c-2-2-4.8-5.5-6.1-8.7c-1.3-3.3-1.8-7.1-1.6-10.5c0.3-3.4,2.3-7.5,3.7-10.1c1-1.7,1.8-2.7,3.4-4
					C369.6,236,376.7,232.8,376.7,232.8"/>
			</defs>
			<clipPath id="SVGID_16_">
				<use xlink:href="#SVGID_15_"  style="overflow:visible;"/>
			</clipPath>
			<g class="st10">
				<path class="st1" d="M318.4,161.7H596v159.1H318.4V161.7z"/>
			</g>
		</g>
	</g>
</g>
<g>
	<defs>
		<rect id="SVGID_17_" x="166.7" y="170.7" width="356.9" height="129.3"/>
	</defs>
	<clipPath id="SVGID_18_">
		<use xlink:href="#SVGID_17_"  style="overflow:visible;"/>
	</clipPath>
	<g class="st11">
		<g>
			<defs>
				<path id="SVGID_19_" d="M483.7,220.6c-12.1-12.2-18.6,1.7-29.3,10.2c-20.7,16.5-76,55-99.3,63.2c-11.1,4-15.6,2.3-26.7,3
					c-17.9,1.1-54.1,4.1-70.5,1.3c-9.2-1.7-13.8-5.8-21-8.1c-7.4-2.3-14.8-4.4-23-5.5c-9.2-1.3-23.2,0.4-29.6-1.4
					c-3.4-1-5.1-2.3-7.3-4c-2.1-1.7-4.1-3.7-5.5-6c-1.6-2.3-2.7-5-3.4-7.5c-0.7-2.6-0.9-5.4-0.7-8.1c0.1-2.7,0.9-5.4,1.8-8
					c1-2.4,2.6-5,4.3-7c1.8-2,4-3.8,6.4-5.3c2.3-1.4,5-2.4,7.7-3c2.6-0.6,5.4-0.6,8.1-0.3c2.7,0.3,5.5,1.1,8,2.3
					c2.4,1.1,4.8,2.8,6.7,4.7c2,1.8,3.6,4.3,4.8,6.7c1.3,2.4,2.1,5,2.6,7.7c0.4,2.7,0.3,5.5-0.1,8.2c-0.4,2.7-1.4,5.4-2.7,7.8
					c-1.3,2.4-3,4.5-5,6.4c-2,1.8-4.4,3.4-6.8,4.5c-2.4,1.1-5.3,1.7-8,2c-2.7,0.3-5.5,0.1-8.2-0.4c-2.6-0.6-5.3-1.7-7.5-3.1
					c-2.3-1.4-4.5-3.3-6.3-5.4c-1.7-2.1-3.1-4.5-4.1-7.1c-1-2.6-1.4-5.4-1.6-8.1c-0.1-2.7,0.3-5.5,1-8.1c0.7-2.6,2-5.1,3.6-7.4
					c1.6-2.1,3.6-4.3,5.7-5.8c2.1-1.6,4.7-3,7.2-3.8c2.6-0.8,4.5-1,8.1-1.1c6.3-0.3,16.5-0.7,26.7,1c14.5,2.4,34.7,12.9,51.4,15.5
					c15.3,2.4,32,0,45.2,0.7c10.5,0.6,19.9,4.8,28,2.4c7.5-2.3,10.4-8.5,19.5-14.9c19-13.4,68.2-48.5,90.8-59
					c12.1-5.7,20.5-9.5,29.8-9c8.7,0.6,18.6,6,24.6,10.9c5,4.1,8.1,10.4,10.5,14.9c1.8,3.4,3.1,6.4,3.6,9.7
					c0.4,3.3-0.1,7.1-1.4,10.2c-1.3,3.1-4,6.3-6,8.2c-1.4,1.4-2.6,2.1-4.4,3c-2.6,1.1-7.1,2.1-9.9,2.3c-2,0.1-3.4-0.1-5.3-0.7
					c-2.7-0.9-6.8-3.3-8.9-5c-1.6-1.3-3.4-4-3.4-4"/>
			</defs>
			<clipPath id="SVGID_20_">
				<use xlink:href="#SVGID_19_"  style="overflow:visible;"/>
			</clipPath>
			<g class="st12">
				<path class="st1" d="M161.7,165.1h366.6v139.2H161.7V165.1z"/>
			</g>
		</g>
	</g>
</g>
<g>
	<defs>
		<rect id="SVGID_21_" x="76.2" y="330.9" width="45.5" height="51.8"/>
	</defs>
	<clipPath id="SVGID_22_">
		<use xlink:href="#SVGID_21_"  style="overflow:visible;"/>
	</clipPath>
	<g class="st13">
		<g>
			<defs>
				<path id="SVGID_23_" d="M119.2,349c1.8,16.9,1.4,18.8,0,21c-1.8,3.3-6.7,8-9.8,9.9c-2.3,1.4-4.4,1.8-6.7,2.1
					c-2.3,0.3-4.8,0.3-7.1-0.1c-2.3-0.4-4.5-1.3-6.5-2.4c-2-1.1-4-2.7-5.5-4.4c-1.6-1.7-2.8-3.8-3.8-6c-1-2.1-1.7-4.5-1.8-6.8
					c-0.1-2.3,0-4.7,0.6-7c0.6-2.3,1.4-4.5,2.7-6.5c1.3-2,2.8-3.8,4.7-5.3c1.8-1.4,4-2.7,6.1-3.6c2.1-0.9,4.7-1.4,7-1.4
					c2.3,0,4.7,0.3,7,1c2.3,0.7,4.5,1.7,6.4,3c1.8,1.3,3.7,3.1,5,5c1.4,1.8,2.4,4.1,3.1,6.4c0.7,2.3,1,4.7,1,7c0,2.3-0.4,4.8-1.3,7
					c-0.7,2.1-2,4.3-3.4,6.1c-1.4,1.8-3.1,3.4-5.1,4.7c-2,1.3-4.3,2.3-6.5,2.8c-2.3,0.6-4.7,0.8-7,0.7c-2.3-0.1-4.8-0.9-7-1.7
					c-2.1-0.9-4.3-2.1-6-3.7c-1.7-1.6-3.3-3.1-4.4-5.5c-1.7-3.4-3.1-9.7-3.6-13.9c-0.4-3.7-0.1-7.5,0.4-10.2c0.4-2,0.8-3.1,2-4.8
					c1.6-2.4,4.4-5.7,7.2-7.4c2.8-1.7,6.4-2.8,9.7-3.1c3.3-0.3,7.1,0.4,10.2,1.7c3,1.3,6,3.6,8.1,6.1C117,342.2,119.2,349,119.2,349
					"/>
			</defs>
			<clipPath id="SVGID_24_">
				<use xlink:href="#SVGID_23_"  style="overflow:visible;"/>
			</clipPath>
			<g class="st14">
				<path class="st1" d="M71.5,326.1h55.9v61.6H71.5V326.1z"/>
			</g>
		</g>
	</g>
</g>
<g>
	<defs>
		<rect id="SVGID_25_" x="96.3" y="344" width="42.6" height="43.5"/>
	</defs>
	<clipPath id="SVGID_26_">
		<use xlink:href="#SVGID_25_"  style="overflow:visible;"/>
	</clipPath>
	<g class="st15">
		<g>
			<defs>
				<path id="SVGID_27_" d="M138.8,359.5c0,13.5-1.6,16.9-3.6,19.5c-2,2.6-5.1,5.1-8.1,6.4c-3,1.3-6.7,1.8-9.9,1.7
					c-3.3-0.1-7-1.3-9.8-3c-2.8-1.7-5.5-4.4-7.3-7.3c-1.7-2.8-2.8-6.4-3-9.7c-0.1-3.3,0.4-7.1,1.8-10.1s3.7-6,6.3-8
					c2.6-2,6.1-3.7,9.4-4.3c3.3-0.6,7-0.3,10.1,0.7c3.1,1,8.8,5.3,8.8,5.3"/>
			</defs>
			<clipPath id="SVGID_28_">
				<use xlink:href="#SVGID_27_"  style="overflow:visible;"/>
			</clipPath>
			<g class="st16">
				<path class="st1" d="M91.5,339.2h54v54h-54V339.2z"/>
			</g>
		</g>
	</g>
</g>
<g>
	<defs>
		<rect id="SVGID_29_" x="96.3" y="461.3" width="42.6" height="42.7"/>
	</defs>
	<clipPath id="SVGID_30_">
		<use xlink:href="#SVGID_29_"  style="overflow:visible;"/>
	</clipPath>
	<g class="st17">
		<g>
			<defs>
				<path id="SVGID_31_" d="M138.8,476.3c0,13.4-1.6,16.9-3.6,19.5c-2,2.6-5.1,5-8.1,6.3c-3,1.3-6.7,2-9.9,1.8c-3.3-0.1-7-1.3-9.8-3
					c-2.8-1.7-5.5-4.4-7.3-7.3c-1.7-2.8-2.8-6.5-3-9.8c-0.1-3.3,0.6-7,1.8-9.9c1.3-3,3.7-6.1,6.3-8.1c2.6-2,6.1-3.6,9.4-4.1
					c3.3-0.6,7-0.4,10.1,0.6c3.1,1,8.8,5.3,8.8,5.3"/>
			</defs>
			<clipPath id="SVGID_32_">
				<use xlink:href="#SVGID_31_"  style="overflow:visible;"/>
			</clipPath>
			<g class="st18">
				<path class="st1" d="M91.5,456h54v54h-54V456z"/>
			</g>
		</g>
	</g>
</g>
<g>
	<defs>
		<rect id="SVGID_33_" x="84" y="442.7" width="51.6" height="45.1"/>
	</defs>
	<clipPath id="SVGID_34_">
		<use xlink:href="#SVGID_33_"  style="overflow:visible;"/>
	</clipPath>
	<g class="st19">
		<g>
			<defs>
				<path id="SVGID_35_" d="M105.7,443.3c16.9,1.6,18.8,2.7,20.6,4.1c1.8,1.4,3.6,3.3,4.8,5.1c1.3,2,2.4,4.1,3,6.4
					c0.6,2.3,0.8,4.7,0.7,7c-0.1,2.3-0.7,4.8-1.6,7c-0.9,2.1-2.1,4.3-3.6,6c-1.6,1.8-3.4,3.4-5.4,4.7c-2,1.1-4.3,2-6.5,2.6
					c-2.3,0.6-4.4,0.9-7.1,0.4c-3.7-0.7-9.7-3.4-12.6-5.8c-2.1-1.7-3.1-3.6-4.3-5.7c-1.1-2-1.8-4.4-2.3-6.7c-0.4-2.3-0.4-4.8,0-7.1
					c0.4-2.3,1.1-4.7,2.3-6.7c1.1-2,2.6-4,4.3-5.5c1.7-1.6,3.7-3,5.8-4c2.1-1,4.5-1.6,6.8-1.8c2.3-0.3,4.8-0.3,7.1,0.3
					c2.3,0.6,4.5,1.4,6.5,2.7c2,1.1,3.8,2.8,5.4,4.5c1.4,1.7,2.7,3.8,3.6,6c0.9,2.1,1.4,4.7,1.6,7c0.1,2.3-0.1,4.7-0.7,7
					c-0.6,2.3-1.7,4.4-3,6.4c-1.3,1.8-3,3.7-4.8,5.1c-1.8,1.4-4,2.7-6.3,3.4c-2.1,0.7-4.3,1-7,1.1c-3.6,0.1-8.8,0.1-12.5-1
					c-3.4-1-6.5-2.6-9.1-4.8c-2.4-2.1-4.7-5.3-5.8-8.4c-1.1-3.1-1.7-7-1.3-10.2c0.4-3.3,1.8-7,3.7-9.7c1.8-2.7,4.7-5.3,7.7-6.8
					S105.7,443.3,105.7,443.3"/>
			</defs>
			<clipPath id="SVGID_36_">
				<use xlink:href="#SVGID_35_"  style="overflow:visible;"/>
			</clipPath>
			<g class="st20">
				<path class="st1" d="M78.7,437.5h61.6v54.9H78.7V437.5z"/>
			</g>
		</g>
	</g>
</g>
<g>
	<defs>
		<rect id="SVGID_37_" x="96.3" y="443" width="42.6" height="43.6"/>
	</defs>
	<clipPath id="SVGID_38_">
		<use xlink:href="#SVGID_37_"  style="overflow:visible;"/>
	</clipPath>
	<g class="st21">
		<g>
			<defs>
				<path id="SVGID_39_" d="M138.8,458.6c0,13.4-1.6,16.9-3.6,19.5s-5.1,5-8.1,6.3c-3,1.3-6.7,2-9.9,1.8c-3.3-0.1-7-1.3-9.8-3
					c-2.8-1.7-5.5-4.4-7.3-7.3c-1.7-2.8-2.8-6.5-3-9.8c-0.1-3.3,0.6-7,1.8-9.9c1.3-3,3.7-6.1,6.3-8.1c2.6-2,6.1-3.6,9.4-4.1
					c3.3-0.6,7-0.4,10.1,0.6s8.8,5.3,8.8,5.3"/>
			</defs>
			<clipPath id="SVGID_40_">
				<use xlink:href="#SVGID_39_"  style="overflow:visible;"/>
			</clipPath>
			<g class="st22">
				<path class="st1" d="M91.5,438.2h54v54h-54V438.2z"/>
			</g>
		</g>
	</g>
</g>
<g>
	<defs>
		<rect id="SVGID_41_" x="101.4" y="380" width="42.6" height="43"/>
	</defs>
	<clipPath id="SVGID_42_">
		<use xlink:href="#SVGID_41_"  style="overflow:visible;"/>
	</clipPath>
	<g class="st23">
		<g>
			<defs>
				<path id="SVGID_43_" d="M144,395c0,13.5-1.7,16.9-3.7,19.5c-2,2.6-5,5-8,6.4c-3,1.4-6.8,2-10.1,1.7c-3.3-0.3-6.8-1.3-9.7-3
					c-2.8-1.7-5.5-4.4-7.2-7.2c-1.7-2.8-2.8-6.4-3-9.7c-0.1-3.3,0.4-7.1,1.8-10.1c1.4-3,3.7-6,6.3-8c2.6-2,6-3.7,9.2-4.3
					c3.3-0.6,7.1-0.3,10.2,0.7c3.1,1,8.7,5.3,8.7,5.3"/>
			</defs>
			<clipPath id="SVGID_44_">
				<use xlink:href="#SVGID_43_"  style="overflow:visible;"/>
			</clipPath>
			<g class="st24">
				<path class="st1" d="M96.6,374.7h54v54h-54V374.7z"/>
			</g>
		</g>
	</g>
</g>
<g>
	<defs>
		<rect id="SVGID_45_" x="101.4" y="356.6" width="42.6" height="43.4"/>
	</defs>
	<clipPath id="SVGID_46_">
		<use xlink:href="#SVGID_45_"  style="overflow:visible;"/>
	</clipPath>
	<g class="st25">
		<g>
			<defs>
				<path id="SVGID_47_" d="M144,372.2c0,13.5-1.7,17.1-3.7,19.6c-2,2.6-5,4.8-8,6.3s-6.8,2.1-10.1,1.8c-3.3-0.3-6.8-1.4-9.7-3.1
					c-2.8-1.7-5.5-4.3-7.2-7.1c-1.7-2.8-2.8-6.5-3-9.8c-0.1-3.3,0.4-7.1,1.8-10.1s3.7-6,6.3-8c2.6-2,6-3.7,9.2-4.3
					c3.3-0.6,7.1-0.3,10.2,0.7c3.1,1,8.7,5.3,8.7,5.3"/>
			</defs>
			<clipPath id="SVGID_48_">
				<use xlink:href="#SVGID_47_"  style="overflow:visible;"/>
			</clipPath>
			<g class="st26">
				<path class="st1" d="M96.6,351.8h54v54h-54V351.8z"/>
			</g>
		</g>
	</g>
</g>
<g>
	<defs>
		<rect id="SVGID_49_" x="101.4" y="552" width="42.6" height="43.5"/>
	</defs>
	<clipPath id="SVGID_50_">
		<use xlink:href="#SVGID_49_"  style="overflow:visible;"/>
	</clipPath>
	<g class="st27">
		<g>
			<defs>
				<path id="SVGID_51_" d="M144,567.5c0,13.5-1.7,17.1-3.7,19.6c-2,2.6-5,4.8-8,6.3c-3,1.4-6.8,2.1-10.1,1.8
					c-3.3-0.3-6.8-1.4-9.7-3.1c-2.8-1.7-5.5-4.3-7.2-7.1c-1.7-2.8-2.8-6.5-3-9.8c-0.1-3.3,0.4-7.1,1.8-10.1s3.7-6,6.3-8
					s6-3.7,9.2-4.3c3.3-0.6,7.1-0.3,10.2,0.7c3.1,1,8.7,5.3,8.7,5.3"/>
			</defs>
			<clipPath id="SVGID_52_">
				<use xlink:href="#SVGID_51_"  style="overflow:visible;"/>
			</clipPath>
			<g class="st28">
				<path class="st1" d="M96.6,547.2h54v54h-54V547.2z"/>
			</g>
		</g>
	</g>
</g>
<g>
	<defs>
		<rect id="SVGID_53_" x="92" y="641.3" width="41.8" height="43"/>
	</defs>
	<clipPath id="SVGID_54_">
		<use xlink:href="#SVGID_53_"  style="overflow:visible;"/>
	</clipPath>
	<g class="st29">
		<g>
			<defs>
				<path id="SVGID_55_" d="M133.7,656.3c0,13.5-1.6,17.1-3.6,19.6c-2,2.6-5.1,5-8.1,6.3c-3,1.3-6.7,2-9.9,1.8s-7-1.4-9.8-3.1
					c-2.8-1.7-5.4-4.3-7.1-7.1c-1.7-2.8-3-6.5-3.1-9.8c-0.1-3.3,0.4-7.1,1.8-10.1s3.7-6,6.3-8c2.6-2,6.1-3.7,9.4-4.3
					c3.3-0.6,7.1-0.3,10.2,0.7c3.1,1,8.7,5.3,8.7,5.3"/>
			</defs>
			<clipPath id="SVGID_56_">
				<use xlink:href="#SVGID_55_"  style="overflow:visible;"/>
			</clipPath>
			<g class="st30">
				<path class="st1" d="M86.4,636h54v54h-54V636z"/>
			</g>
		</g>
	</g>
</g>
<g>
	<defs>
		<rect id="SVGID_57_" x="96.3" y="656.1" width="42.6" height="43.6"/>
	</defs>
	<clipPath id="SVGID_58_">
		<use xlink:href="#SVGID_57_"  style="overflow:visible;"/>
	</clipPath>
	<g class="st31">
		<g>
			<defs>
				<path id="SVGID_59_" d="M138.8,671.7c0,13.4-1.6,16.9-3.6,19.5c-2,2.6-5.1,5-8.1,6.3c-3,1.3-6.7,2-9.9,1.8c-3.3-0.1-7-1.3-9.8-3
					c-2.8-1.7-5.5-4.4-7.3-7.2c-1.7-2.8-2.8-6.5-3-9.8c-0.1-3.3,0.6-7,1.8-9.9c1.3-3,3.7-6.1,6.3-8.1c2.6-2,6.1-3.6,9.4-4.1
					c3.3-0.6,7-0.4,10.1,0.6c3.1,1,8.8,5.3,8.8,5.3"/>
			</defs>
			<clipPath id="SVGID_60_">
				<use xlink:href="#SVGID_59_"  style="overflow:visible;"/>
			</clipPath>
			<g class="st32">
				<path class="st1" d="M91.5,651.4h54v54h-54V651.4z"/>
			</g>
		</g>
	</g>
</g>
<g>
	<defs>
		<rect id="SVGID_61_" x="112" y="633.3" width="42.1" height="43.5"/>
	</defs>
	<clipPath id="SVGID_62_">
		<use xlink:href="#SVGID_61_"  style="overflow:visible;"/>
	</clipPath>
	<g class="st33">
		<g>
			<defs>
				<path id="SVGID_63_" d="M154,648.8c0,13.4-1.6,16.9-3.6,19.5c-2,2.6-5.1,5-8.1,6.3s-6.7,2-9.9,1.8c-3.3-0.1-7-1.3-9.8-3
					c-2.8-1.7-5.5-4.4-7.3-7.3c-1.7-2.8-2.8-6.5-3-9.8c-0.1-3.3,0.6-7,1.8-9.9c1.3-3,3.7-6.1,6.3-8.1c2.6-2,6.1-3.6,9.4-4.1
					c3.3-0.6,7-0.4,10.1,0.6s8.8,5.3,8.8,5.3"/>
			</defs>
			<clipPath id="SVGID_64_">
				<use xlink:href="#SVGID_63_"  style="overflow:visible;"/>
			</clipPath>
			<g class="st34">
				<path class="st1" d="M106.7,628.5h54v54h-54V628.5z"/>
			</g>
		</g>
	</g>
</g>
<g>
	<defs>
		<rect id="SVGID_65_" x="89.3" y="747.3" width="42.7" height="43.3"/>
	</defs>
	<clipPath id="SVGID_66_">
		<use xlink:href="#SVGID_65_"  style="overflow:visible;"/>
	</clipPath>
	<g class="st35">
		<g>
			<defs>
				<path id="SVGID_67_" d="M131.2,762.9c0.1,13.5-1.6,17.1-3.6,19.6c-2,2.6-5,4.8-8,6.3s-6.8,2-10.1,1.8c-3.3-0.1-7-1.4-9.8-3.1
					c-2.8-1.7-5.4-4.3-7.1-7.1c-1.7-2.8-3-6.5-3.1-9.8c-0.1-3.3,0.4-7.1,1.8-10.1s3.8-6,6.4-8c2.6-2,6-3.7,9.2-4.3
					c3.3-0.6,7.1-0.3,10.2,0.7c3.1,1,8.7,5.3,8.7,5.3"/>
			</defs>
			<clipPath id="SVGID_68_">
				<use xlink:href="#SVGID_67_"  style="overflow:visible;"/>
			</clipPath>
			<g class="st36">
				<path class="st1" d="M83.9,742.6h54v54h-54V742.6z"/>
			</g>
		</g>
	</g>
</g>
<g>
	<defs>
		<rect id="SVGID_69_" x="101.4" y="740" width="42.6" height="43.4"/>
	</defs>
	<clipPath id="SVGID_70_">
		<use xlink:href="#SVGID_69_"  style="overflow:visible;"/>
	</clipPath>
	<g class="st37">
		<g>
			<defs>
				<path id="SVGID_71_" d="M144,755.4c0,13.4-1.7,16.9-3.7,19.5c-2,2.6-5,4.8-8,6.3s-6.8,2-10.1,1.8c-3.3-0.1-6.8-1.3-9.7-3
					c-2.8-1.7-5.5-4.4-7.2-7.3c-1.7-2.8-2.8-6.5-3-9.8c-0.1-3.3,0.6-7,1.8-9.9c1.3-3,3.7-6.1,6.3-8.1c2.6-2,6-3.6,9.2-4.1
					c3.3-0.6,7.1-0.4,10.2,0.6c3.1,1,8.7,5.3,8.7,5.3"/>
			</defs>
			<clipPath id="SVGID_72_">
				<use xlink:href="#SVGID_71_"  style="overflow:visible;"/>
			</clipPath>
			<g class="st38">
				<path class="st1" d="M96.6,735.1h54v54h-54V735.1z"/>
			</g>
		</g>
	</g>
</g>
<g>
	<defs>
		<rect id="SVGID_73_" x="101.4" y="727.1" width="42.6" height="43.5"/>
	</defs>
	<clipPath id="SVGID_74_">
		<use xlink:href="#SVGID_73_"  style="overflow:visible;"/>
	</clipPath>
	<g class="st39">
		<g>
			<defs>
				<path id="SVGID_75_" d="M144,742.7c0,13.4-1.7,16.9-3.7,19.5c-2,2.6-5,4.8-8,6.3s-6.8,2-10.1,1.8c-3.3-0.1-6.8-1.3-9.7-3
					c-2.8-1.7-5.5-4.4-7.2-7.3c-1.7-2.8-2.8-6.5-3-9.8c-0.1-3.3,0.6-7,1.8-9.9c1.3-3,3.7-6.1,6.3-8.1c2.6-2,6-3.6,9.2-4.1
					c3.3-0.6,7.1-0.4,10.2,0.6s8.7,5.3,8.7,5.3"/>
			</defs>
			<clipPath id="SVGID_76_">
				<use xlink:href="#SVGID_75_"  style="overflow:visible;"/>
			</clipPath>
			<g class="st40">
				<path class="st1" d="M96.6,722.4h54v54h-54V722.4z"/>
			</g>
		</g>
	</g>
</g>
<g>
	<defs>
		<rect id="SVGID_77_" x="88" y="913.3" width="70.2" height="72"/>
	</defs>
	<clipPath id="SVGID_78_">
		<use xlink:href="#SVGID_77_"  style="overflow:visible;"/>
	</clipPath>
	<g class="st41">
		<g>
			<defs>
				<path id="SVGID_79_" d="M157.5,938.8c0,22.4-2.6,28.3-6,32.5c-3.4,4.4-8.4,8.2-13.4,10.5c-5,2.3-11.2,3.3-16.8,3
					c-5.5-0.3-11.5-2.1-16.2-5c-4.7-2.8-9.2-7.4-12.1-12.1c-2.8-4.7-4.7-10.7-5-16.2c-0.3-5.5,0.7-11.8,3-16.8
					c2.3-5,6.1-9.9,10.5-13.4c4.3-3.4,10.1-6,15.5-7c5.4-1,11.8-0.7,17.1,1c5.3,1.7,14.5,8.8,14.5,8.8"/>
			</defs>
			<clipPath id="SVGID_80_">
				<use xlink:href="#SVGID_79_"  style="overflow:visible;"/>
			</clipPath>
			<g class="st42">
				<path class="st1" d="M82.4,908.8h81.5v81.5H82.4V908.8z"/>
			</g>
		</g>
	</g>
</g>
<g>
	<defs>
		<rect id="SVGID_81_" x="61.7" y="826.7" width="71" height="72"/>
	</defs>
	<clipPath id="SVGID_82_">
		<use xlink:href="#SVGID_81_"  style="overflow:visible;"/>
	</clipPath>
	<g class="st43">
		<g>
			<defs>
				<path id="SVGID_83_" d="M132,852.6c0.1,22.4-2.4,28.3-5.8,32.5c-3.4,4.4-8.5,8.2-13.5,10.5c-5,2.3-11.1,3.3-16.6,3
					c-5.5-0.3-11.7-2.1-16.3-5c-4.7-2.8-9.1-7.4-11.9-12.1c-2.8-4.7-4.8-10.7-5.1-16.2c-0.3-5.5,0.9-11.8,3.1-16.8
					c2.3-5,6.1-9.9,10.5-13.4c4.3-3.4,10.1-6,15.5-7c5.4-1,11.7-0.6,16.9,1c5.3,1.6,14.6,8.8,14.6,8.8"/>
			</defs>
			<clipPath id="SVGID_84_">
				<use xlink:href="#SVGID_83_"  style="overflow:visible;"/>
			</clipPath>
			<g class="st44">
				<path class="st1" d="M57,822.6h81.5V904H57V822.6z"/>
			</g>
		</g>
	</g>
</g>
<g>
	<defs>
		<rect id="SVGID_85_" x="74.7" y="821.3" width="70.7" height="72.9"/>
	</defs>
	<clipPath id="SVGID_86_">
		<use xlink:href="#SVGID_85_"  style="overflow:visible;"/>
	</clipPath>
	<g class="st45">
		<g>
			<defs>
				<path id="SVGID_87_" d="M144.8,847.6c0,22.3-2.6,28.1-6,32.4c-3.4,4.4-8.4,8.2-13.4,10.5c-5,2.3-11.2,3.4-16.8,3.1
					c-5.5-0.3-11.5-2.3-16.2-5.1c-4.7-2.8-9.2-7.4-12.1-12.1c-2.8-4.7-4.7-10.7-5-16.2c-0.3-5.5,0.7-11.8,3-16.8
					c2.3-5,6.1-9.9,10.5-13.4c4.3-3.4,10.1-6,15.5-7c5.4-1,11.7-0.6,16.9,1c5.3,1.6,14.6,8.8,14.6,8.8"/>
			</defs>
			<clipPath id="SVGID_88_">
				<use xlink:href="#SVGID_87_"  style="overflow:visible;"/>
			</clipPath>
			<g class="st46">
				<path class="st1" d="M69.8,817.5h81.5v81.5H69.8V817.5z"/>
			</g>
		</g>
	</g>
</g>
<g>
	<defs>
		<rect id="SVGID_89_" x="157.4" y="69.7" width="134.3" height="98.3"/>
	</defs>
	<clipPath id="SVGID_90_">
		<use xlink:href="#SVGID_89_"  style="overflow:visible;"/>
	</clipPath>
	<g class="st47">
		<g>
			<defs>
				<path id="SVGID_91_" d="M252.5,161c-29-4-39-4.9-46.9-4.2c-6.8,0.6-13.8,2.1-18.9,4c-4,1.6-6.8,4.9-9.9,5.8
					c-2.4,0.8-4.5,1-6.8,0.5c-2.8-0.6-6.8-2.6-8.7-5c-1.9-2.4-3.2-6.5-3.1-9.7c0.2-3.1,1.3-5.7,4-9.2c6.3-8.1,24.6-21,40.3-31.6
					C222,98.5,258.7,76.5,271,72.1c4-1.5,6-1.9,8.7-1.5c2.8,0.5,6,2.6,7.8,4.2c1.3,1.1,1.8,2.1,2.4,3.7c0.8,2.3,1.6,5.8,1,8.6
					c-0.6,2.8-2.4,5.8-4.5,7.6c-2.1,1.8-5.8,2.9-8.3,3.2c-1.6,0.2-2.8,0.2-4.4-0.5c-2.3-0.8-5.7-3.1-7.3-4.9c-1.1-1.3-1.6-2.4-2.1-4
					c-0.5-2.3-0.6-6.5,0-8.7c0.5-1.6,1-2.6,2.1-3.9c1.6-1.8,5-4.2,7.3-5c1.6-0.6,2.9-0.6,4.5-0.5c2.3,0.3,6,1.5,8.1,3.2
					c2.1,1.8,3.9,4.9,4.5,7.6c0.6,2.8,0.2,6.2-1,8.7c-1.1,2.4-2.8,3.9-6,6.3c-8.6,6.3-39.7,18.8-51.8,25.6
					c-6.8,3.9-9.7,5.7-15.7,9.7c-8.7,5.7-24.8,14.9-31.4,21.8c-4.2,4.5-5.2,11.2-8.3,13.1c-2.1,1.3-4.5,1-6.8,0.5
					c-2.8-0.6-6.8-2.9-8.7-5c-1.6-1.8-2.4-4-2.9-6.3c-0.5-2.1-0.5-4.5,0.3-6.8c1-2.8,2.9-5.7,6.2-8.1c5.3-4,17.2-8.6,26.2-10.4
					c9.2-1.8,18.9-0.6,29.1-0.2c11.3,0.5,28.3,1.3,35.9,3.7c3.9,1.3,6.5,2.3,8.4,4.5c1.9,2.3,3.2,6.3,3.4,9.1
					c0.2,2.3-0.8,4.4-1.8,6.3c-1,1.8-2.3,3.7-4.2,4.9C259.5,160.4,252.5,161,252.5,161"/>
			</defs>
			<clipPath id="SVGID_92_">
				<use xlink:href="#SVGID_91_"  style="overflow:visible;"/>
			</clipPath>
			<g class="st48">
				<defs>
					<filter id="Adobe_OpacityMaskFilter" filterUnits="userSpaceOnUse" x="-176" y="-242" width="1152" height="1584">
						<feColorMatrix  type="matrix" values="1 0 0 0 0  0 1 0 0 0  0 0 1 0 0  0 0 0 1 0"/>
					</filter>
				</defs>
				<mask maskUnits="userSpaceOnUse" x="-176" y="-242" width="1152" height="1584" id="_x31_57783b2f3_1_">
					<g class="st49">
						<rect x="-80" y="-110" class="st50" width="960" height="1320"/>
					</g>
				</mask>
				<g class="st51">
					<g transform="matrix(1, 0, 0, 1, 118, 52)">
						<g>
							<defs>
								<rect id="SVGID_93_" x="39.3" y="17.3" width="134.7" height="98.7"/>
							</defs>
							<clipPath id="SVGID_94_">
								<use xlink:href="#SVGID_93_"  style="overflow:visible;"/>
							</clipPath>
							<g class="st52">
								<g>
									<defs>
										<rect id="SVGID_95_" x="39.8" y="18.1" width="134" height="97.9"/>
									</defs>
									<clipPath id="SVGID_96_">
										<use xlink:href="#SVGID_95_"  style="overflow:visible;"/>
									</clipPath>
									<g class="st53">
										<g>
											<defs>
												<path id="SVGID_97_" d="M134.5,109c-29-4-39-4.9-46.9-4.2c-6.8,0.6-13.8,2.1-18.9,4c-4,1.6-6.8,4.9-9.9,5.8
													c-2.4,0.8-4.5,1-6.8,0.5c-2.8-0.6-6.8-2.6-8.7-5c-1.9-2.4-3.2-6.5-3.1-9.7c0.2-3.1,1.3-5.7,4-9.2
													c6.3-8.1,24.6-21,40.3-31.6C104,46.5,140.7,24.5,153,20.1c4-1.5,6-1.9,8.7-1.5c2.8,0.5,6,2.6,7.8,4.2
													c1.3,1.1,1.8,2.1,2.4,3.7c0.8,2.3,1.6,5.8,1,8.6c-0.6,2.8-2.4,5.8-4.5,7.6c-2.1,1.8-5.8,2.9-8.3,3.2
													c-1.6,0.2-2.8,0.2-4.4-0.5c-2.3-0.8-5.7-3.1-7.3-4.9c-1.1-1.3-1.6-2.4-2.1-4c-0.5-2.3-0.6-6.5,0-8.7
													c0.5-1.6,1-2.6,2.1-3.9c1.6-1.8,5-4.2,7.3-5c1.6-0.6,2.9-0.6,4.5-0.5c2.3,0.3,6,1.5,8.1,3.2c2.1,1.8,3.9,4.9,4.5,7.6
													c0.6,2.8,0.2,6.2-1,8.7c-1.1,2.4-2.8,3.9-6,6.3c-8.6,6.3-39.7,18.8-51.8,25.6c-6.8,3.9-9.7,5.7-15.7,9.7
													c-8.7,5.7-24.8,14.9-31.4,21.8c-4.2,4.5-5.2,11.2-8.3,13.1c-2.1,1.3-4.5,1-6.8,0.5c-2.8-0.6-6.8-2.9-8.7-5
													c-1.6-1.8-2.4-4-2.9-6.3c-0.5-2.1-0.5-4.5,0.3-6.8c1-2.8,2.9-5.7,6.2-8.1c5.3-4,17.2-8.6,26.2-10.4
													c9.2-1.8,18.9-0.6,29.1-0.2c11.3,0.5,28.3,1.3,35.9,3.7c3.9,1.3,6.5,2.3,8.4,4.5c1.9,2.3,3.2,6.3,3.4,9.1
													c0.2,2.3-0.8,4.4-1.8,6.3c-1,1.8-2.3,3.7-4.2,4.9C141.5,108.4,134.5,109,134.5,109"/>
											</defs>
											<clipPath id="SVGID_98_">
												<use xlink:href="#SVGID_97_"  style="overflow:visible;"/>
											</clipPath>
											<g class="st54">
												<rect x="-294" y="-294" class="st1" width="1152" height="1584"/>
											</g>
										</g>
									</g>
								</g>
							</g>
						</g>
					</g>
				</g>
			</g>
		</g>
	</g>
</g>
<g>
	<defs>
		<rect id="SVGID_99_" x="141.5" y="45.3" width="557.2" height="282.7"/>
	</defs>
	<clipPath id="SVGID_100_">
		<use xlink:href="#SVGID_99_"  style="overflow:visible;"/>
	</clipPath>
	<g class="st55">
		<g>
			<defs>
				<path id="SVGID_101_" d="M310.8,198.2c-54.1-1.5-82.4,3.1-88.2,7c-1.8,1.1-1.1,2.4-2.4,3.6c-2.4,1.8-8.1,3.4-12.3,4.4
					c-4.2,1-8.6,1.5-13,1.5c-4.2,0-8.6-0.6-12.8-1.8c-4.2-1.1-8.4-2.8-12.1-4.9c-3.7-2.1-7.3-4.7-10.5-7.6c-3.1-2.9-6-6.3-8.4-9.9
					c-2.4-3.6-4.4-7.6-5.8-11.7c-1.5-4-2.4-8.4-2.9-12.6c-0.5-4.2-0.5-8.7,0.2-12.9c0.7-4.2,1.8-8.6,3.4-12.6
					c1.6-4,3.7-7.9,6.2-11.5c2.6-3.6,5.7-6.8,8.9-9.6c3.2-2.8,5.5-5.2,10.7-7.1c10.4-3.7,29.9,0,50.2-5.2
					c33.8-8.6,96.8-45.5,130.3-54.4c19.8-5.3,32.5-7.3,48.9-6.1c16.7,1.1,35,5.8,50.2,13.1c15.1,7.3,24.9,23.3,40.6,30.6
					c17.2,7.9,37.7,8.7,59.4,13.1c25.7,5.2,64.3,2.3,85.1,15.5c18,11.3,29.1,34.2,37.2,52.1c7.3,15.9,7.3,34,11.7,48.7
					c3.7,12.5,10.5,24.1,12.3,34.2c1.3,7.6,1,13.9-0.2,20.6c-1.1,6.6-3.6,13.4-6.8,19.4c-3.2,6-7.8,11.7-12.8,16.3
					c-5,4.5-11,8.6-17.2,11.3c-6.2,2.8-13.1,4.7-19.9,5.3c-6.8,0.6-13.9,0-20.6-1.5c-6.6-1.5-13.3-4.2-19.1-7.8
					c-5.8-3.6-11.2-8.4-15.5-13.6c-4.4-5.2-7.9-11.5-10.4-17.8c-2.4-6.3-3.9-13.3-4.2-20.1c-0.3-6.8,0.5-14.1,2.4-20.6
					c1.9-6.5,5-13.1,8.9-18.6c3.9-5.5,8.9-10.7,14.4-14.7c5.5-4,11.8-7.3,18.3-9.4s13.6-3.2,20.4-3.2s13.9,1.3,20.2,3.6
					c6.5,2.3,12.8,5.7,18.1,9.9c5.3,4.2,10.2,9.5,13.9,15.2c3.7,5.7,6.6,12.3,8.4,18.8c1.8,6.6,2.6,13.8,2.1,20.6
					s-2.1,13.8-4.7,20.1c-2.6,6.3-6.5,12.5-10.8,17.5c-4.5,5.2-10,9.7-15.9,13.1c-5.8,3.4-12.6,6-19.3,7.4c-6.6,1.5-13.9,1.8-20.6,1
					c-6.8-0.8-13.6-2.9-19.7-5.8s-12.1-7.1-17-11.8c-4.9-4.7-9.2-10.5-12.3-16.5c-3.1-6-3.9-15.2-6.3-19.6c-1.3-2.6-2.9-2.4-4.4-5.5
					c-4.5-9.9-20.1-62.6-13-67.7c6.2-4.2,45.3,21.4,43.9,26.4c-2.1,7.3-77.2,6.3-107.5-1.3c-24.4-6.2-44.3-21.2-62.5-32.7
					c-15.2-9.7-25.4-27.8-40-30.3c-14.4-2.4-30.1,8.7-47.1,15.4c-21,8.3-47.3,26.7-69.1,31.4c-18.1,3.9-40.6-2.1-51.8-0.2
					c-5.7,1-8.1,3.4-12.3,4.4c-4.2,1-8.6,1.5-12.8,1.5c-4.4,0-8.7-0.6-12.9-1.8c-4.2-1.1-8.4-2.8-12.1-4.9
					c-3.7-2.1-7.3-4.7-10.5-7.6c-3.1-2.9-6-6.3-8.4-9.9c-2.4-3.6-4.4-7.6-5.8-11.7c-1.5-4-2.4-8.4-2.9-12.6
					c-0.5-4.2-0.5-8.7,0.2-12.9c0.7-4.2,1.8-8.6,3.4-12.6c1.6-4,3.7-7.9,6.2-11.5c2.6-3.6,5.7-6.8,8.9-9.6c3.2-2.8,5.7-4.7,10.7-7.1
					c10.2-4.9,31.4-12.5,48.6-15.5c18.5-3.4,40.1-3.6,59.1-3.1c17.6,0.5,40.1,2.4,50.8,5.3c5.2,1.5,7.8,3.1,11.2,5.2
					c3.4,2.1,6.6,4.9,9.6,7.8c2.8,2.9,5.3,6.3,7.4,9.7c2.1,3.6,3.9,7.3,5,11.2c1.1,3.9,1.8,8.1,1.9,12.1c0.2,4,0,8.3-0.8,12.1
					c-0.8,4-1.9,7.9-3.7,11.7c-1.6,3.7-3.9,7.3-6.5,10.4c-2.6,3.2-5.5,6.2-8.7,8.6c-3.2,2.4-7,4.7-10.7,6.3
					c-3.7,1.6-7.6,2.9-11.7,3.6C319.1,198.4,310.8,198.2,310.8,198.2"/>
			</defs>
			<clipPath id="SVGID_102_">
				<use xlink:href="#SVGID_101_"  style="overflow:visible;"/>
			</clipPath>
			<g class="st56">
				<path class="st1" d="M135.8,40.3h568.9v293H135.8V40.3z"/>
			</g>
		</g>
	</g>
</g>
<g>
	<defs>
		<rect id="SVGID_103_" x="90.8" y="1018.7" width="102.5" height="50.7"/>
	</defs>
	<clipPath id="SVGID_104_">
		<use xlink:href="#SVGID_103_"  style="overflow:visible;"/>
	</clipPath>
	<g class="st57">
		<g>
			<defs>
				<path id="SVGID_105_" d="M112.7,1046.3c44.5-10.7,48.4-9.5,52.4-11.4c4.1-1.9,7.8-8,10.8-9.8c1.9-1.1,3.2-1.6,5.1-1.6
					c2.3,0,5.6,0.8,7.6,2.4c1.9,1.5,3.5,4.5,4,6.8c0.4,1.9,0.3,3.7-0.3,5.3c-0.5,1.6-1.1,3.3-2.8,4.5c-3.2,2.1-10,2-17.5,2.5
					c-13.5,1.1-49.3-3.6-56.7,0.4c-2.4,1.3-1.9,3.9-3.5,5.2c-1.9,1.5-5.1,2.5-7.6,2.5c-2.5,0-5.6-1.1-7.6-2.5
					c-2-1.6-3.7-4.7-4.5-6.7c-0.5-1.5-0.7-2.5-0.4-4c0.3-2.1,1.3-5.6,2.9-7.5c1.6-2,4.4-3.6,7-4.1c2.4-0.5,5.9,0.1,7.9,0.9
					c1.5,0.5,2.3,1.1,3.3,2.3c1.5,1.6,3.3,4.5,3.7,7.1c0.4,2.5-0.4,5.9-1.2,7.9c-0.7,1.5-1.6,2.3-2.5,3.2c-0.9,0.9-1.9,1.7-3.3,2.3
					c-2,0.8-5.5,1.5-7.9,0.9c-2.5-0.5-5.3-2.1-7-4.1c-1.6-1.9-2.7-5.4-2.9-7.5c-0.3-1.5,0-2.7,0.4-4c0.4-1.3,0.5-2.4,1.7-3.7
					c3.1-3.3,12.8-10.3,21.4-12.6c10.8-2.8,28.8-0.8,39.5,0.7c7.6,1.1,15,5.8,19.1,5.1c2.1-0.3,2.9-2.3,4.5-2.8
					c1.6-0.5,3.5-0.7,5.3-0.3c2.3,0.5,5.3,2.1,6.8,4.1c1.5,1.9,2.4,5.1,2.3,7.5c-0.1,2.4-1.6,4.9-3.2,7.2c-2,2.8-4.3,5.8-8.6,8
					c-7.9,4.3-27.3,5.5-38.7,9c-9.4,2.8-19,9.2-25,9.5c-3.3,0.1-6-0.7-8-2.3c-2.1-1.6-3.9-4.5-4.4-7.1c-0.5-2.5,0-5.9,1.3-8.2
					C107.7,1049.4,112.7,1046.3,112.7,1046.3"/>
			</defs>
			<clipPath id="SVGID_106_">
				<use xlink:href="#SVGID_105_"  style="overflow:visible;"/>
			</clipPath>
			<g class="st58">
				<path class="st1" d="M86.4,1015.9h111.4v58.8H86.4V1015.9z"/>
			</g>
		</g>
	</g>
</g>
<g>
	<defs>
		<rect id="SVGID_107_" x="105.3" y="1031" width="287.3" height="52.6"/>
	</defs>
	<clipPath id="SVGID_108_">
		<use xlink:href="#SVGID_107_"  style="overflow:visible;"/>
	</clipPath>
	<g class="st59">
		<g>
			<defs>
				<path id="SVGID_109_" d="M139.3,1083c-25.7-2.7-28.4-3.7-30.2-5.5c-1.6-1.5-2.5-3.3-3.1-5.2c-0.5-1.9-0.9-4-0.4-6
					c0.7-2.5,2.8-5.9,4.7-7.6c1.6-1.3,2.9-1.9,5.5-2.4c5.2-1.1,16.3,0.5,25.1-0.1c10.2-0.7,17.7-3.5,32.4-4.5
					c30.6-2.3,120.2,6.2,142.3-0.7c7.5-2.3,7.9-7.1,13.8-9.2c8.3-3.1,23.7-2,32.5-4.1c6.3-1.5,11.4-5.5,15.9-5.6
					c3.2-0.1,6.2,0.7,8.4,2.3c2.3,1.6,4.4,4.9,5.3,7.1c0.7,1.6,0.8,2.7,0.7,4.4c-0.3,2.4-1.2,6.2-2.9,8.3c-1.7,2.1-5.1,4-7.2,4.8
					c-1.6,0.5-2.8,0.7-4.4,0.4c-2.3-0.4-6.3-1.9-8.2-3.2c-1.3-0.9-2.1-2-2.8-3.5c-1.1-2.1-2.1-5.8-1.9-8.6c0.3-2.7,1.9-5.9,3.7-7.9
					c1.9-2,5.1-3.6,7.8-4c2.8-0.4,6.3,0.1,8.7,1.5s4.9,4.4,6,6.4c0.8,1.5,1.1,2.7,1.1,4.3c0,2.3-0.4,6-1.9,8.4
					c-1.5,2.4-3.9,4-6.8,5.8c-3.9,2.3-9.2,4-14.7,5.5c-6.4,1.7-13.2,1.6-21.4,3.3c-11.1,2.3-22.1,8-38.9,10.2
					c-29.6,3.7-93.6-1.6-124.4-0.3c-18.1,0.8-30.8,3.1-43.1,3.7c-9.1,0.5-18.1,1.6-23.8,0.4c-3.5-0.8-6.2-1.7-8-3.7
					c-2-2-3.5-5.3-3.6-8.2c-0.1-2.8,0.9-6.4,2.7-8.6c1.7-2.1,4.1-3.7,7.6-4.5c5.9-1.3,19.9,0.5,25.9,2.1c3.5,0.9,6,2.1,7.9,3.9
					c1.5,1.5,2.5,3.2,2.9,5.2c0.5,2.4,0.3,6.3-0.9,8.7s-4.1,4.9-6.4,6C143.4,1083.1,139.3,1083,139.3,1083"/>
			</defs>
			<clipPath id="SVGID_110_">
				<use xlink:href="#SVGID_109_"  style="overflow:visible;"/>
			</clipPath>
			<g class="st60">
				<path class="st1" d="M100.2,1026.6h297.8v61.5H100.2V1026.6z"/>
			</g>
		</g>
	</g>
</g>
<g>
	<defs>
		<rect id="SVGID_111_" x="350.7" y="1037.7" width="324" height="39.6"/>
	</defs>
	<clipPath id="SVGID_112_">
		<use xlink:href="#SVGID_111_"  style="overflow:visible;"/>
	</clipPath>
	<g class="st61">
		<g>
			<defs>
				<path id="SVGID_113_" d="M363.9,1049.6c150.6-2.1,152.9-4.7,159.3-6.2c7.9-1.7,14.6-2.8,26.5-3.6c24.2-1.7,98.8-1.2,111-0.3
					c2.4,0.1,2.8,0,4.3,0.7c2.1,0.9,5.3,3.1,7,5.3c1.6,2.3,2.5,5.6,2.4,8.4c-0.1,2.7-1.6,5.9-3.3,8s-5.1,3.9-7.4,4.5
					c-1.6,0.5-2.8,0.5-4.4,0.3c-2.3-0.4-6-1.9-8-3.7c-2-1.9-3.6-5.1-4-7.8c-0.4-2.7,0-6.2,1.3-8.6c1.3-2.4,4.4-4.8,6.4-6
					c1.5-0.8,2.5-1.2,4.3-1.2c2.3,0,6,0.4,8.4,1.9c2.4,1.5,4.7,4.5,5.8,6.7c0.8,1.5,0.9,2.7,0.9,4.3c-0.1,2.4-0.8,6.2-2.4,8.4
					c-1.6,2.3-4.8,4.4-7,5.3c-1.5,0.7-1.9,0.5-4.3,0.7c-12.7,1.1-98.6-2.4-120.4,0.7c-8.3,1.2-11.1,3.6-16.8,4.8
					c-5.8,1.3-9,2.1-17.7,2.8c-24.6,1.9-123.7,2.7-141.9-0.8c-4.5-0.9-6.2-1.3-8.2-3.2c-2-1.7-3.7-4.9-4.1-7.6
					c-0.4-2.7,0.8-6.4,2.1-8.6c1.1-1.7,2.7-2.9,4.4-3.9C359.9,1050.1,363.9,1049.6,363.9,1049.6"/>
			</defs>
			<clipPath id="SVGID_114_">
				<use xlink:href="#SVGID_113_"  style="overflow:visible;"/>
			</clipPath>
			<g class="st62">
				<path class="st1" d="M346.2,1034.2h333.4v46.4H346.2V1034.2z"/>
			</g>
		</g>
	</g>
</g>
<g>
	<defs>
		<rect id="SVGID_115_" x="509.6" y="1037.3" width="191.7" height="37.3"/>
	</defs>
	<clipPath id="SVGID_116_">
		<use xlink:href="#SVGID_115_"  style="overflow:visible;"/>
	</clipPath>
	<g class="st63">
		<g>
			<defs>
				<path id="SVGID_117_" d="M692.3,1067.2c-15.5,5.2-22.9,7-29.6,7.1c-7,0.1-15.5-1.1-21.5-2.5c-4.5-1.1-5.8-3.3-11.8-4.4
					c-17.5-3.2-90.1,2-105.4-0.5c-4.4-0.8-6.2-1.1-8.3-2.8c-2.1-1.6-4-5.1-4.8-7.2c-0.5-1.6-0.8-2.8-0.5-4.4c0.3-2.3,1.5-5.9,3.2-8
					c1.7-2.1,5.2-3.9,7.5-4.5c1.6-0.5,2.8-0.5,4.4-0.3c2.3,0.4,6.2,2.3,8,3.7c1.3,1.1,2,2,2.7,3.5c0.9,2.1,1.9,6,1.3,8.7
					c-0.5,2.7-2.1,5.8-4.1,7.6c-2,1.9-5.6,3.3-7.9,3.7c-1.6,0.3-2.8,0.3-4.4-0.3c-2.3-0.7-5.8-2.4-7.5-4.5c-1.7-2.1-2.9-5.9-3.2-8.2
					c-0.3-1.6,0-2.7,0.5-4.3c0.8-2.1,2.7-5.6,4.8-7.2c2.1-1.7,3.9-2.1,8.3-2.8c14.7-2.4,74.2-1.9,99.4,0.9
					c15.6,1.7,28.3,7.6,37.4,8.2c5.2,0.3,8-0.5,12.4-1.3c5.1-0.9,11.6-4.8,16.1-4.4c3.2,0.4,6.2,2,8,4.1c1.9,2.1,2.9,5.9,3.1,8.4
					c0.1,2.1-0.4,4-1.5,5.9C697.7,1063.5,692.3,1067.2,692.3,1067.2"/>
			</defs>
			<clipPath id="SVGID_118_">
				<use xlink:href="#SVGID_117_"  style="overflow:visible;"/>
			</clipPath>
			<g class="st64">
				<path class="st1" d="M505.1,1034.2h200.6v45.5H505.1V1034.2z"/>
			</g>
		</g>
	</g>
</g>
<g>
	<defs>
		<rect id="SVGID_119_" x="318.7" y="1049.3" width="24" height="24.8"/>
	</defs>
	<clipPath id="SVGID_120_">
		<use xlink:href="#SVGID_119_"  style="overflow:visible;"/>
	</clipPath>
	<g class="st65">
		<g>
			<defs>
				<path id="SVGID_121_" d="M342.5,1058.4c0,7.6-0.8,9.5-2,11c-1.2,1.5-2.8,2.8-4.5,3.6c-1.7,0.8-3.7,1.1-5.6,0.9
					c-1.9-0.1-3.9-0.8-5.5-1.7c-1.6-0.9-3.2-2.4-4.1-4c-0.9-1.6-1.5-3.6-1.6-5.5c-0.1-1.9,0.1-3.9,0.9-5.6c0.8-1.7,2.1-3.3,3.6-4.5
					c1.5-1.2,3.3-2,5.2-2.4c1.9-0.4,4-0.1,5.8,0.4c1.7,0.5,4.9,2.9,4.9,2.9"/>
			</defs>
			<clipPath id="SVGID_122_">
				<use xlink:href="#SVGID_121_"  style="overflow:visible;"/>
			</clipPath>
			<g class="st66">
				<path class="st1" d="M313.7,1044.7h34.8v34.8h-34.8V1044.7z"/>
			</g>
		</g>
	</g>
</g>
<g>
	<defs>
		<rect id="SVGID_123_" x="320.3" y="1049.3" width="25" height="24.8"/>
	</defs>
	<clipPath id="SVGID_124_">
		<use xlink:href="#SVGID_123_"  style="overflow:visible;"/>
	</clipPath>
	<g class="st67">
		<g>
			<defs>
				<path id="SVGID_125_" d="M344.8,1058.4c-0.1,7.6-0.9,9.5-2,11c-1.2,1.5-2.8,2.8-4.5,3.6c-1.7,0.8-3.9,1.1-5.8,0.9
					c-1.9-0.1-3.9-0.8-5.5-1.7c-1.6-0.9-3.1-2.4-4-4c-0.9-1.6-1.6-3.6-1.7-5.5c-0.1-1.9,0.3-3.9,1.1-5.6c0.8-1.7,2-3.3,3.5-4.5
					c1.5-1.2,3.5-2.1,5.3-2.4c1.9-0.3,4-0.1,5.8,0.4c1.7,0.5,4.8,2.9,4.8,2.9"/>
			</defs>
			<clipPath id="SVGID_126_">
				<use xlink:href="#SVGID_125_"  style="overflow:visible;"/>
			</clipPath>
			<g class="st68">
				<path class="st1" d="M315.9,1044.7h34.8v34.8h-34.8V1044.7z"/>
			</g>
		</g>
	</g>
</g>
<g>
	<defs>
		<rect id="SVGID_127_" x="336" y="1049.3" width="24.5" height="24.8"/>
	</defs>
	<clipPath id="SVGID_128_">
		<use xlink:href="#SVGID_127_"  style="overflow:visible;"/>
	</clipPath>
	<g class="st69">
		<g>
			<defs>
				<path id="SVGID_129_" d="M360,1058.4c0,7.6-0.8,9.5-2,11c-1.2,1.5-2.8,2.8-4.5,3.6s-3.7,1.1-5.6,0.9c-1.9-0.1-3.9-0.8-5.5-1.7
					c-1.6-0.9-3.2-2.4-4.1-4c-0.9-1.6-1.6-3.6-1.7-5.5c-0.1-1.9,0.3-3.9,1.1-5.6c0.8-1.7,2.1-3.3,3.6-4.5s3.3-2,5.2-2.4
					c1.9-0.4,4-0.1,5.8,0.4c1.7,0.5,4.9,2.9,4.9,2.9"/>
			</defs>
			<clipPath id="SVGID_130_">
				<use xlink:href="#SVGID_129_"  style="overflow:visible;"/>
			</clipPath>
			<g class="st70">
				<path class="st1" d="M331.1,1044.7h34.8v34.8h-34.8V1044.7z"/>
			</g>
		</g>
	</g>
</g>
<g>
	<defs>
		<rect id="SVGID_131_" x="286.7" y="1032" width="104.5" height="30.1"/>
	</defs>
	<clipPath id="SVGID_132_">
		<use xlink:href="#SVGID_131_"  style="overflow:visible;"/>
	</clipPath>
	<g class="st71">
		<g>
			<defs>
				<path id="SVGID_133_" d="M379.1,1056.1c-35.6-1.3-60.4-0.7-70.5,1.5c-4.7,1.1-7.1,3.7-10.2,3.9c-2.5,0.1-5.3-1.2-7-2.1
					c-1.2-0.7-1.9-1.3-2.5-2.5c-0.9-1.6-2.1-4.7-2.1-7c0-2.3,1.1-5.1,2.5-6.8c1.5-1.7,3.9-3.3,6.2-3.9c2.3-0.5,5.3,0,7.2,0.7
					c1.3,0.4,2.1,0.9,3.1,2c1.3,1.5,3.1,4,3.5,6.3c0.4,2.3-0.3,5.3-0.9,7.2c-0.5,1.3-1.1,2-2.1,2.9c-1.5,1.2-4.3,2.9-6.6,3.2
					c-2.3,0.3-5.1-0.3-7.1-1.5c-2-1.2-3.9-3.2-4.8-5.3c-0.9-2.1-1.1-4.9-0.5-7.2c0.5-2.3,2.4-4.8,3.9-6.2c1.1-0.9,1.7-1.1,3.2-1.7
					c2.9-1.2,8-3.3,13.6-4.1c8.6-1.3,21.7,0.3,33-0.1c12.3-0.4,30.2-3.7,38.1-2.5c3.7,0.5,5.9,1.2,7.9,2.9c1.9,1.7,3.3,4.9,3.7,7.4
					c0.4,2,0,3.9-0.7,5.6c-0.7,1.7-1.6,3.3-3.1,4.5C385.2,1054.6,379.1,1056.1,379.1,1056.1"/>
			</defs>
			<clipPath id="SVGID_134_">
				<use xlink:href="#SVGID_133_"  style="overflow:visible;"/>
			</clipPath>
			<g class="st72">
				<path class="st1" d="M281.5,1027.4h115v39.2h-115V1027.4z"/>
			</g>
		</g>
	</g>
</g>
<g>
	<defs>
		<rect id="SVGID_135_" x="283" y="1005.3" width="176.5" height="76"/>
	</defs>
	<clipPath id="SVGID_136_">
		<use xlink:href="#SVGID_135_"  style="overflow:visible;"/>
	</clipPath>
	<g class="st73">
		<g>
			<defs>
				<path id="SVGID_137_" d="M296,1043.1c84.9,0.7,86.8,1.3,88.8,2.9c1.6,1.3,2.7,3.2,3.3,4.9c0.7,1.7,1.1,3.9,0.8,5.8
					c-0.3,1.9-1.1,4-2.1,5.6c-1.1,1.6-2.7,2.9-4.4,3.9c-1.7,0.9-2.8,1.1-5.8,1.5c-8.2,1.1-37.8,2.1-47.2,0.5
					c-4.1-0.7-6.4-1.3-8.6-3.2c-2.1-1.9-3.9-5.3-4.3-8.2c-0.4-2.8,0.8-6.7,2.1-9c1.1-1.9,2.9-3.1,4.7-4c1.7-0.9,3.1-1.1,6-1.5
					c7-0.8,29-2.5,36.5-0.1c3.7,1.2,6,3.3,7.8,5.5c1.3,1.7,2.1,3.7,2.3,5.9c0.1,2.7-0.8,7-2.3,9.2c-1.2,1.9-2.9,3.3-4.8,4.3
					c-1.9,0.9-3.6,1.2-6.2,1.5c-4.1,0.5-11.1-1.1-16.4,0.1c-5.6,1.3-11.5,7-16.3,7.8c-3.5,0.5-7,0.1-9.6-1.3
					c-2.7-1.5-5.2-4.5-6.3-7.4c-1.1-2.8-0.9-6.8,0.1-9.6c1.1-2.8,3.5-6,6.6-7.2c3.9-1.5,9.5,1.3,15.5,1.6c8,0.3,18.9,2.1,28.5-0.9
					c11.9-3.7,26.8-17.8,36.1-23.5c5.8-3.6,9.4-6,14.3-8.3c4.7-2.1,10-2.5,14.3-4.8c4-2.1,7.2-7,10.8-8.3c2.9-1.1,6.6-0.8,8.8-0.3
					c1.6,0.4,2.7,0.9,4,2c1.9,1.6,4.4,4.9,5.2,7.2c0.7,1.6,0.7,2.7,0.5,4.4c-0.3,2.4-1.6,6.3-2.9,8.3c-0.9,1.3-2.1,2.1-3.3,2.9
					s-2.4,1.6-4.1,1.9c-2.4,0.4-6.6,0-8.8-0.8c-1.6-0.5-2.5-1.2-3.7-2.4c-1.6-1.7-3.7-5.3-4.4-7.6c-0.4-1.6-0.5-2.9-0.1-4.5
					c0.5-2.3,2-5.9,4-7.9c2-2,5.1-3.5,7.9-3.9c2.8-0.4,6.3,0.3,8.7,1.6c2.4,1.3,4.8,4.4,5.9,6.6c0.8,1.5,1.1,2.7,1.1,4.4
					c0,2.4-1.1,6.4-2.1,8.6c-0.8,1.5-1.3,2-2.9,3.3c-3.7,3.2-14.8,10.4-21.1,13.2c-4.5,2-8.3,2-12.3,3.7c-4.3,1.9-7.4,4-12.6,7.2
					c-8.8,5.5-23.1,19.7-34.8,23.7c-9.6,3.3-21.7,2.9-28.9,1.7c-4.7-0.8-7.5-4.1-11.1-4.7c-3.2-0.5-6.7,1.7-9.6,0.9
					c-2.9-0.8-6.2-3.3-7.9-5.6c-1.3-1.9-2-4-2.3-6.2c-0.3-2.1-0.1-4.1,0.9-6.4c1.5-3.3,4.9-8.2,9.4-10.8c5.6-3.5,15.4-4.8,22.7-5.6
					c6.7-0.7,14.7-1.1,19.7,0.5c3.3,1.1,6,3.3,7.8,5.5c1.3,1.7,2.1,3.7,2.3,5.9c0.1,2.7-0.5,6.8-2.3,9.2c-1.7,2.4-4,4.1-7.8,5.3
					c-7.5,2.3-29.6,0.8-36.5,0c-2.9-0.4-4.3-0.5-6-1.5c-1.7-0.9-3.5-2.5-4.7-4.1c-1.1-1.6-2-3.6-2.1-5.8c-0.1-2.7,0.8-6.7,2.1-9
					c1.1-1.9,2.9-3.1,4.7-4c1.7-0.9,3.1-1.1,6-1.5c8.3-0.9,39.1-0.4,47.2,0.5c2.8,0.4,4,0.4,5.8,1.3c1.7,0.9,3.3,2.3,4.4,4
					c1.3,2.1,2.4,5.8,2.1,8.4c-0.3,2.7-2.4,6.2-4.1,7.9c-1.5,1.5-2.3,2-5.2,2.7c-11,2.7-70.5,2.7-83.6,0.3c-4.1-0.8-6-1.3-8-3.1
					c-2-1.9-3.6-5.3-4-7.8c-0.4-2,0-4,0.7-5.8c0.7-1.7,1.7-3.6,3.3-4.8C289.9,1044.7,296,1043.1,296,1043.1"/>
			</defs>
			<clipPath id="SVGID_138_">
				<use xlink:href="#SVGID_137_"  style="overflow:visible;"/>
			</clipPath>
			<g class="st74">
				<path class="st1" d="M278.6,1000.7H464v84.7H278.6V1000.7z"/>
			</g>
		</g>
	</g>
</g>
<g>
	<defs>
		<rect id="SVGID_139_" x="501.6" y="1033.8" width="192.6" height="47.5"/>
	</defs>
	<clipPath id="SVGID_140_">
		<use xlink:href="#SVGID_139_"  style="overflow:visible;"/>
	</clipPath>
	<g class="st75">
		<g>
			<defs>
				<path id="SVGID_141_" d="M520,1035.2c15,7.2,17.5,10.6,21.5,12.6c4.9,2.4,9.1,3.9,17.8,5.1c22.7,3.2,109.8-4.3,125.2,0.9
					c4,1.3,5.2,2.9,6.7,5.1c1.5,2.3,2.4,5.5,2.3,8.2c-0.1,2.7-1.7,5.9-3.1,7.8c-0.9,1.3-1.9,2.1-3.3,2.8c-2,0.9-5.5,2-8.2,1.7
					c-2.7-0.3-5.8-1.6-7.6-3.5c-2-1.9-3.5-5.2-4-7.5c-0.4-1.6-0.4-2.7,0-4.3c0.5-2.1,2.5-5.6,4-7.4c1.1-1.2,2-1.9,3.5-2.4
					c2.1-0.8,5.8-1.5,8.4-0.9c2.5,0.5,5.5,2.3,7.2,4.3c1.7,2,2.8,5.6,3.1,7.9c0.3,1.6,0.1,2.8-0.4,4.3c-0.8,2.1-2.7,5.3-4.8,7
					c-2.1,1.6-3.6,2-7.9,2.7c-15.7,2.5-90.5,0.4-113.5-0.7c-10-0.4-15.5-0.7-21.5-1.9c-4.7-0.9-8.2-1.9-11.9-4
					c-4.3-2.4-7.8-7.2-12.2-10c-4.3-2.7-10.8-4-13.9-6.4c-1.9-1.5-2.9-2.9-3.7-4.7c-0.8-1.7-1.3-3.7-1.1-5.9
					c0.3-2.5,1.9-6.3,3.6-8.2c1.3-1.6,3.1-2.5,5.1-3.1C513.5,1034,520,1035.2,520,1035.2"/>
			</defs>
			<clipPath id="SVGID_142_">
				<use xlink:href="#SVGID_141_"  style="overflow:visible;"/>
			</clipPath>
			<g class="st76">
				<path class="st1" d="M497.1,1029.4h201.5v55.3H497.1V1029.4z"/>
			</g>
		</g>
	</g>
</g>
<g>
	<defs>
		<rect id="SVGID_143_" x="493.3" y="1058.6" width="45.3" height="25"/>
	</defs>
	<clipPath id="SVGID_144_">
		<use xlink:href="#SVGID_143_"  style="overflow:visible;"/>
	</clipPath>
	<g class="st77">
		<g>
			<defs>
				<path id="SVGID_145_" d="M506.2,1058.6c26.5,1.6,28.5,3.2,29.8,5.2s2.1,5.1,2,7.5c-0.1,2.4-1.2,5.3-2.8,7.2
					c-1.6,1.9-4.7,3.5-6.7,4c-1.5,0.4-2.4,0.4-3.9,0.1c-2-0.4-5.5-1.9-7.1-3.2c-1.2-0.9-1.7-2-2.4-3.2c-0.5-1.1-1.1-2.1-1.2-3.6
					c-0.1-2.1,0-5.6,1.2-7.8s3.7-4.1,5.6-5.2c1.3-0.8,2.4-1.1,3.9-1.1c2.1,0,5.3,0.4,7.5,1.6c2.1,1.2,4.1,3.6,5.1,5.9
					c0.9,2.3,0.8,5.8,0.4,7.8c-0.3,1.5-0.7,2.4-1.6,3.6c-1.3,1.6-4.4,3.9-6.3,4.7c-1.3,0.5-2.1,0.5-3.9,0.7
					c-4,0.3-15.1,0.4-19.7-0.1c-2.4-0.3-4-0.5-5.6-1.3c-1.6-0.9-3.2-2.1-4.3-3.9c-1.3-2.1-2.4-5.6-2.1-8.3c0.3-2.7,2-5.9,4-7.6
					C500.2,1059.8,506.2,1058.6,506.2,1058.6"/>
			</defs>
			<clipPath id="SVGID_146_">
				<use xlink:href="#SVGID_145_"  style="overflow:visible;"/>
			</clipPath>
			<g class="st78">
				<path class="st1" d="M488.8,1053.3h54.4v34.8h-54.4V1053.3z"/>
			</g>
		</g>
	</g>
</g>
</svg>
